<svg width="25" height="25" viewBox="0 0 25 25" fill="none" xmlns="http://www.w3.org/2000/svg">
  <path d="M8.85415 3.125L5.20831 9.375" stroke="currentColor" stroke-width="1.5" stroke-linecap="round" stroke-linejoin="round"/>
  <path d="M15.1041 17.7083V13.5417" stroke="currentColor" stroke-width="1.5" stroke-linecap="round" stroke-linejoin="round"/>
  <path d="M9.89583 17.7083V13.5417" stroke="currentColor" stroke-width="1.5" stroke-linecap="round" stroke-linejoin="round"/>
  <path fill-rule="evenodd" clip-rule="evenodd" d="M18.6309 21.875H6.36903C5.23633 21.875 4.26571 21.0649 4.06308 19.9505L2.64262 12.138C2.5183 11.4543 2.70384 10.7506 3.14915 10.217C3.59445 9.68343 4.25359 9.375 4.94857 9.375H20.0514C20.7464 9.375 21.4055 9.68343 21.8508 10.217C22.2961 10.7506 22.4817 11.4542 22.3573 12.138L20.9369 19.9505C20.7342 21.0649 19.7636 21.875 18.6309 21.875V21.875Z" stroke="currentColor" stroke-width="1.5" stroke-linecap="round" stroke-linejoin="round"/>
  <path d="M16.1458 3.125L19.7916 9.375" stroke="currentColor" stroke-width="1.5" stroke-linecap="round" stroke-linejoin="round"/>
</svg>
