<svg width="40" height="40" viewBox="0 0 40 40" fill="none" xmlns="http://www.w3.org/2000/svg">
  <circle cx="20" cy="19.9999" r="15.0062" stroke="currentColor" stroke-width="2" stroke-linecap="round" stroke-linejoin="round"/>
  <path fill-rule="evenodd" clip-rule="evenodd" d="M26.0209 27.5031H13.9792C13.4676 27.5022 13.053 27.0877 13.0521 26.5761V25.8241C13.0585 23.6842 14.7922 21.9513 16.9321 21.9458H23.068C25.2079 21.9513 26.9415 23.6842 26.9479 25.8241V26.5761C26.947 27.0877 26.5325 27.5022 26.0209 27.5031Z" stroke="currentColor" stroke-width="2" stroke-linecap="round" stroke-linejoin="round"/>
  <path fill-rule="evenodd" clip-rule="evenodd" d="M19.9999 18.3327C17.93 18.3327 16.2512 16.6561 16.2484 14.5861C16.2457 12.5162 17.92 10.8351 19.99 10.8296C22.06 10.8241 23.7432 12.4962 23.7515 14.5662C23.7546 15.5635 23.3608 16.521 22.657 17.2276C21.9532 17.9343 20.9973 18.3318 19.9999 18.3327V18.3327Z" stroke="currentColor" stroke-width="2" stroke-linecap="round" stroke-linejoin="round"/>
</svg>
