<svg width="25" height="25" viewBox="0 0 25 25" fill="none" xmlns="http://www.w3.org/2000/svg">
  <path fill-rule="evenodd" clip-rule="evenodd" d="M6.25 3.125H18.75C20.4759 3.125 21.875 4.52411 21.875 6.25V18.75C21.875 20.4759 20.4759 21.875 18.75 21.875H6.25C4.52411 21.875 3.125 20.4759 3.125 18.75V6.25C3.125 4.52411 4.52411 3.125 6.25 3.125Z" stroke="#F97316" stroke-width="2" stroke-linecap="round" stroke-linejoin="round"/>
  <path fill-rule="evenodd" clip-rule="evenodd" d="M12.5 17.6656V7.33407C12.5 6.44598 11.9982 5.63412 11.2039 5.23695L7.64754 3.45882C6.67884 2.97447 5.52841 3.02623 4.60711 3.59561C3.68581 4.16499 3.12502 5.17081 3.125 6.25386V18.7458C3.125 19.8288 3.68579 20.8347 4.60709 21.4041C5.52839 21.9735 6.67883 22.0252 7.64754 21.5409L11.2039 19.7627C11.9982 19.3655 12.5 18.5537 12.5 17.6656V17.6656Z" stroke="#F97316" stroke-width="2" stroke-linecap="round" stroke-linejoin="round"/>
  <path d="M9.37496 11.4585V13.5418" stroke="#F97316" stroke-width="2" stroke-linecap="round" stroke-linejoin="round"/>
</svg>
