<svg width="25" height="25" viewBox="0 0 25 25" fill="none" xmlns="http://www.w3.org/2000/svg">
  <path fill-rule="evenodd" clip-rule="evenodd" d="M22.3423 7.20575C22.4954 6.72447 22.3423 6.37443 21.6641 6.37443H19.4107C18.8419 6.37443 18.5794 6.68069 18.4263 7.0089C18.4263 7.0089 17.2668 9.80917 15.6478 11.6249C15.1228 12.15 14.8821 12.325 14.5978 12.325C14.4446 12.325 14.2477 12.15 14.2477 11.6687V7.18386C14.2477 6.61507 14.0727 6.35254 13.5914 6.35254H10.0473C9.69727 6.35254 9.47853 6.61507 9.47853 6.8776C9.47853 7.42456 10.2879 7.55579 10.3755 9.08719V12.4125C10.3755 13.1345 10.2442 13.2657 9.9598 13.2657C9.1941 13.2657 7.33455 10.4436 6.21881 7.22764C6 6.59318 5.78126 6.35254 5.21247 6.35254H2.9372C2.2809 6.35254 2.17151 6.65886 2.17151 6.98701C2.17151 7.57768 2.9372 10.553 5.73747 14.4909C7.59708 17.1817 10.2442 18.6256 12.6288 18.6256C14.0727 18.6256 14.2477 18.2975 14.2477 17.7506V15.716C14.2477 15.0597 14.379 14.9503 14.8384 14.9503C15.1666 14.9503 15.7573 15.1253 17.0917 16.416C18.6231 17.9474 18.8857 18.6475 19.7389 18.6475H21.9923C22.6486 18.6475 22.9549 18.3194 22.7799 17.6849C22.5829 17.0505 21.8391 16.1317 20.8765 15.0378C20.3515 14.4253 19.5639 13.7471 19.3232 13.4189C18.9951 12.9814 19.0826 12.8064 19.3232 12.4125C19.3014 12.4125 22.0579 8.51841 22.3423 7.20575Z" fill="white"/>
</svg>
