<svg width="165" height="65" viewBox="0 0 165 65" fill="none" xmlns="http://www.w3.org/2000/svg">
  <path d="M95.2463 36.627C95.454 36.627 95.5579 36.7025 95.5579 36.8535V45.5762L95.9827 45.6045C96.0393 45.6045 96.1243 45.5762 96.2375 45.5195C96.3508 45.5762 96.4358 45.6045 96.4924 45.6045L96.6624 45.5195L96.8323 45.6045C97.2099 45.5479 97.5214 45.5195 97.7668 45.5195H97.8518C97.9462 45.5195 97.9934 45.3307 97.9934 44.9531L97.7668 37.0518C97.8424 36.8818 98.0595 36.7969 98.4182 36.7969H101.194C101.307 36.8158 101.364 36.8724 101.364 36.9668C101.42 43.0273 101.448 46.7845 101.448 48.2383L101.533 48.833C101.533 48.8896 101.505 48.918 101.448 48.918C101.505 49.4089 101.562 52.1559 101.618 57.1592L101.703 57.3291C101.647 57.4235 101.618 57.5368 101.618 57.6689V58.7734C101.618 58.8867 101.562 58.9434 101.448 58.9434H99.4377L98.843 59.0283V58.9434L98.6731 59.0283H98.1633C98.0878 59.0283 98.0028 58.915 97.9084 58.6885C97.9084 58.3864 97.9368 58.1221 97.9934 57.8955C97.9368 54.4215 97.9084 52.2692 97.9084 51.4385V49.1445L97.512 49.0596C97.2476 49.0596 96.6246 49.0879 95.6428 49.1445V51.7783L95.7278 52.2598C95.6711 52.373 95.6428 52.4863 95.6428 52.5996C95.6995 52.7129 95.7278 52.7979 95.7278 52.8545C95.7278 52.9111 95.6995 52.9395 95.6428 52.9395L95.7278 53.3643L95.6711 58.8018C95.6145 58.9717 95.454 59.0566 95.1897 59.0566H95.1047C94.5006 59.0566 93.6226 59.0378 92.4709 59C92.3577 58.8112 92.301 58.6413 92.301 58.4902V58.1504C92.301 57.9805 92.3293 57.8955 92.386 57.8955L92.301 57.499V49.2012L92.2161 45.6045C92.2161 45.6045 92.1311 38.5244 92.1311 37.7881C92.1311 37.6937 92.1122 37.3822 92.0745 36.8535L92.1877 36.7686L93.6321 36.6836C94.0852 36.6836 94.6233 36.6647 95.2463 36.627Z" fill="black"/>
  <path fill-rule="evenodd" clip-rule="evenodd" d="M121.884 37.8164C121.847 37.0612 121.412 36.6836 120.582 36.6836C119.581 36.7214 118.845 36.7402 118.373 36.7402H117.381V36.8818H117.296V36.8252H113.105C112.973 36.8252 112.878 36.9007 112.822 37.0518C112.86 37.2783 112.878 37.5238 112.878 37.7881V38.2412L112.907 38.5811C112.888 38.5811 112.878 38.5905 112.878 38.6094C112.897 38.666 112.907 38.7321 112.907 38.8076V41.2432L112.963 41.3281H112.907L112.963 41.5547V44.3584L112.992 44.4434H112.963L112.992 44.6699L112.963 45.0098C112.982 45.0098 112.992 45.0192 112.992 45.0381H112.963V45.6611H112.575C112.443 45.6611 112.377 45.765 112.377 45.9727V47.1621C112.377 47.6152 112.367 48.21 112.348 48.9463C112.367 49.0218 112.433 49.069 112.547 49.0879C112.691 49.0879 112.846 49.1162 112.992 49.1445L113.048 49.7109V55.7432L113.105 55.8564C113.067 55.8564 113.048 55.8659 113.048 55.8848V56.083L113.105 56.3662C113.067 56.4229 113.048 56.4701 113.048 56.5078C113.048 56.6589 113.067 56.8854 113.105 57.1875C113.105 57.263 113.086 57.3291 113.048 57.3857C113.086 57.5557 113.105 57.6973 113.105 57.8105V58.8867C113.124 58.9622 113.228 59.0378 113.417 59.1133C113.586 59.0755 113.728 59.0566 113.841 59.0566H114.634L114.861 59.0283C114.861 59.0472 114.88 59.0566 114.918 59.0566L115.144 59.0283L115.342 59.0566C115.38 59.0566 115.427 59.0472 115.484 59.0283L115.569 59.0566C115.626 59.0378 115.692 59.0283 115.767 59.0283H116.418C116.494 58.9528 116.598 58.915 116.73 58.915V55.4316L116.702 54.9502C116.721 54.9502 116.73 54.9408 116.73 54.9219C116.711 54.8652 116.702 54.7992 116.702 54.7236V54.5254C116.702 53.959 116.711 53.5908 116.73 53.4209C116.711 53.0433 116.702 52.6185 116.702 52.1465V50.4189L116.645 50.334C116.683 50.334 116.702 50.3151 116.702 50.2773V49.1162H116.985C119.723 49.1162 121.091 49.0407 121.091 48.8896C121.677 48.7197 121.969 48.125 121.969 47.1055C121.969 46.9922 121.95 46.8506 121.913 46.6807C121.95 46.5674 121.969 46.4635 121.969 46.3691C121.969 46.2559 121.95 46.1143 121.913 45.9443L121.969 45.8311L121.913 45.5762V41.498L121.884 41.2715C121.903 41.2715 121.913 41.262 121.913 41.2432L121.884 41.1299C121.903 41.1299 121.913 41.1204 121.913 41.1016L121.884 40.9883H121.913L121.884 40.5352V37.8164ZM116.56 40.6768V39.9121H118.033C118.165 39.9121 118.231 39.9782 118.231 40.1104C118.231 41.6774 118.259 43.4144 118.316 45.3213C118.316 45.5667 118.212 45.6895 118.004 45.6895H116.73L116.645 45.6611C116.607 44.4906 116.588 43.5749 116.588 42.9141C116.588 42.8763 116.579 42.8291 116.56 42.7725H116.588C116.57 41.8285 116.56 41.1299 116.56 40.6768Z" fill="black"/>
  <path fill-rule="evenodd" clip-rule="evenodd" d="M104.24 36.7686H103.985C103.418 36.7686 102.994 36.9762 102.71 37.3916C102.484 37.7503 102.371 38.5055 102.371 39.6572V40.082L102.427 40.5352C102.389 40.5352 102.371 40.6012 102.371 40.7334C102.371 40.7523 102.389 40.7995 102.427 40.875H102.371L102.427 41.4131V41.7529C102.427 41.8096 102.408 41.8662 102.371 41.9229C102.408 41.9795 102.427 42.0456 102.427 42.1211V43.2256C102.427 43.4899 102.437 43.792 102.456 44.1318L102.427 44.2168L102.512 46.8506L102.456 47.0488C102.493 47.4453 102.531 48.2855 102.569 49.5693L102.512 49.6543C102.55 49.7109 102.569 49.777 102.569 49.8525V51.0986C102.569 51.4762 102.578 51.9577 102.597 52.543C102.578 52.5996 102.569 52.6468 102.569 52.6846L102.654 55.0918C102.616 55.0918 102.597 55.1201 102.597 55.1768C102.635 55.1768 102.654 55.1956 102.654 55.2334L102.597 55.3184C102.635 55.375 102.654 55.4411 102.654 55.5166V55.8281L102.597 56.083C102.635 56.083 102.654 56.0924 102.654 56.1113L102.597 56.5361C102.635 56.8005 102.654 56.9515 102.654 56.9893L102.597 57.1875C102.597 57.5651 102.739 57.9805 103.022 58.4336C103.343 58.9056 104.013 59.1416 105.033 59.1416H107.355L107.44 59.085V59.1416L107.893 59.085H109.536C110.159 59.085 110.65 58.8773 111.008 58.4619C111.386 58.1598 111.575 57.6312 111.575 56.876L111.518 55.9414C111.556 55.6771 111.575 55.46 111.575 55.29V50.249L111.518 50.1641C111.556 50.1641 111.575 50.1452 111.575 50.1074V49.8525L111.518 49.7393C111.556 49.7393 111.575 49.7298 111.575 49.7109V48.5781L111.518 48.4932H111.575C111.518 45.9443 111.49 44.0091 111.49 42.6875L111.433 41.9229C111.471 41.9229 111.49 41.9134 111.49 41.8945C111.452 41.8379 111.433 41.7718 111.433 41.6963V39.2891C111.433 38.194 111.329 37.6465 111.122 37.6465V37.335C110.857 36.9574 110.48 36.7686 109.989 36.7686H107.44V36.8535H107.383L107.242 36.7686H104.381L104.268 36.8252C104.268 36.7874 104.259 36.7686 104.24 36.7686ZM106.137 40.082H107.44L107.667 40.0254C107.667 40.0632 107.685 40.082 107.723 40.082L107.808 40.0254C107.997 40.0254 108.091 40.1292 108.091 40.3369V40.5918C108.054 40.5918 108.035 40.6012 108.035 40.6201C108.072 40.6768 108.091 40.7428 108.091 40.8184V41.4131L108.035 41.6396C108.072 41.6396 108.091 41.6585 108.091 41.6963C108.091 41.734 108.072 41.7812 108.035 41.8379L108.091 41.9229C108.148 48.6253 108.176 52.694 108.176 54.1289L108.233 54.2139H108.176L108.233 54.4404V55.29C108.233 55.5355 108.11 55.6582 107.865 55.6582H106.477C106.232 55.6582 106.099 55.5355 106.081 55.29V54.5254L106.052 54.4404H106.081C106.081 54.4027 106.071 54.3555 106.052 54.2988L106.081 54.2139C106.081 54.1383 106.071 54.0156 106.052 53.8457L106.081 53.7324C106.062 53.6758 106.052 53.638 106.052 53.6191C106.052 53.5436 106.062 53.4775 106.081 53.4209C106.062 53.3643 106.052 53.2982 106.052 53.2227V49.7959L105.996 49.5693C106.033 49.5693 106.052 49.5505 106.052 49.5127C106.052 49.4749 106.033 49.4277 105.996 49.3711H106.052C106.052 49.3522 106.033 49.2295 105.996 49.0029C105.996 48.8896 106.014 48.8141 106.052 48.7764L105.996 48.6631C105.996 47.3226 105.977 44.5566 105.939 40.3652C105.939 40.1764 106.005 40.082 106.137 40.082Z" fill="black"/>
  <path d="M84.7949 36.8252L84.5684 36.7686C84.5684 36.8063 84.5212 36.8252 84.4268 36.8252H83.6904C82.5765 36.8818 82.0101 37.3538 81.9912 38.2412C82.0479 40.1292 82.0762 41.6302 82.0762 42.7441L82.0479 43.084C82.0667 43.084 82.0762 43.0934 82.0762 43.1123C82.0573 43.4333 82.0479 43.6787 82.0479 43.8486C82.0479 44.3018 82.3405 44.9531 82.9258 45.8027C85.0026 48.6914 86.1165 50.2113 86.2676 50.3623C86.6829 51.042 87.0511 51.5612 87.3721 51.9199C87.4098 52.3353 87.4287 52.6468 87.4287 52.8545V55.2051C87.4287 55.5072 87.3532 55.6771 87.2021 55.7148H85.7578C85.4557 55.6771 85.3047 55.5638 85.3047 55.375L85.3613 54.4121C85.3236 54.4121 85.3047 54.3932 85.3047 54.3555L85.3613 54.2705C85.3236 54.2139 85.3047 54.1572 85.3047 54.1006V53.251C85.3047 53.0244 85.248 52.8923 85.1348 52.8545H84.1436L83.917 52.7979C83.917 52.8356 83.9076 52.8545 83.8887 52.8545C83.5677 52.8167 83.3223 52.7979 83.1523 52.7979H82.416C82.2461 52.8167 82.1517 52.93 82.1328 53.1377C82.1706 54.7803 82.1895 56.0924 82.1895 57.0742V57.6406C82.1895 57.9805 82.1989 58.1504 82.2178 58.1504C82.2178 58.7357 82.5765 59.0755 83.2939 59.1699C85.1442 59.1322 86.4469 59.1133 87.2021 59.1133C87.2399 59.1133 87.2871 59.0944 87.3438 59.0566V59.1133L87.6553 59.0566H88.5332L88.7598 59.1133C89.3451 59.1133 89.8643 58.9528 90.3174 58.6318C90.6572 58.3486 90.8271 57.971 90.8271 57.499V52.3447C90.8271 52.1937 90.8177 51.9577 90.7988 51.6367C90.8177 51.6367 90.8271 51.6273 90.8271 51.6084C90.8083 51.6084 90.7988 51.4668 90.7988 51.1836C90.7611 50.9004 89.6188 49.2767 87.3721 46.3125C86.4658 44.9909 85.7673 44.0091 85.2764 43.3672V40.4502C85.2764 40.2614 85.3708 40.167 85.5596 40.167H86.4092L86.4941 40.1387V40.167C86.5319 40.167 86.5791 40.1576 86.6357 40.1387C86.6735 40.1387 86.7207 40.1481 86.7773 40.167C86.7962 40.167 86.8623 40.1576 86.9756 40.1387L87.2021 40.167C87.2021 40.1481 87.2116 40.1387 87.2305 40.1387C87.3626 40.1387 87.4287 40.252 87.4287 40.4785V42.4609C87.4287 42.6497 87.5326 42.7441 87.7402 42.7441H88.8447L88.958 42.7158C88.958 42.7347 88.9674 42.7441 88.9863 42.7441H89.1279L89.4111 42.7158C89.4678 42.7347 89.515 42.7441 89.5527 42.7441L89.6377 42.7158V42.7441L89.8643 42.7158H90.2607C90.4684 42.7158 90.5817 42.5176 90.6006 42.1211V41.5547L90.5723 41.4697C90.5911 41.4697 90.6006 41.4508 90.6006 41.4131V37.873C90.5817 37.6654 90.5062 37.4671 90.374 37.2783C90.0908 36.9385 89.7227 36.7686 89.2695 36.7686H86.9189L86.834 36.8252V36.7686L86.3809 36.8252H86.2393C86.1637 36.8252 86.0977 36.8063 86.041 36.7686C85.9844 36.8063 85.9277 36.8252 85.8711 36.8252H84.7949Z" fill="black"/>
  <path d="M95.0627 10.627C95.2704 10.627 95.3743 10.7025 95.3743 10.8535V19.5762L95.7991 19.6045C95.8557 19.6045 95.9407 19.5762 96.054 19.5195C96.1672 19.5762 96.2522 19.6045 96.3088 19.6045L96.4788 19.5195L96.6487 19.6045C97.0263 19.5479 97.3378 19.5195 97.5833 19.5195H97.6682C97.7626 19.5195 97.8098 19.3307 97.8098 18.9531L97.5833 11.0518C97.6588 10.8818 97.8759 10.7969 98.2346 10.7969H101.01C101.123 10.8158 101.18 10.8724 101.18 10.9668C101.237 17.0273 101.265 20.7845 101.265 22.2383L101.35 22.833C101.35 22.8896 101.322 22.918 101.265 22.918C101.322 23.4089 101.378 26.1559 101.435 31.1592L101.52 31.3291C101.463 31.4235 101.435 31.5368 101.435 31.6689V32.7734C101.435 32.8867 101.378 32.9434 101.265 32.9434H99.2542L98.6594 33.0283V32.9434L98.4895 33.0283H97.9797C97.9042 33.0283 97.8193 32.915 97.7249 32.6885C97.7249 32.3864 97.7532 32.1221 97.8098 31.8955C97.7532 28.4215 97.7249 26.2692 97.7249 25.4385V23.1445L97.3284 23.0596C97.064 23.0596 96.441 23.0879 95.4592 23.1445V25.7783L95.5442 26.2598C95.4875 26.373 95.4592 26.4863 95.4592 26.5996C95.5159 26.7129 95.5442 26.7979 95.5442 26.8545C95.5442 26.9111 95.5159 26.9395 95.4592 26.9395L95.5442 27.3643L95.4875 32.8018C95.4309 32.9717 95.2704 33.0566 95.0061 33.0566H94.9211C94.317 33.0566 93.439 33.0378 92.2874 33C92.1741 32.8112 92.1174 32.6413 92.1174 32.4902V32.1504C92.1174 31.9805 92.1458 31.8955 92.2024 31.8955L92.1174 31.499V23.2012L92.0325 19.6045C92.0325 19.6045 91.9475 12.5244 91.9475 11.7881C91.9475 11.6937 91.9286 11.3822 91.8909 10.8535L92.0042 10.7686L93.4485 10.6836C93.9016 10.6836 94.4397 10.6647 95.0627 10.627Z" fill="#FF5C00"/>
  <path d="M106.647 10.7402C106.571 10.7402 106.505 10.7214 106.449 10.6836C106.392 10.7214 106.326 10.7402 106.25 10.7402H103.163C102.937 10.7402 102.805 10.8818 102.767 11.165C102.861 11.5426 102.908 12.666 102.908 14.5352V16.0645C102.908 16.5176 102.927 17.3861 102.965 18.6699L102.908 19.4062V19.6045C102.592 19.7677 102.563 19.8175 102.525 19.8839C102.509 19.9116 102.491 19.9423 102.45 19.9854C102.311 20.1315 102.224 22.5683 102.45 22.6746C102.676 22.7808 102.908 22.9746 102.908 22.9746C103.003 22.9746 103.05 23.1068 103.05 23.3711C103.088 26.4863 103.107 28.4027 103.107 29.1201C103.107 29.1579 103.126 29.2051 103.163 29.2617H103.107C103.107 29.3939 103.126 29.4883 103.163 29.5449C103.163 29.6016 103.144 29.6582 103.107 29.7148C103.144 30.1491 103.163 30.5173 103.163 30.8193V32.915L103.248 33.0566C103.607 33.0189 103.871 33 104.041 33H108.119L108.573 32.9717C108.573 32.9906 108.62 33 108.714 33H109.705L109.79 32.9717C109.79 32.9906 109.809 33 109.847 33H110.725C110.838 32.9245 110.895 32.8678 110.895 32.8301V32.6885C110.895 32.443 110.885 32.1504 110.866 31.8105L110.895 31.7256L110.866 31.4424V30.4229L110.895 29.8564C110.782 29.7998 110.659 29.7715 110.527 29.7715H106.817C106.76 28.4688 106.713 26.2031 106.675 22.9746H108.346L108.573 22.9463C108.573 22.9652 108.591 22.9746 108.629 22.9746C108.686 22.9557 108.752 22.9463 108.827 22.9463H110.102C110.461 22.9463 110.668 22.8708 110.725 22.7197V21.4453L110.668 21.3604H110.725L110.668 21.1338V19.7461L110.583 19.6045C109.224 19.6234 108.185 19.6328 107.468 19.6328H107.241L106.675 19.6895C106.675 19.6517 106.647 19.6328 106.59 19.6328C106.552 17.1595 106.533 15.5264 106.533 14.7334C106.533 14.5635 106.524 14.3275 106.505 14.0254L106.59 13.9688H108.403L108.714 13.9404C108.714 13.9593 108.78 13.9688 108.912 13.9688H109.281L109.366 13.9404C109.366 13.9593 109.384 13.9688 109.422 13.9688H109.847C109.998 13.9688 110.225 13.9593 110.527 13.9404C110.527 13.9593 110.574 13.9876 110.668 14.0254C110.8 14.0254 110.866 13.9782 110.866 13.8838V12.5527C110.866 12.2695 110.848 11.958 110.81 11.6182C110.848 11.5238 110.866 11.2878 110.866 10.9102C110.866 10.8346 110.829 10.7874 110.753 10.7686H110.442C110.253 10.7686 110.017 10.7591 109.734 10.7402C109.715 10.7402 109.668 10.7497 109.592 10.7686C109.29 10.7497 109.045 10.7402 108.856 10.7402H106.647Z" fill="#FF5C00"/>
  <path d="M147.581 10.7402C147.506 10.7402 147.439 10.7214 147.383 10.6836C147.326 10.7214 147.26 10.7402 147.185 10.7402H144.098C143.871 10.7402 143.739 10.8818 143.701 11.165C143.796 11.5426 143.843 12.666 143.843 14.5352V16.0645C143.843 16.5176 143.862 17.3861 143.899 18.6699L143.843 19.4062V19.6045H143.284C142.976 19.6045 143.061 20.699 143.1 21.1976C143.108 21.3021 143.114 21.3805 143.114 21.417C143.173 21.5055 143.167 21.7523 143.159 22.0241C143.147 22.4663 143.133 22.9746 143.398 22.9746H143.843C143.937 22.9746 143.984 23.1068 143.984 23.3711C144.022 26.4863 144.041 28.4027 144.041 29.1201C144.041 29.1579 144.06 29.2051 144.098 29.2617H144.041C144.041 29.3939 144.06 29.4883 144.098 29.5449C144.098 29.6016 144.079 29.6582 144.041 29.7148C144.079 30.1491 144.098 30.5173 144.098 30.8193V32.915L144.183 33.0566C144.541 33.0189 144.806 33 144.976 33H149.054L149.507 32.9717C149.507 32.9906 149.554 33 149.648 33H150.64L150.725 32.9717C150.725 32.9906 150.743 33 150.781 33H151.659C151.772 32.9245 151.829 32.8678 151.829 32.8301V32.6885C151.829 32.443 151.82 32.1504 151.801 31.8105L151.829 31.7256L151.801 31.4424V30.4229L151.829 29.8564C151.716 29.7998 151.593 29.7715 151.461 29.7715H147.751C147.694 28.4688 147.647 26.2031 147.609 22.9746H149.28L149.507 22.9463C149.507 22.9652 149.526 22.9746 149.563 22.9746C149.62 22.9557 149.686 22.9463 149.762 22.9463H151.036C151.395 22.9463 151.603 22.8708 151.659 22.7197V21.4453L151.603 21.3604H151.659L151.603 21.1338V19.7461L151.518 19.6045C150.158 19.6234 149.12 19.6328 148.402 19.6328H148.176L147.609 19.6895C147.609 19.6517 147.581 19.6328 147.524 19.6328C147.487 17.1595 147.468 15.5264 147.468 14.7334C147.468 14.5635 147.458 14.3275 147.439 14.0254L147.524 13.9688H149.337L149.648 13.9404C149.648 13.9593 149.714 13.9688 149.847 13.9688H150.215L150.3 13.9404C150.3 13.9593 150.319 13.9688 150.356 13.9688H150.781C150.932 13.9688 151.159 13.9593 151.461 13.9404C151.461 13.9593 151.508 13.9876 151.603 14.0254C151.735 14.0254 151.801 13.9782 151.801 13.8838V12.5527C151.801 12.2695 151.782 11.958 151.744 11.6182C151.782 11.5238 151.801 11.2878 151.801 10.9102C151.801 10.8346 151.763 10.7874 151.687 10.7686H151.376C151.187 10.7686 150.951 10.7591 150.668 10.7402C150.649 10.7402 150.602 10.7497 150.526 10.7686C150.224 10.7497 149.979 10.7402 149.79 10.7402H147.581Z" fill="#FF5C00"/>
  <path d="M159.703 10.9102C159.666 10.8724 159.543 10.8535 159.335 10.8535C159.279 10.8535 159.194 10.9668 159.08 11.1934C159.08 11.3066 158.306 13.931 156.758 19.0664H156.73C156.73 18.821 156.711 18.6038 156.673 18.415L156.73 18.3018L156.673 18.2168C156.673 16.6875 156.654 14.3936 156.616 11.335L156.673 10.9385C156.654 10.863 156.569 10.8252 156.418 10.8252L153.105 10.6836C152.973 10.7591 152.906 10.8346 152.906 10.9102L152.935 11.0801L152.878 11.3916C152.916 11.3916 152.935 11.4105 152.935 11.4482L152.878 11.5332C152.878 12.194 152.897 13.9121 152.935 16.6875L152.963 16.8574C152.944 16.8574 152.935 16.8763 152.935 16.9141L152.963 17.1973V21.6436L153.02 21.7285H152.963C152.963 21.804 152.982 21.8701 153.02 21.9268L152.963 22.0117C153.001 22.4082 153.02 22.7386 153.02 23.0029V27.0244L153.076 27.5625C153.039 27.5625 153.02 27.5814 153.02 27.6191C153.058 27.6758 153.076 27.7419 153.076 27.8174V32.8018C153.076 32.9906 153.161 33.085 153.331 33.085H153.898C154.521 33.085 155.37 33.1038 156.447 33.1416C156.635 33.0661 156.73 33 156.73 32.9434V30.9326L156.758 30.7061C156.739 30.7061 156.73 30.6872 156.73 30.6494C156.749 30.6494 156.758 30.64 156.758 30.6211V30.4795L156.73 30.3945H156.758C156.758 30.3568 156.749 30.3096 156.73 30.2529C156.73 28.7048 156.711 26.4674 156.673 23.541V22.6064C156.711 22.5498 156.815 22.5215 156.985 22.5215H157.608C157.778 22.5215 157.966 22.597 158.174 22.748C158.608 23.0879 158.825 23.626 158.825 24.3623V29.1201L158.854 29.2051H158.825L158.854 29.6865V30.1396C158.854 31.8577 158.995 32.7168 159.279 32.7168C159.279 32.9622 160.043 33.085 161.573 33.085C161.742 33.0661 162.045 33.0566 162.479 33.0566H162.932V32.9434C162.875 32.9056 162.828 32.8584 162.79 32.8018C162.583 32.8018 162.441 30.5173 162.365 25.9482C162.403 25.9482 162.422 25.9105 162.422 25.835C162.384 25.835 162.365 25.8255 162.365 25.8066H162.422L162.365 25.5518C162.365 24.7965 162.356 23.7109 162.337 22.2949C162.318 21.8229 162.177 21.332 161.912 20.8223C161.648 20.2936 161.101 19.9443 160.27 19.7744C161.176 16.5837 161.695 14.8372 161.827 14.5352C162.318 12.4583 162.639 11.2972 162.79 11.0518C162.79 11.014 162.771 10.9668 162.734 10.9102C162.601 10.9102 161.875 10.8913 160.553 10.8535C160.421 10.8535 160.138 10.8724 159.703 10.9102Z" fill="#FF5C00"/>
  <path fill-rule="evenodd" clip-rule="evenodd" d="M139.729 10.7969C140.559 10.7969 141.126 10.929 141.428 11.1934C141.73 11.4577 141.881 11.8447 141.881 12.3545V14.1387L141.938 14.6768H141.881L141.938 14.7617V18.0678C141.938 18.1433 141.947 18.2 141.966 18.2377C141.947 18.2944 141.938 18.3604 141.938 18.436V18.4926L141.966 18.7192H141.938L141.966 18.8041V18.9457C141.966 18.9646 141.956 18.974 141.938 18.974L141.966 19.0873V19.5688L141.938 19.852C141.938 19.8897 141.947 19.9086 141.966 19.9086L141.938 20.1352V20.2201C141.938 21.4285 141.588 22.2498 140.89 22.684C141.399 22.8162 141.786 23.156 142.051 23.7035C142.145 24.0623 142.192 24.3738 142.192 24.6381C142.212 26.4787 142.227 27.5978 142.236 28.3223C142.245 28.9875 142.249 29.3202 142.249 29.5732L142.306 29.6865C142.268 29.7432 142.249 29.7904 142.249 29.8281C142.287 29.8848 142.306 29.9225 142.306 29.9414H142.249L142.306 30.0547V31.7822C142.306 32.2354 142.4 32.5752 142.589 32.8018V32.8867C142.589 32.9245 142.542 32.9717 142.447 33.0283C141.786 32.9906 141.352 32.9717 141.145 32.9717V32.9434L141.031 32.9717L139.644 32.8584C139.587 32.8584 139.53 32.8773 139.474 32.915C139.115 32.915 138.898 32.3958 138.822 31.3574C138.817 30.5512 138.813 29.8805 138.81 29.3074L138.81 29.2871C138.799 27.6192 138.794 26.7812 138.794 25.8276C138.756 25.6576 138.737 25.5632 138.737 25.5444L138.794 25.4594C138.756 25.1573 138.737 24.9119 138.737 24.7231C138.737 24.3266 138.586 24.1283 138.284 24.1283L136.727 24.1C136.727 24.1567 136.717 24.185 136.698 24.185L136.727 24.2699V26.7979C136.727 26.8734 136.745 26.9395 136.783 26.9961C136.783 27.015 136.764 27.0244 136.727 27.0244L136.783 27.251V29.7715L136.812 30.2246H136.783L136.812 30.3096V32.4619L136.868 32.7734C136.755 32.8678 136.566 32.915 136.302 32.915H135.537C135.462 32.915 135.396 32.9339 135.339 32.9717C135.282 32.9339 135.235 32.915 135.197 32.915C134.367 32.9528 133.857 32.9811 133.668 33C133.517 32.9811 133.413 32.7546 133.356 32.3203C133.394 32.1126 133.413 31.9427 133.413 31.8105C133.413 31.7917 133.394 31.7539 133.356 31.6973L133.413 31.4141V30.9609C133.413 30.8477 133.394 30.7721 133.356 30.7344L133.413 30.4512V30.1396C133.413 30.0641 133.394 29.998 133.356 29.9414C133.394 29.8848 133.413 29.847 133.413 29.8281C133.413 29.7526 133.394 29.4128 133.356 28.8086C133.356 28.7708 133.375 28.752 133.413 28.752L133.356 28.5254V24.3266C133.356 24.2888 133.375 24.2699 133.413 24.2699C133.413 24.1567 133.347 24.1 133.215 24.1H132.677C132.412 24.1 132.28 24.0245 132.28 23.8735C132.28 23.7224 132.271 23.4864 132.252 23.1655H132.28C132.28 23.1466 132.271 23.1371 132.252 23.1371C132.252 23.0805 132.261 23.0522 132.28 23.0522C132.261 22.6934 132.252 22.4291 132.252 22.2592V21.6362C132.252 21.5984 132.261 21.5795 132.28 21.5795C132.261 21.5229 132.252 21.4757 132.252 21.4379L132.28 21.268L132.252 21.183C132.271 21.1264 132.28 21.0603 132.28 20.9848C132.28 20.8904 132.356 20.8337 132.507 20.8149H133.3C133.3 20.6638 133.319 20.5883 133.356 20.5883L133.3 20.0219V17.1406C133.3 16.8385 133.29 16.3854 133.271 15.7812H133.3L133.271 15.668V14.6768C133.271 14.1292 133.253 13.459 133.215 12.666C133.253 12.4961 133.271 12.3734 133.271 12.2979C133.234 12.0902 133.215 11.7881 133.215 11.3916C133.215 11.0895 133.281 10.9196 133.413 10.8818H135.084L135.367 10.8535C135.424 10.8724 135.499 10.8818 135.594 10.8818C135.915 10.863 136.094 10.8535 136.132 10.8535L136.217 10.8818L136.33 10.8535L136.557 10.8818L136.783 10.8535V10.8818L136.868 10.8535H139.559C139.634 10.8535 139.691 10.8346 139.729 10.7969ZM136.585 14.3086V17.6996C136.585 17.7752 136.604 17.8318 136.642 17.8696C136.642 17.9073 136.623 17.9262 136.585 17.9262L136.642 18.3793V18.6059C136.642 19.0779 136.66 19.7953 136.698 20.7582L136.925 20.8149H137.831C137.944 20.8149 138.076 20.796 138.228 20.7582C138.284 20.796 138.35 20.8149 138.426 20.8149C138.426 20.7582 138.454 20.7299 138.511 20.7299L138.454 20.6166L138.511 20.5317C138.511 20.4939 138.492 20.475 138.454 20.475L138.511 20.2485C138.511 20.1163 138.492 19.9653 138.454 19.7953C138.492 19.6443 138.511 19.4933 138.511 19.3422C138.473 19.1912 138.454 19.1062 138.454 19.0873C138.454 19.0496 138.473 19.0307 138.511 19.0307L138.454 18.8041V14.8467C138.454 14.79 138.445 14.7334 138.426 14.6768C138.445 14.6201 138.454 14.5635 138.454 14.5068V14.2236H136.698C136.623 14.2236 136.585 14.252 136.585 14.3086Z" fill="#FF5C00"/>
  <path d="M123.783 10.8252V10.7686C122.688 10.8063 122.14 10.8724 122.14 10.9668V14.4502L122.197 14.79C122.159 14.79 122.14 14.7995 122.14 14.8184C122.178 14.875 122.197 14.9411 122.197 15.0166V21.2188L122.225 21.3037C122.206 21.3037 122.197 21.3226 122.197 21.3604C122.216 25.6273 122.225 27.8174 122.225 27.9307V28.0439C122.225 28.1383 122.216 28.2139 122.197 28.2705L122.225 28.5537V31.1025C122.225 31.3669 122.263 31.5745 122.339 31.7256H122.282C122.358 32.1221 122.433 32.3203 122.509 32.3203C122.792 32.8867 123.273 33.1699 123.953 33.1699H124.434C124.491 33.1699 124.519 33.1416 124.519 33.085C124.576 33.085 124.604 33.1133 124.604 33.1699C125.737 33.1322 126.596 33.1133 127.181 33.1133H129.504C129.957 33.0944 130.316 33.0378 130.58 32.9434C131.127 32.528 131.448 32.0465 131.543 31.499V31.2725C131.543 31.1969 131.533 31.1309 131.514 31.0742L131.543 30.9893C131.543 29.3467 131.562 26.9772 131.599 23.8809L131.628 23.7109C131.609 23.7109 131.599 23.6637 131.599 23.5693V23.2861L131.628 23.0596C131.609 23.0596 131.599 23.0407 131.599 23.0029C131.599 22.9652 131.609 22.918 131.628 22.8613C131.609 22.8047 131.599 22.748 131.599 22.6914V19.123C131.543 16.8008 131.514 15.5169 131.514 15.2715V12.0713L131.458 11.9863C131.496 11.9863 131.514 11.9769 131.514 11.958V11.4199L131.543 11.1084C131.543 10.9951 131.184 10.929 130.467 10.9102C130.41 10.9479 130.353 10.9668 130.297 10.9668L127.974 10.9102L127.889 10.9668C127.908 11.1745 127.918 11.2972 127.918 11.335C127.918 12.6943 127.955 13.9971 128.031 15.2432C127.993 15.2432 127.974 15.262 127.974 15.2998C128.012 15.3564 128.031 15.4131 128.031 15.4697V16.6025L128.059 16.8857C128.04 16.9424 128.031 17.0179 128.031 17.1123V17.9053L128.059 18.1318C128.04 18.1318 128.031 18.1507 128.031 18.1885C128.05 18.3584 128.059 18.5 128.059 18.6133V24.0225L128.116 24.249C128.078 24.249 128.059 24.2679 128.059 24.3057C128.059 24.3434 128.078 24.3906 128.116 24.4473C128.116 24.485 128.097 24.5322 128.059 24.5889C128.059 24.6266 128.078 24.6738 128.116 24.7305L128.059 25.0137V25.5234L128.116 25.6084H128.059C128.097 25.9105 128.116 26.1465 128.116 26.3164V29.46C128.116 29.6676 128.05 29.7715 127.918 29.7715L127.635 29.7148C127.597 29.7526 127.521 29.7715 127.408 29.7715C127.314 29.7715 127.238 29.7526 127.181 29.7148L126.898 29.7715H126.134C125.926 29.7715 125.822 29.6771 125.822 29.4883L125.879 29.29C125.879 29.1768 125.86 29.0352 125.822 28.8652C125.86 28.8086 125.879 28.7614 125.879 28.7236L125.822 28.6387H125.879C125.841 28.3366 125.822 28.1006 125.822 27.9307V27.5342C125.822 27.4587 125.841 27.3926 125.879 27.3359C125.841 27.2793 125.822 27.2132 125.822 27.1377V21.9551L125.794 21.502C125.813 21.502 125.822 21.4736 125.822 21.417C125.803 20.945 125.794 20.5579 125.794 20.2559V20.1992C125.794 20.1237 125.803 20.0576 125.822 20.001C125.803 19.9443 125.794 19.8877 125.794 19.8311V18.7832C125.794 18.3301 125.775 17.7165 125.737 16.9424C125.775 16.9424 125.794 16.9235 125.794 16.8857C125.718 16.6403 125.68 16.0456 125.68 15.1016V14.167L125.652 13.9404C125.671 13.9404 125.68 13.9215 125.68 13.8838C125.662 13.6761 125.652 13.5062 125.652 13.374V11.0518C125.652 10.9574 125.614 10.863 125.539 10.7686C125.52 10.7686 125.473 10.7874 125.397 10.8252L124.944 10.7686L124.463 10.8252L124.151 10.7686C124.038 10.8063 123.972 10.8252 123.953 10.8252L123.868 10.7686L123.783 10.8252Z" fill="#FF5C00"/>
  <path fill-rule="evenodd" clip-rule="evenodd" d="M113.912 10.7686C113.968 10.8063 114.015 10.8252 114.053 10.8252C114.563 10.7874 114.95 10.7686 115.214 10.7686C115.384 10.7686 115.601 10.7874 115.866 10.8252C115.903 10.8252 115.922 10.8063 115.922 10.7686C115.941 10.7686 115.979 10.7874 116.036 10.8252C117.565 10.7874 118.575 10.7686 119.066 10.7686C119.915 10.7686 120.454 10.8913 120.68 11.1367C120.756 11.2122 120.878 11.4105 121.048 11.7314V11.7881L120.963 11.9297C120.982 11.9863 121.01 12.0146 121.048 12.0146C121.048 12.0713 121.039 12.0996 121.02 12.0996C121.039 12.3828 121.048 12.5433 121.048 12.5811C121.029 13.2419 121.02 13.6289 121.02 13.7422C121.039 14.6107 121.048 15.196 121.048 15.498V18.5283C121.048 18.7738 121.039 19.0664 121.02 19.4062C121.02 20.3314 120.708 20.8883 120.085 21.0771C120.274 21.1527 120.425 21.2282 120.538 21.3037C121.048 21.6436 121.303 22.1533 121.303 22.833V23.5693C121.303 23.6449 121.313 23.7109 121.331 23.7676L121.303 23.8525C121.322 24.0225 121.331 24.1641 121.331 24.2773C121.369 28.3743 121.388 30.7721 121.388 31.4707C121.35 31.9049 121.077 32.3014 120.567 32.6602C120.189 32.8867 119.745 33 119.236 33C119.085 32.9622 118.953 32.9434 118.839 32.9434H118.358C118.301 32.9434 118.245 32.9622 118.188 33H117.253C116.215 33 114.837 33.0094 113.119 33.0283C112.93 32.9906 112.826 32.8962 112.807 32.7451C112.807 32.7262 112.816 32.679 112.835 32.6035C112.835 32.5658 112.826 32.4147 112.807 32.1504C112.807 31.8861 112.816 31.7445 112.835 31.7256C112.816 31.2158 112.807 30.8193 112.807 30.5361V25.8066C112.807 25.6745 112.788 25.5046 112.75 25.2969C112.75 25.2214 112.769 25.1836 112.807 25.1836L112.75 24.7305V23.0596H112.418C112.248 23.0596 111.964 22.9297 111.964 22.7422L111.992 22.5156C111.992 22.2324 111.984 21.3792 111.965 19.7178C112.022 19.7178 112.078 19.6989 112.135 19.6611C112.418 19.6611 112.694 19.6139 112.694 19.5762C112.675 16.8763 112.665 15.3187 112.665 14.9033L112.609 14.6768H112.665L112.609 14.5635V11.8447L112.58 11.5615L112.609 11.4766L112.58 11.1934C112.58 10.9668 112.656 10.8441 112.807 10.8252C113.109 10.8252 113.477 10.8063 113.912 10.7686ZM116.8 13.9121H116.092L116.007 13.9688C116.026 15.1393 116.036 16.0173 116.036 16.6025V19.0664L116.092 19.6328C116.187 19.6328 116.262 19.6139 116.319 19.5762C116.375 19.6139 116.423 19.6328 116.46 19.6328L116.942 19.5762H117.706L117.621 13.8838H117.338L117.055 13.9121C117.036 13.9121 117.027 13.9027 117.027 13.8838L116.8 13.9121ZM117.338 22.9746H116.177C116.12 22.9746 116.092 23.0029 116.092 23.0596C116.13 25.5706 116.149 27.3454 116.149 28.3838L116.177 28.4971L116.149 28.5254L116.177 28.8652V29.8281H117.763L117.82 29.7998C117.82 28.4782 117.782 26.2031 117.706 22.9746C117.688 22.9746 117.678 22.9557 117.678 22.918L117.338 22.9746Z" fill="#FF5C00"/>
  <path d="M85.9561 10.8252L85.6445 10.7686C85.6445 10.8063 85.5501 10.8252 85.3613 10.8252C84.8327 10.8252 84.3984 10.8346 84.0586 10.8535C83.3978 10.8535 82.9258 11.1462 82.6426 11.7314L82.6709 11.8164C82.5765 11.8353 82.501 12.0052 82.4443 12.3262L82.416 12.666V13.4873C82.4349 13.6572 82.4443 13.9688 82.4443 14.4219V18.0752C82.4443 19.057 82.4632 20.1331 82.501 21.3037C82.4632 21.6624 82.4443 22.0023 82.4443 22.3232C82.4821 23.5693 82.501 24.7493 82.501 25.8633C82.501 25.9388 82.4821 26.1087 82.4443 26.373C82.4443 27.4681 82.4821 28.6859 82.5576 30.0264C82.5199 30.1963 82.501 30.3379 82.501 30.4512C82.5387 31.0365 82.5576 31.4518 82.5576 31.6973C82.5765 31.9049 82.5859 32.0465 82.5859 32.1221C82.6992 32.7262 83.1146 33.0472 83.832 33.085L88.4199 33L88.6465 33.0283C88.7975 33.0094 88.9769 33 89.1846 33H89.8076C89.902 33 89.9775 32.9811 90.0342 32.9434C90.6572 32.8301 90.9782 32.443 90.9971 31.7822L90.9404 31.6973C90.9782 31.6406 91.016 31.4518 91.0537 31.1309L90.9971 30.6777L91.0537 30.4795C91.016 30.4795 90.9971 30.4701 90.9971 30.4512C90.9971 30.4134 91.016 30.3662 91.0537 30.3096C91.016 30.2529 90.9971 30.1868 90.9971 30.1113V29.998C90.9971 29.2806 90.9876 28.3555 90.9688 27.2227C90.9499 26.9583 90.8555 26.8167 90.6855 26.7979H90.1758C90.1003 26.7979 90.0342 26.779 89.9775 26.7412C89.9209 26.779 89.8643 26.7979 89.8076 26.7979H89.3262L89.0146 26.7412C89.0146 26.779 88.9958 26.7979 88.958 26.7979L88.0518 26.7412C87.8441 26.7412 87.7308 26.9111 87.7119 27.251V28.1289C87.7119 28.5254 87.7308 29.0068 87.7686 29.5732C87.7686 29.7432 87.7214 29.8281 87.627 29.8281L86.2676 29.8848C86.1543 29.8848 86.0977 29.7998 86.0977 29.6299C86.0599 28.9502 86.041 28.4876 86.041 28.2422V27.3643C86.041 27.2321 86.0316 27.0622 86.0127 26.8545C86.0316 26.779 86.041 26.7318 86.041 26.7129C85.9844 25.0514 85.9561 24.1263 85.9561 23.9375L86.0127 23.6543C85.9749 23.4466 85.9561 23.2484 85.9561 23.0596V20.5107L85.9277 20.4258C85.9466 20.4258 85.9561 20.4069 85.9561 20.3691V20.2275C85.9561 19.8877 85.9466 19.7178 85.9277 19.7178C85.9466 19.4157 85.9561 19.1702 85.9561 18.9814V14.082C85.9561 14.0443 85.9844 14.016 86.041 13.9971L87.5137 13.9688C87.627 13.9876 87.6836 14.0726 87.6836 14.2236H87.627L87.6836 14.5068V16.1211C87.6836 16.1777 87.7119 16.2061 87.7686 16.2061H89.2979C89.6188 16.2061 90.0625 16.1966 90.6289 16.1777C90.7799 16.1211 90.8555 15.9984 90.8555 15.8096V14.5068L90.8271 13.9688V12.8359C90.8271 12.5905 90.8083 12.3923 90.7705 12.2412C90.7705 11.335 90.2891 10.863 89.3262 10.8252C89.3073 10.8252 89.2035 10.8346 89.0146 10.8535C88.6748 10.8346 88.3822 10.8252 88.1367 10.8252H85.9561Z" fill="#FF5C00"/>
  <path fill-rule="evenodd" clip-rule="evenodd" d="M74.8872 5.21814C74.8872 3.75366 74.2038 1.77303 72.9699 0.794057C70.4111 -1.23761 67.4281 1.23069 65.1868 3.08516C64.8389 3.37302 64.5089 3.64609 64.2011 3.88524C61.9094 5.66395 59.5128 8.22085 57.7444 10.5497C57.7444 10.5497 57.7714 10.6269 57.7444 10.6632C56.5311 11.5151 55.5461 13.1968 54.7192 14.6088C54.5529 14.8926 54.3931 15.1654 54.2391 15.4185C53.9201 15.9437 53.5162 16.5034 53.0994 17.081C52.3153 18.1677 51.4857 19.3174 51.0902 20.4188C51.186 20.9756 48.7031 22.7315 48.1579 22.6876C47.0983 22.6056 46.4088 24.3196 46.0874 25.1185C46.0607 25.1847 46.0366 25.2446 46.015 25.2967C45.8871 25.6056 45.8906 26.0422 45.894 26.4644C45.8982 26.9724 45.9021 27.4596 45.6767 27.6789C45.6767 27.6789 45.6203 27.68 45.5639 27.6789C44.392 26.7208 42.5027 26.504 40.6694 26.2937C39.5527 26.1656 38.4568 26.0398 37.5564 25.7504C35.179 24.9847 31.4459 24.5378 28.8722 24.5026C28.0401 24.4901 27.2077 24.4739 26.375 24.4577C24.6149 24.4234 22.8533 24.3892 21.0902 24.3892C19.493 24.3892 17.8155 24.5933 16.2406 24.8429C15.7587 24.9201 15.269 24.993 14.7753 25.0665C12.213 25.4481 9.5457 25.8454 7.33084 26.928C4.51048 28.3065 2.27945 30.6194 1.01427 33.4642C0.365195 34.9237 0.112793 36.7262 0.112793 38.6824C0.112793 39.7804 0.135349 40.8207 0.338357 41.8586C2.00866 50.4073 11.409 57.1467 18.9474 60.1222C18.9474 60.1222 19.0049 60.1131 19.0602 60.1222C20.4146 61.2873 22.4219 61.7748 24.3585 62.2451C25.2632 62.4648 26.1525 62.6808 26.9526 62.9604C30.0191 64.0337 33.683 64.8219 36.7669 64.8866C37.3933 64.8994 38.0201 64.8951 38.6468 64.8908C38.9601 64.8887 39.2734 64.8866 39.5865 64.8866C47.0855 64.8866 54.7178 63.2471 61.1278 59.2147C61.4008 59.0785 61.6478 58.9356 61.9173 58.7609C64.0511 57.377 65.8489 55.3373 67.2181 53.2024C67.2825 53.102 67.3489 53.0045 67.4154 52.907C67.5012 52.7809 67.5872 52.6548 67.6692 52.5218C67.6692 52.5218 67.6511 52.4583 67.6692 52.4084C73.1966 43.4638 62.7293 35.4017 55.6015 31.8761C56.8827 31.4813 57.8109 30.508 58.5338 29.3804C58.592 29.2899 58.657 29.1952 58.7243 29.0974C58.978 28.7281 59.2627 28.3138 59.3233 27.9058C59.346 27.7355 59.3383 27.5519 59.3307 27.3722C59.327 27.2837 59.3233 27.1962 59.3233 27.1117C59.3233 27.0331 59.322 26.9554 59.3208 26.8786C59.3135 26.4359 59.3067 26.0237 59.5489 25.637C59.5979 25.5946 59.6486 25.5396 59.7011 25.4827C59.7609 25.4178 59.8229 25.3505 59.8872 25.2967C62.8331 22.8373 65.8613 19.8392 68.4305 16.9873C68.541 16.8647 68.653 16.7407 68.7663 16.6153C71.287 13.8251 74.4123 10.3654 74.8872 6.69284C74.928 6.37597 74.9142 6.03619 74.9006 5.70284C74.8939 5.53854 74.8872 5.37581 74.8872 5.21814ZM66.8278 4.64425C66.0385 5.69365 64.205 8.13146 65.2162 9.16011C66.1693 10.1297 67.9175 8.20546 68.8648 7.16277C69.0014 7.01236 69.1214 6.8803 69.2199 6.77791C70.0015 5.96569 71.7564 2.3958 69.1354 2.7225C68.4575 2.89152 67.4775 3.86369 66.9925 4.42407C66.9453 4.488 66.8897 4.56184 66.8278 4.64425Z" fill="#1E1E1E"/>
  <path fill-rule="evenodd" clip-rule="evenodd" d="M63.3835 4.76429C64.0354 4.20391 64.6681 3.65033 65.3008 3.06272C67.4042 1.39291 71.0312 -1.39653 73.4211 1.36115C74.2388 2.46717 74.6346 3.83524 74.6617 5.21805C74.6639 5.3245 74.6672 5.43244 74.6705 5.5412C74.6822 5.92498 74.6942 6.31885 74.6617 6.69274C74.4429 9.19745 72.3587 12.2285 70.8271 14.1797C70.559 14.4493 70.3249 14.7267 70.0794 15.0178C70.0285 15.0781 69.9771 15.139 69.9248 15.2006C69.7658 15.3876 69.5945 15.5744 69.4225 15.7618C69.2483 15.9518 69.0733 16.1425 68.9098 16.335C68.7629 16.4827 68.6104 16.6283 68.4569 16.7748C68.1472 17.0703 67.8339 17.3693 67.5564 17.6962C67.0365 18.3077 66.4354 18.9372 65.8647 19.5112C65.7109 19.6659 65.5527 19.8291 65.3923 19.9945C65.0645 20.3326 64.7272 20.6805 64.3985 20.9859C63.9116 21.439 63.4143 21.8841 62.9158 22.3303C62.044 23.1107 61.1686 23.8943 60.3384 24.7294C60.2321 24.8363 60.113 24.9387 59.9921 25.0426C59.7451 25.2551 59.4907 25.4738 59.3233 25.7503C59.3006 25.7878 59.2803 25.8318 59.2599 25.8759C59.2439 25.9106 59.2279 25.9453 59.2106 25.9772C59.0179 26.3292 59.0832 26.7803 59.1476 27.2244C59.1816 27.4587 59.2152 27.691 59.2106 27.9057C59.0229 28.4159 58.6989 28.8818 58.3808 29.339C58.3185 29.4286 58.2563 29.518 58.1955 29.6072C58.1734 29.6403 58.1548 29.6825 58.136 29.7252C58.1193 29.7632 58.1024 29.8015 58.0827 29.8341L58.0337 29.8871C57.6823 30.2664 57.2288 30.7559 56.8421 31.0819C56.6503 31.2407 56.4201 31.3425 56.192 31.4435C55.8824 31.5805 55.5766 31.7157 55.376 31.9894C59.7632 34.0801 61.9692 35.9722 65.7181 39.5104C69.6779 43.2488 69.3878 49.0854 66.8797 53.4292C61.7699 62.2688 48.7658 64.6596 39.5865 64.6596C36.371 64.6596 33.4016 64.0704 30.349 63.4648C29.2712 63.2509 28.183 63.035 27.07 62.8423C23.1779 62.1665 17.7244 59.8588 14.3233 57.7399C13.3935 57.009 12.3932 56.374 11.391 55.7378C10.5124 55.18 9.63228 54.6214 8.79703 53.9964C7.69302 53.0285 6.64491 51.9263 5.60626 50.8341C5.09046 50.2918 4.577 49.7518 4.06018 49.232C1.2185 45.8884 0.0444315 41.1954 0.338379 36.8673C0.497492 34.5242 1.6862 32.2414 3.04515 30.4013C3.38462 30.0099 3.88988 29.5006 4.28575 29.1535C7.50085 26.752 12.3309 25.4683 16.2406 24.9563C19.6954 24.4993 23.1044 24.5008 26.577 24.5023C26.7779 24.5024 26.9791 24.5025 27.1805 24.5025C27.5641 24.5025 27.937 24.536 28.3129 24.5698C28.4981 24.5865 28.684 24.6032 28.8722 24.6159C31.9737 24.828 35.0588 25.5504 38.1326 26.2702C40.7672 26.8872 43.3937 27.5022 46.0151 27.7922C45.8031 27.2972 45.8765 26.7592 45.9486 26.2303C45.992 25.912 46.035 25.597 46.0151 25.2966C46.0117 25.2399 46.0151 25.1831 46.0151 25.1831C46.3279 24.8157 46.5241 24.485 46.7056 24.1791C47.035 23.6239 47.3158 23.1505 48.1579 22.6875C48.2143 22.692 48.2707 22.6875 48.2707 22.6875C49.8756 22.8406 50.3222 22.0432 50.9775 20.7591C51.0286 20.69 51.0803 20.6226 51.1317 20.5558C51.3281 20.2999 51.5191 20.0511 51.6542 19.7381C51.681 19.6766 51.7072 19.6263 51.736 19.571C51.746 19.5519 51.7562 19.5322 51.7669 19.5112C52.0512 19.1539 52.3286 18.8011 52.5564 18.3769C54.0091 15.6691 55.8643 13.1383 57.7444 10.6631C57.7715 10.6268 57.7444 10.5496 57.7444 10.5496C58.1905 10.2357 58.5286 9.77952 58.8614 9.33053C59.0132 9.12566 59.164 8.92229 59.3233 8.73462L62.7068 5.33148C62.8157 5.23774 62.9311 5.1423 63.0458 5.04742C63.1614 4.95172 63.2764 4.85657 63.3835 4.76429ZM66.8278 4.64413C66.0385 5.69351 64.205 8.13136 65.2162 9.16002C66.1693 10.1296 67.9175 8.20538 68.8648 7.16268C69.0014 7.01228 69.1214 6.88021 69.22 6.77782C70.0015 5.9656 71.7564 2.39571 69.1354 2.72241C68.4576 2.89143 67.4775 3.86359 66.9925 4.42398C66.9453 4.4879 66.8898 4.56174 66.8278 4.64413Z" fill="#010000"/>
  <path fill-rule="evenodd" clip-rule="evenodd" d="M65.8658 3.91407C66.0535 3.73985 66.2399 3.5668 66.4287 3.40313C68.0494 2.33 72.025 -0.266596 71.9551 2.83593C71.8921 5.63156 70.9124 6.92219 69.5021 8.78017C69.3473 8.98415 69.1873 9.19495 69.0227 9.41534C68.9837 9.46766 68.9438 9.52013 68.9035 9.57304C68.7509 9.77364 68.5936 9.98051 68.4588 10.2094C68.385 10.3089 68.3067 10.4061 68.2277 10.5041C68.0724 10.6968 67.9144 10.8929 67.7821 11.1169C67.7174 11.2264 67.6617 11.3487 67.6071 11.4687C67.5541 11.5851 67.5021 11.6993 67.4438 11.7975C66.7073 12.6563 65.9652 13.6976 65.3009 14.6335C64.9551 15.0487 64.4791 15.4402 63.9934 15.8396C63.261 16.4418 62.5065 17.0622 62.143 17.8098C62.1205 17.8551 62.143 17.9232 62.143 17.9232C62.0996 17.9716 62.02 18.018 61.943 18.0628C61.8919 18.0925 61.842 18.1216 61.8047 18.1501C60.5246 19.1234 57.6521 21.5963 56.9551 23.0279C56.9551 23.0279 56.981 23.1232 56.9551 23.1413C55.2332 24.3494 55.8784 25.8877 56.4656 27.2879C57.0965 28.7922 57.6606 30.1371 55.1506 30.7417C55.0615 26.6817 50.0573 24.5559 46.9175 26.8848C46.9218 26.8102 46.9257 26.7362 46.9295 26.6627C46.9476 26.3149 46.9651 25.9778 47.0303 25.637C47.0854 25.4808 47.1297 25.3217 47.1734 25.1649C47.3263 24.6158 47.4715 24.0946 48.0453 23.822C48.3442 23.7244 48.907 23.6269 49.1731 23.5951C50.8614 23.5304 51.7132 21.8748 52.5345 20.2785C52.9082 19.5522 53.2756 18.8382 53.7126 18.2919C54.247 17.6247 54.7111 16.8647 55.1826 16.0924C55.9451 14.8437 56.7271 13.5631 57.8573 12.5916C58.6468 11.9121 59.5242 10.8356 60.0002 10.096C60.6408 9.4516 61.2187 8.7175 61.7978 7.98174C62.6949 6.84195 63.5952 5.69818 64.737 4.87782C65.1361 4.59155 65.5033 4.25062 65.8658 3.91407ZM66.8279 4.64421C66.0387 5.69359 64.2052 8.13145 65.2163 9.1601C66.1695 10.1297 67.9177 8.20547 68.8649 7.16277C69.0016 7.01236 69.1216 6.8803 69.2201 6.7779C70.0017 5.96569 71.7566 2.39579 69.1355 2.72249C68.4577 2.89152 67.4776 3.86368 66.9927 4.42406C66.9455 4.48798 66.8899 4.56182 66.8279 4.64421Z" fill="#F68B21"/>
  <path d="M66.9925 4.42405C66.344 5.30206 64.1256 8.05066 65.2162 9.16009C66.3068 10.2695 68.4384 7.5901 69.22 6.77789C70.0015 5.96567 71.7564 2.39578 69.1354 2.72248C68.4576 2.8915 67.4775 3.86366 66.9925 4.42405ZM69.5865 3.51654C70.7696 4.33443 66.9903 8.95363 66.0124 8.35468C65.0335 7.75459 68.5997 2.83365 69.5865 3.51654Z" fill="#010000"/>
  <path d="M59.7744 23.8219C61.739 21.51 62.6537 18.2793 65.8736 17.0247C69.0947 15.7701 69.8029 12.1559 72.0676 10.2093C73.5259 8.1958 74.3887 4.99117 72.9699 2.72241C72.7849 5.30086 72.2142 6.34903 70.6883 8.5951C69.1623 10.8412 69.4195 10.6733 67.4176 13.3595C65.4157 16.0457 61.915 19.2878 59.7462 21.8651C57.5774 24.4435 56.4011 23.6892 57.0924 26.6329C57.7838 29.5755 58.8135 24.9529 59.7744 23.8219Z" fill="#C36306"/>
  <path d="M59.7744 23.822C59.9301 23.6655 60.1646 23.518 60.3383 23.3683C62.0571 21.6395 63.9203 20.1058 65.6391 18.377C66.503 17.3606 67.4808 16.4452 68.3458 15.4276C68.8195 14.8695 69.3282 14.3658 69.812 13.8395C70.7176 12.6858 71.3842 11.4698 72.0676 10.2095C69.803 12.1561 69.0947 15.7702 65.8737 17.0248C62.6537 18.2795 61.7391 21.5102 59.7744 23.822Z" fill="#AB5706"/>
  <path d="M62.1431 17.8098C63.2089 17.06 64.5408 15.7044 65.301 14.6335C64.4337 15.6749 62.7476 16.5665 62.1431 17.8098Z" fill="#81490F"/>
  <path d="M61.8047 18.15C60.228 19.8391 58.6795 21.5123 56.9551 23.0278C56.9551 23.0278 56.981 23.1231 56.9551 23.1412C58.2735 22.9994 61.4415 19.0575 62.143 17.9231C62.0709 18.0036 61.8983 18.0785 61.8047 18.15Z" fill="#552F08"/>
  <path d="M56.9551 23.028C58.6795 21.5125 60.228 19.8392 61.8047 18.1501C60.5246 19.1234 57.6521 21.5964 56.9551 23.028Z" fill="#B36517"/>
  <path d="M60.3384 23.3682C62.1136 21.8425 64.0726 20.2215 65.6391 18.377C63.9203 20.1057 62.0572 21.6394 60.3384 23.3682Z" fill="#503214"/>
  <path d="M49.1728 57.3997C54.4318 58.4218 58.6904 55.3147 63.6055 53.8797C68.5216 52.4458 69.4532 45.1552 66.1938 41.7543C62.9344 38.3523 60.7002 34.5374 56.0243 33.3951C51.3495 32.2539 47.4867 29.9976 42.9777 28.1247C38.4686 26.2507 31.9904 26.0976 27.0923 25.4986C22.1942 24.8985 14.7968 25.7289 10.5145 27.0244C6.23217 28.3198 1.36112 31.7162 1.49082 36.2752C1.62052 40.8332 6.50623 44.3781 9.47352 46.8499C5.00849 40.1673 11.7664 34.1721 18.7137 34.1369C25.6611 34.1018 35.0965 32.6872 41.7044 35.1908C48.3111 37.6943 52.1198 39.0556 57.2085 44.6663C62.2972 50.278 55.5968 56.8983 49.1728 57.3997Z" fill="#2D2D2D"/>
  <path fill-rule="evenodd" clip-rule="evenodd" d="M34.2857 26.5331C34.0411 26.8728 33.8719 27.251 33.7782 27.6675C33.6885 28.4505 33.5569 29.2257 33.3834 29.993C33.3881 31.0031 33.3881 32.0052 33.3834 32.9991C33.254 33.1861 33.1036 33.3563 32.9323 33.5095C26.6479 33.6399 20.1568 33.4602 14.2105 34.6439C14.3152 34.5999 14.3904 34.5242 14.4361 34.417C13.308 31.9579 11.8419 29.7269 10.0376 27.7242C9.92478 27.6864 9.812 27.6485 9.69922 27.6108C12.5803 26.0343 15.9765 25.9683 19.1729 25.5689C22.7847 25.3245 26.3938 25.3623 30 25.6823C31.2285 26.2995 32.9382 26.2823 34.2857 26.5331Z" fill="#323232"/>
  <path fill-rule="evenodd" clip-rule="evenodd" d="M59.9999 36.0619C62.8048 37.6873 65.0606 40.3273 66.7668 43.2085C66.7836 43.3278 66.7649 43.4413 66.7104 43.5488C66.5966 43.4174 66.4463 43.3418 66.2593 43.3219C63.4155 43.5768 60.8591 44.6357 58.5901 46.4982C58.5526 46.6116 58.5149 46.7251 58.4774 46.8385C57.0867 45.0974 55.7808 42.9762 54.1353 41.5636C56.273 40.2082 58.1715 38.5633 59.8307 36.6291C59.919 36.4098 59.8627 36.2397 59.6616 36.1186C59.7685 36.0638 59.8813 36.045 59.9999 36.0619Z" fill="#323232"/>
  <path d="M50.7521 26.8849C47.6438 26.3767 46.6017 29.0527 48.5246 29.9194C50.4476 30.7861 53.2141 32.8325 54.3611 31.4225C55.5081 30.0124 51.872 27.0676 50.7521 26.8849Z" fill="#A5A5A5"/>
  <path d="M32.9324 34.3716C25.861 33.6831 17.2591 33.2112 11.3629 37.1792C5.46663 41.1473 10.5452 49.1798 16.3275 51.0731C22.1099 52.9664 28.076 56.1597 34.9625 56.8324C41.8478 57.5062 48.7794 58.0745 55.1414 54.2142C61.5035 50.3539 56.9223 43.1994 51.4535 40.2455C45.9858 37.2904 39.361 34.9978 32.9324 34.3716Z" fill="#454545"/>
  <path d="M9.58658 53.3159C9.53131 53.2648 9.50199 53.1548 9.47379 53.089C5.88733 49.2219 1.56778 45.9095 1.35349 40.2705C1.32304 40.0572 1.07041 38.823 1.35349 38.9092C1.60274 38.9853 1.7268 39.7215 1.9174 39.9302C1.96139 39.9778 2.11026 40.0028 2.14297 40.0436C1.6862 39.6568 1.81928 38.6994 1.12793 38.6824C1.23056 44.3361 4.71214 50.0874 9.58658 53.3159Z" fill="#78481B"/>
  <path d="M1.35356 40.2706C1.3389 39.8724 1.47537 39.2848 1.35356 38.9093C1.07048 38.8231 1.32311 40.0573 1.35356 40.2706Z" fill="#D07721"/>
  <path d="M1.35317 40.2704C1.56746 45.9094 5.887 49.2218 9.47347 53.0889C8.47084 50.7646 6.46783 49.5372 4.82121 47.4454C3.1746 45.3536 2.6355 42.4496 1.91708 39.9301C1.72648 39.7214 1.60242 38.9852 1.35317 38.9092C1.47497 39.2847 1.33851 39.8723 1.35317 40.2704Z" fill="#FBF5EF"/>
  <path d="M9.47387 53.089C9.50207 53.1548 9.53139 53.2648 9.58665 53.3159C10.4201 53.8672 11.2073 54.5036 12.0679 55.0174C12.9848 55.233 14.0133 53.0788 14.7746 52.6352C12.2776 50.6728 8.69906 49.2695 7.10545 46.5096C6.57086 46.0161 5.97876 45.4977 5.5265 44.9214C4.32312 43.3889 3.05319 41.7395 2.14304 40.0436C2.11034 40.0028 1.96147 39.9778 1.91748 39.9302C2.6359 42.4496 3.175 45.3536 4.82162 47.4454C6.46823 49.5372 8.47124 50.7646 9.47387 53.089Z" fill="#C76405"/>
  <path d="M12.0679 55.0174C27.0261 65.0623 51.298 68.3963 64.8498 54.3367C64.1731 54.634 63.5359 54.9981 62.8198 55.2443C62.7622 55.284 62.7397 55.4167 62.707 55.4711C61.1506 58.0416 57.7119 58.7018 55.1855 60.0438C52.6581 61.3847 48.2923 61.6047 45.4513 62.3908C45.9137 61.0908 46.7314 59.9633 47.5942 58.8743C47.3145 58.7903 46.7122 59.0796 46.6919 58.6474C46.278 58.6474 45.8652 58.6474 45.4513 58.6474C44.769 58.6474 44.019 58.5918 43.4213 58.534C29.9055 58.534 18.5201 53.6368 7.44381 46.7364C7.3378 46.6706 7.20133 46.5969 7.10547 46.5095C8.69908 49.2695 12.2776 50.6727 14.7746 52.6352C14.0134 53.0787 12.9848 55.2329 12.0679 55.0174Z" fill="#AA5502"/>
  <path d="M58.1953 57.1728C59.4788 56.9959 61.0961 56.2789 62.2555 55.6981C62.3243 55.6641 62.6513 55.5166 62.7066 55.4713C62.7393 55.4168 62.7619 55.2841 62.8194 55.2444C61.2957 55.7685 59.613 56.4457 58.1953 57.1728Z" fill="#7F4D1E"/>
  <path d="M62.2557 55.6981C59.7734 57.7195 56.3414 59.0139 53.1203 58.4206C53.4057 58.1756 53.9933 58.4194 54.2482 58.0803C51.8234 57.9861 49.2429 58.6475 46.6918 58.6475C46.7121 59.0797 47.3143 58.7904 47.594 58.8743C46.7312 59.9633 45.9136 61.0909 45.4512 62.3909C48.2921 61.6048 52.6579 61.3847 55.1854 60.0439C57.7117 58.7019 61.1504 58.0417 62.7068 55.4712C62.6516 55.5166 62.3245 55.664 62.2557 55.6981Z" fill="#C66405"/>
  <path d="M58.1953 57.1727C58.14 57.1806 58.0227 57.1602 57.9697 57.1727C57.6618 57.3304 57.4385 57.4438 57.0675 57.513C56.7968 57.5641 56.543 57.5845 56.278 57.6264C55.7085 57.7932 55.1288 58.0632 54.4735 58.0802C54.4171 58.0813 54.3043 58.0825 54.2479 58.0802C53.993 58.4194 53.4055 58.1755 53.1201 58.4205C56.3412 59.0138 59.7731 57.7195 62.2555 55.698C61.0961 56.2788 59.4788 56.9957 58.1953 57.1727Z" fill="#FAF1E8"/>
  <path fill-rule="evenodd" clip-rule="evenodd" d="M62.9321 6.57935C63.0401 6.63073 63.1342 6.70628 63.2141 6.80622C63.747 7.90067 63.7845 8.99728 63.3268 10.0959C61.8699 11.1828 60.4789 12.3549 59.1539 13.6125C57.3258 15.7156 55.54 17.8521 53.7968 20.0218C53.4042 20.2485 53.0282 20.2296 52.6689 19.965C54.5621 15.1193 59.8911 10.8252 62.9321 6.57935Z" fill="#F89A3C"/>
  <path d="M42.9815 40.8572C43.0352 41.0382 43.0869 41.2123 43.15 41.3502C43.5955 41.3561 43.6397 40.9268 43.6787 40.5487C43.6874 40.4635 43.6959 40.3809 43.7087 40.3065C43.9539 40.2751 44.1931 40.2192 44.4342 40.1629C44.4584 40.1572 44.4827 40.1516 44.5069 40.1459C44.5095 40.3556 44.4472 40.5483 44.3848 40.7413C44.3134 40.9621 44.2419 41.1833 44.2675 41.4305C44.5103 41.5221 44.7184 41.6899 44.9272 41.8582C45.0993 41.997 45.2719 42.1362 45.4648 42.2334C45.0387 42.68 44.6775 42.4304 44.2956 42.1665C44.0158 41.9732 43.725 41.7722 43.3894 41.832C43.4211 41.9587 43.4797 42.0758 43.5382 42.1926C43.6213 42.3585 43.704 42.5238 43.7087 42.7151C43.6192 42.7214 43.5325 42.7404 43.4456 42.7594C43.2991 42.7914 43.1521 42.8236 42.9903 42.7954C42.8304 42.2877 42.6235 41.7956 42.4165 41.3032C42.2225 40.8418 42.0284 40.3801 41.8728 39.9051C42.5996 39.5701 42.802 40.2522 42.9815 40.8572Z" fill="#4E4E4E"/>
  <path d="M38.1211 41.7517C38.3143 41.4072 38.7078 41.2716 39.079 41.2699C39.0893 41.3667 39.1236 41.4563 39.1581 41.5463C39.1935 41.6386 39.229 41.7311 39.2387 41.832C38.0214 41.8135 38.6057 43.0395 38.9194 43.6786C38.6679 43.7813 38.4045 43.8536 38.1211 43.8391C37.9895 43.3378 37.7937 42.854 37.5978 42.37L37.5978 42.3699L37.5977 42.3698C37.5038 42.1377 37.4098 41.9055 37.3229 41.6714C37.368 41.6586 37.4165 41.6425 37.4665 41.6258C37.7317 41.5373 38.0405 41.4342 38.1211 41.7517Z" fill="#4E4E4E"/>
  <path fill-rule="evenodd" clip-rule="evenodd" d="M39.5588 42.072C39.4422 40.5289 42.0923 40.557 42.1921 41.9925C41.9108 42.0871 41.6189 42.1446 41.3269 42.2021C41.0537 42.2559 40.7805 42.3098 40.5158 42.394C40.7391 42.897 41.1316 42.7214 41.534 42.5415C41.8208 42.4132 42.1126 42.2827 42.3517 42.394C41.943 43.738 39.696 43.453 39.5588 42.072ZM40.2763 41.9925C40.1295 41.4096 41.2222 41.1977 41.314 41.7517C41.1313 41.8267 40.9371 41.859 40.7426 41.8914C40.5854 41.9175 40.428 41.9437 40.2763 41.9925Z" fill="#4E4E4E"/>
  <path d="M36.4055 41.8317C36.5259 41.8095 36.6465 41.7873 36.7642 41.7517C38.9705 44.4092 34.249 45.3485 34.3695 42.2334C35.048 41.9291 35.2034 42.3918 35.3703 42.8887C35.4795 43.2137 35.5936 43.5534 35.8622 43.7026C36.956 43.9083 36.4568 42.817 36.1556 42.1584C36.1135 42.0663 36.0753 41.9827 36.0458 41.9122C36.1632 41.8764 36.2842 41.8541 36.4055 41.8317Z" fill="#4E4E4E"/>
  <path fill-rule="evenodd" clip-rule="evenodd" d="M31.2118 42.1075C31.3542 42.0746 31.4968 42.0418 31.6555 42.0728C31.6591 42.2482 31.7192 42.4079 31.7796 42.5679C31.8272 42.6943 31.8749 42.821 31.895 42.956C34.0183 40.9769 35.685 45.6994 32.6134 44.8026C32.6582 45.0623 32.4612 45.0915 32.2612 45.1211C32.1545 45.137 32.047 45.1529 31.9748 45.204C31.5693 44.3123 31.2587 43.3702 30.9502 42.4344C30.9192 42.3406 30.8883 42.2468 30.8573 42.1531C30.981 42.1607 31.0963 42.1341 31.2118 42.1075ZM32.3971 43.4388C32.5271 43.3 32.767 43.0438 33.0923 43.1165C33.4515 43.1968 33.6597 43.8683 33.5713 44.0274C33.4656 44.2175 33.094 44.2234 32.773 44.1247C32.3985 44.0094 32.0931 43.7517 32.3602 43.4778C32.3713 43.4664 32.3836 43.4533 32.3971 43.4388Z" fill="#4E4E4E"/>
  <path d="M25.4077 45.2635C25.0113 44.3897 24.6025 43.4884 25.5092 43.2771C25.6084 43.4226 25.6589 43.5946 25.7085 43.7637C25.7591 43.9362 25.8088 44.1056 25.9083 44.2406C27.152 42.9536 28.3198 44.6516 28.4626 45.9266C27.7679 46.298 27.6128 45.8325 27.4395 45.3125C27.3383 45.0087 27.2308 44.6863 27.0059 44.5015C25.7391 44.0639 26.2627 45.6994 26.5469 46.328C26.3983 46.3337 26.2595 46.3744 26.1201 46.4153C26.0244 46.4434 25.9283 46.4716 25.8285 46.4886C25.8107 46.1518 25.6108 45.7113 25.4077 45.2635Z" fill="#4E4E4E"/>
  <path d="M24.6312 44.5617C24.1434 42.85 20.6193 44.0262 21.6003 45.8439C21.985 47.489 25.2466 47.3059 25.0303 45.5251C24.9305 45.5421 24.8344 45.5703 24.7387 45.5984C24.5992 45.6393 24.4605 45.68 24.3119 45.6857C24.1243 46.8202 22.1966 46.3754 22.2644 45.2594C22.3232 44.2242 23.1138 44.3602 23.8499 44.4869C24.1334 44.5357 24.4088 44.5831 24.6312 44.5617Z" fill="#4E4E4E"/>
  <path fill-rule="evenodd" clip-rule="evenodd" d="M31.0968 44.3208C31.0672 42.8098 28.3293 42.8403 28.4004 44.3835C28.4187 45.8334 31.0074 46.1209 31.1766 44.642C30.9633 44.6378 30.7249 44.7434 30.4875 44.8487C30.0461 45.0444 29.608 45.2386 29.3407 44.7223C29.6237 44.6358 29.9145 44.5808 30.2052 44.5259C30.5056 44.469 30.8059 44.4123 31.0968 44.3208ZM30.2187 44.08C30.1142 43.5019 29.181 43.7412 29.1012 44.2406C29.3299 44.2977 29.5876 44.2302 29.8416 44.1637C29.9696 44.1302 30.0967 44.0969 30.2187 44.08Z" fill="#4E4E4E"/>
  <path fill-rule="evenodd" clip-rule="evenodd" d="M38.9194 46.0872C40.8798 43.9756 42.5561 48.89 39.5579 48.014L39.5639 48.0261C39.8404 48.5912 40.2198 49.3664 39.2387 49.2986C38.9117 48.5657 38.6353 47.8166 38.3587 47.0672L38.3587 47.067C38.2281 46.7131 38.0975 46.3592 37.9615 46.0069C37.9923 46.0022 38.023 45.9973 38.0534 45.9925C38.3613 45.9434 38.6469 45.8979 38.9194 46.0872ZM39.2041 46.609C39.3065 46.4727 39.6776 46.1273 40.0369 46.2477C40.3961 46.3682 40.5545 47.1334 40.3961 47.2653C40.2451 47.3911 39.9188 47.3564 39.6378 47.2406C39.2996 47.1014 39.027 46.8448 39.2041 46.609Z" fill="#4E4E4E"/>
  <path d="M32.055 46.468C32.1349 46.4493 32.2148 46.4305 32.2941 46.4083C32.32 46.5768 32.3865 46.7322 32.4532 46.8878C32.5202 47.0443 32.5874 47.2011 32.6134 47.3717C33.9384 46.1442 35.1174 47.8559 35.1677 49.1381C35.0767 49.1766 34.9781 49.1898 34.8795 49.203C34.7583 49.2191 34.6369 49.2354 34.5291 49.2986C34.4331 49.1376 34.3585 48.9157 34.2812 48.6857C34.0646 48.0418 33.8265 47.3339 33.0373 47.7178C32.8229 47.9878 32.9707 48.3848 33.1077 48.7528C33.2982 49.2645 33.4678 49.7201 32.6134 49.7001C32.3906 49.18 32.2096 48.6464 32.0285 48.1127C31.8619 47.6215 31.6952 47.1302 31.4959 46.6492C31.6738 46.5574 31.864 46.5128 32.055 46.468Z" fill="#4E4E4E"/>
  <path d="M31.2564 47.6126C30.7639 46.5231 28.7308 46.7319 28.4634 47.8527C28.5377 48.7984 29.2602 48.8169 29.9748 48.8352C30.3964 48.8459 30.8153 48.8567 31.0967 49.0578C30.8425 49.6696 30.3672 49.5572 29.8766 49.4412C29.52 49.3569 29.1554 49.2706 28.8617 49.4592C29.3039 50.5439 31.2596 50.4226 31.7888 49.4327C32.0044 48.3052 31.0576 48.2561 30.1825 48.2107C29.8395 48.1929 29.5074 48.1757 29.2608 48.0943C29.3403 47.4106 29.815 47.5147 30.316 47.6247C30.6557 47.6992 31.0074 47.7764 31.2564 47.6126Z" fill="#4E4E4E"/>
  <path fill-rule="evenodd" clip-rule="evenodd" d="M37.0036 46.328C35.1669 45.7556 34.4772 48.4098 36.2852 48.8169C38.102 49.3018 38.715 46.833 37.0036 46.328ZM36.7642 46.89C36.3917 46.8151 36.1616 47.1116 36.0451 47.2617C36.0368 47.2724 36.029 47.2824 36.0218 47.2915C35.7865 47.5879 36.1378 47.8683 36.5247 47.976C36.8564 48.0683 37.2143 48.0336 37.251 47.7732C37.2761 47.595 37.1633 46.9703 36.7642 46.89Z" fill="#4E4E4E"/>
</svg>
