<svg width="75" height="65" viewBox="0 0 75 65" fill="none" xmlns="http://www.w3.org/2000/svg">
<g clip-path="url(#clip0_1323_1017)">
<path fill-rule="evenodd" clip-rule="evenodd" d="M74.8872 5.21814C74.8872 3.75366 74.2038 1.77303 72.9699 0.794057C70.4111 -1.23761 67.4281 1.23069 65.1868 3.08516C64.8389 3.37302 64.5089 3.64609 64.2011 3.88524C61.9094 5.66395 59.5128 8.22085 57.7444 10.5497C57.7444 10.5497 57.7714 10.6269 57.7444 10.6632C56.5311 11.5151 55.5461 13.1968 54.7192 14.6088C54.5529 14.8926 54.3931 15.1654 54.2391 15.4185C53.9201 15.9437 53.5162 16.5034 53.0994 17.081C52.3153 18.1677 51.4857 19.3174 51.0902 20.4188C51.186 20.9756 48.7031 22.7315 48.1579 22.6876C47.0983 22.6056 46.4088 24.3196 46.0874 25.1185C46.0607 25.1847 46.0366 25.2446 46.015 25.2967C45.8871 25.6056 45.8906 26.0422 45.894 26.4644C45.8982 26.9724 45.9021 27.4596 45.6767 27.6789C45.6767 27.6789 45.6203 27.68 45.5639 27.6789C44.392 26.7208 42.5027 26.504 40.6694 26.2937C39.5527 26.1656 38.4568 26.0398 37.5564 25.7504C35.179 24.9847 31.4459 24.5378 28.8722 24.5026C28.0401 24.4901 27.2077 24.4739 26.375 24.4577C24.6149 24.4234 22.8533 24.3892 21.0902 24.3892C19.493 24.3892 17.8155 24.5933 16.2406 24.8429C15.7587 24.9201 15.269 24.993 14.7753 25.0665C12.213 25.4481 9.5457 25.8454 7.33084 26.928C4.51048 28.3065 2.27945 30.6194 1.01427 33.4642C0.365195 34.9237 0.112793 36.7262 0.112793 38.6824C0.112793 39.7804 0.135349 40.8207 0.338357 41.8586C2.00866 50.4073 11.409 57.1467 18.9474 60.1222C18.9474 60.1222 19.0049 60.1131 19.0602 60.1222C20.4146 61.2873 22.4219 61.7748 24.3585 62.2451C25.2632 62.4648 26.1525 62.6808 26.9526 62.9604C30.0191 64.0337 33.683 64.8219 36.7669 64.8866C37.3933 64.8994 38.0201 64.8951 38.6468 64.8908C38.9601 64.8887 39.2734 64.8866 39.5865 64.8866C47.0855 64.8866 54.7178 63.2471 61.1278 59.2147C61.4008 59.0785 61.6478 58.9356 61.9173 58.7609C64.0511 57.377 65.8489 55.3373 67.2181 53.2024C67.2825 53.102 67.3489 53.0045 67.4154 52.907C67.5012 52.7809 67.5872 52.6548 67.6692 52.5218C67.6692 52.5218 67.6511 52.4583 67.6692 52.4084C73.1966 43.4638 62.7293 35.4017 55.6015 31.8761C56.8827 31.4813 57.8109 30.508 58.5338 29.3804C58.592 29.2899 58.657 29.1952 58.7243 29.0974C58.978 28.7281 59.2627 28.3138 59.3233 27.9058C59.346 27.7355 59.3383 27.5519 59.3307 27.3722C59.327 27.2837 59.3233 27.1962 59.3233 27.1117C59.3233 27.0331 59.322 26.9554 59.3208 26.8786C59.3135 26.4359 59.3067 26.0237 59.5489 25.637C59.5979 25.5946 59.6486 25.5396 59.7011 25.4827C59.7609 25.4178 59.8229 25.3505 59.8872 25.2967C62.8331 22.8373 65.8613 19.8392 68.4305 16.9873C68.541 16.8647 68.653 16.7407 68.7663 16.6153C71.287 13.8251 74.4123 10.3654 74.8872 6.69284C74.928 6.37597 74.9142 6.03619 74.9006 5.70284C74.8939 5.53854 74.8872 5.37581 74.8872 5.21814ZM66.8278 4.64425C66.0385 5.69365 64.205 8.13146 65.2162 9.16011C66.1693 10.1297 67.9175 8.20546 68.8648 7.16277C69.0014 7.01236 69.1214 6.8803 69.2199 6.77791C70.0015 5.96569 71.7564 2.3958 69.1354 2.7225C68.4575 2.89152 67.4775 3.86369 66.9925 4.42407C66.9453 4.488 66.8897 4.56184 66.8278 4.64425Z" fill="#1E1E1E"/>
<path fill-rule="evenodd" clip-rule="evenodd" d="M63.3835 4.76429C64.0354 4.20391 64.6681 3.65033 65.3008 3.06272C67.4042 1.39291 71.0312 -1.39653 73.4211 1.36115C74.2388 2.46717 74.6346 3.83524 74.6617 5.21805C74.6639 5.3245 74.6672 5.43244 74.6705 5.5412C74.6822 5.92498 74.6942 6.31885 74.6617 6.69274C74.4429 9.19745 72.3587 12.2285 70.8271 14.1797C70.559 14.4493 70.3249 14.7267 70.0794 15.0178C70.0285 15.0781 69.9771 15.139 69.9248 15.2006C69.7658 15.3876 69.5945 15.5744 69.4225 15.7618C69.2483 15.9518 69.0733 16.1425 68.9098 16.335C68.7629 16.4827 68.6104 16.6283 68.4569 16.7748C68.1472 17.0703 67.8339 17.3693 67.5564 17.6962C67.0365 18.3077 66.4354 18.9372 65.8647 19.5112C65.7109 19.6659 65.5527 19.8291 65.3923 19.9945C65.0645 20.3326 64.7272 20.6805 64.3985 20.9859C63.9116 21.439 63.4143 21.8841 62.9158 22.3303C62.044 23.1107 61.1686 23.8943 60.3384 24.7294C60.2321 24.8363 60.113 24.9387 59.9921 25.0426C59.7451 25.2551 59.4907 25.4738 59.3233 25.7503C59.3006 25.7878 59.2803 25.8318 59.2599 25.8759C59.2439 25.9106 59.2279 25.9453 59.2106 25.9772C59.0179 26.3292 59.0832 26.7803 59.1476 27.2244C59.1816 27.4587 59.2152 27.691 59.2106 27.9057C59.0229 28.4159 58.6989 28.8818 58.3808 29.339C58.3185 29.4286 58.2563 29.518 58.1955 29.6072C58.1734 29.6403 58.1548 29.6825 58.136 29.7252C58.1193 29.7632 58.1024 29.8015 58.0827 29.8341L58.0337 29.8871C57.6823 30.2664 57.2288 30.7559 56.8421 31.0819C56.6503 31.2407 56.4201 31.3425 56.192 31.4435C55.8824 31.5805 55.5766 31.7157 55.376 31.9894C59.7632 34.0801 61.9692 35.9722 65.7181 39.5104C69.6779 43.2488 69.3878 49.0854 66.8797 53.4292C61.7699 62.2688 48.7658 64.6596 39.5865 64.6596C36.371 64.6596 33.4016 64.0704 30.349 63.4648C29.2712 63.2509 28.183 63.035 27.07 62.8423C23.1779 62.1665 17.7244 59.8588 14.3233 57.7399C13.3935 57.009 12.3932 56.374 11.391 55.7378C10.5124 55.18 9.63228 54.6214 8.79703 53.9964C7.69302 53.0285 6.64491 51.9263 5.60626 50.8341C5.09046 50.2918 4.577 49.7518 4.06018 49.232C1.2185 45.8884 0.0444315 41.1954 0.338379 36.8673C0.497492 34.5242 1.6862 32.2414 3.04515 30.4013C3.38462 30.0099 3.88988 29.5006 4.28575 29.1535C7.50085 26.752 12.3309 25.4683 16.2406 24.9563C19.6954 24.4993 23.1044 24.5008 26.577 24.5023C26.7779 24.5024 26.9791 24.5025 27.1805 24.5025C27.5641 24.5025 27.937 24.536 28.3129 24.5698C28.4981 24.5865 28.684 24.6032 28.8722 24.6159C31.9737 24.828 35.0588 25.5504 38.1326 26.2702C40.7672 26.8872 43.3937 27.5022 46.0151 27.7922C45.8031 27.2972 45.8765 26.7592 45.9486 26.2303C45.992 25.912 46.035 25.597 46.0151 25.2966C46.0117 25.2399 46.0151 25.1831 46.0151 25.1831C46.3279 24.8157 46.5241 24.485 46.7056 24.1791C47.035 23.6239 47.3158 23.1505 48.1579 22.6875C48.2143 22.692 48.2707 22.6875 48.2707 22.6875C49.8756 22.8406 50.3222 22.0432 50.9775 20.7591C51.0286 20.69 51.0803 20.6226 51.1317 20.5558C51.3281 20.2999 51.5191 20.0511 51.6542 19.7381C51.681 19.6766 51.7072 19.6263 51.736 19.571C51.746 19.5519 51.7562 19.5322 51.7669 19.5112C52.0512 19.1539 52.3286 18.8011 52.5564 18.3769C54.0091 15.6691 55.8643 13.1383 57.7444 10.6631C57.7715 10.6268 57.7444 10.5496 57.7444 10.5496C58.1905 10.2357 58.5286 9.77952 58.8614 9.33053C59.0132 9.12566 59.164 8.92229 59.3233 8.73462L62.7068 5.33148C62.8157 5.23774 62.9311 5.1423 63.0458 5.04742C63.1614 4.95172 63.2764 4.85657 63.3835 4.76429ZM66.8278 4.64413C66.0385 5.69351 64.205 8.13136 65.2162 9.16002C66.1693 10.1296 67.9175 8.20538 68.8648 7.16268C69.0014 7.01228 69.1214 6.88021 69.22 6.77782C70.0015 5.9656 71.7564 2.39571 69.1354 2.72241C68.4576 2.89143 67.4775 3.86359 66.9925 4.42398C66.9453 4.4879 66.8898 4.56174 66.8278 4.64413Z" fill="#010000"/>
<path fill-rule="evenodd" clip-rule="evenodd" d="M65.8658 3.91407C66.0535 3.73985 66.2399 3.5668 66.4287 3.40313C68.0494 2.33 72.025 -0.266596 71.9551 2.83593C71.8921 5.63156 70.9124 6.92219 69.5021 8.78017C69.3473 8.98415 69.1873 9.19495 69.0227 9.41534C68.9837 9.46766 68.9438 9.52013 68.9035 9.57304C68.7509 9.77364 68.5936 9.98051 68.4588 10.2094C68.385 10.3089 68.3067 10.4061 68.2277 10.5041C68.0724 10.6968 67.9144 10.8929 67.7821 11.1169C67.7174 11.2264 67.6617 11.3487 67.6071 11.4687C67.5541 11.5851 67.5021 11.6993 67.4438 11.7975C66.7073 12.6563 65.9652 13.6976 65.3009 14.6335C64.9551 15.0487 64.4791 15.4402 63.9934 15.8396C63.261 16.4418 62.5065 17.0622 62.143 17.8098C62.1205 17.8551 62.143 17.9232 62.143 17.9232C62.0996 17.9716 62.02 18.018 61.943 18.0628C61.8919 18.0925 61.842 18.1216 61.8047 18.1501C60.5246 19.1234 57.6521 21.5963 56.9551 23.0279C56.9551 23.0279 56.981 23.1232 56.9551 23.1413C55.2332 24.3494 55.8784 25.8877 56.4656 27.2879C57.0965 28.7922 57.6606 30.1371 55.1506 30.7417C55.0615 26.6817 50.0573 24.5559 46.9175 26.8848C46.9218 26.8102 46.9257 26.7362 46.9295 26.6627C46.9476 26.3149 46.9651 25.9778 47.0303 25.637C47.0854 25.4808 47.1297 25.3217 47.1734 25.1649C47.3263 24.6158 47.4715 24.0946 48.0453 23.822C48.3442 23.7244 48.907 23.6269 49.1731 23.5951C50.8614 23.5304 51.7132 21.8748 52.5345 20.2785C52.9082 19.5522 53.2756 18.8382 53.7126 18.2919C54.247 17.6247 54.7111 16.8647 55.1826 16.0924C55.9451 14.8437 56.7271 13.5631 57.8573 12.5916C58.6468 11.9121 59.5242 10.8356 60.0002 10.096C60.6408 9.4516 61.2187 8.7175 61.7978 7.98174C62.6949 6.84195 63.5952 5.69818 64.737 4.87782C65.1361 4.59155 65.5033 4.25062 65.8658 3.91407ZM66.8279 4.64421C66.0387 5.69359 64.2052 8.13145 65.2163 9.1601C66.1695 10.1297 67.9177 8.20547 68.8649 7.16277C69.0016 7.01236 69.1216 6.8803 69.2201 6.7779C70.0017 5.96569 71.7566 2.39579 69.1355 2.72249C68.4577 2.89152 67.4776 3.86368 66.9927 4.42406C66.9455 4.48798 66.8899 4.56182 66.8279 4.64421Z" fill="#F68B21"/>
<path d="M66.9925 4.42405C66.344 5.30206 64.1256 8.05066 65.2162 9.16009C66.3068 10.2695 68.4384 7.5901 69.22 6.77789C70.0015 5.96567 71.7564 2.39578 69.1354 2.72248C68.4576 2.8915 67.4775 3.86366 66.9925 4.42405ZM69.5865 3.51654C70.7696 4.33443 66.9903 8.95363 66.0124 8.35468C65.0335 7.75459 68.5997 2.83365 69.5865 3.51654Z" fill="#010000"/>
<path d="M59.7744 23.8219C61.739 21.51 62.6537 18.2793 65.8736 17.0247C69.0947 15.7701 69.8029 12.1559 72.0676 10.2093C73.5259 8.1958 74.3887 4.99117 72.9699 2.72241C72.7849 5.30086 72.2142 6.34903 70.6883 8.5951C69.1623 10.8412 69.4195 10.6733 67.4176 13.3595C65.4157 16.0457 61.915 19.2878 59.7462 21.8651C57.5774 24.4435 56.4011 23.6892 57.0924 26.6329C57.7838 29.5755 58.8135 24.9529 59.7744 23.8219Z" fill="#C36306"/>
<path d="M59.7744 23.822C59.9301 23.6655 60.1646 23.518 60.3383 23.3683C62.0571 21.6395 63.9203 20.1058 65.6391 18.377C66.503 17.3606 67.4808 16.4452 68.3458 15.4276C68.8195 14.8695 69.3282 14.3658 69.812 13.8395C70.7176 12.6858 71.3842 11.4698 72.0676 10.2095C69.803 12.1561 69.0947 15.7702 65.8737 17.0248C62.6537 18.2795 61.7391 21.5102 59.7744 23.822Z" fill="#AB5706"/>
<path d="M62.1431 17.8098C63.2089 17.06 64.5408 15.7044 65.301 14.6335C64.4337 15.6749 62.7476 16.5665 62.1431 17.8098Z" fill="#81490F"/>
<path d="M61.8047 18.15C60.228 19.8391 58.6795 21.5123 56.9551 23.0278C56.9551 23.0278 56.981 23.1231 56.9551 23.1412C58.2735 22.9994 61.4415 19.0575 62.143 17.9231C62.0709 18.0036 61.8983 18.0785 61.8047 18.15Z" fill="#552F08"/>
<path d="M56.9551 23.028C58.6795 21.5125 60.228 19.8392 61.8047 18.1501C60.5246 19.1234 57.6521 21.5964 56.9551 23.028Z" fill="#B36517"/>
<path d="M60.3384 23.3682C62.1136 21.8425 64.0726 20.2215 65.6391 18.377C63.9203 20.1057 62.0572 21.6394 60.3384 23.3682Z" fill="#503214"/>
<path d="M49.1728 57.3997C54.4318 58.4218 58.6904 55.3147 63.6055 53.8797C68.5216 52.4458 69.4532 45.1552 66.1938 41.7543C62.9344 38.3523 60.7002 34.5374 56.0243 33.3951C51.3495 32.2539 47.4867 29.9976 42.9777 28.1247C38.4686 26.2507 31.9904 26.0976 27.0923 25.4986C22.1942 24.8985 14.7968 25.7289 10.5145 27.0244C6.23217 28.3198 1.36112 31.7162 1.49082 36.2752C1.62052 40.8332 6.50623 44.3781 9.47352 46.8499C5.00849 40.1673 11.7664 34.1721 18.7137 34.1369C25.6611 34.1018 35.0965 32.6872 41.7044 35.1908C48.3111 37.6943 52.1198 39.0556 57.2085 44.6663C62.2972 50.278 55.5968 56.8983 49.1728 57.3997Z" fill="#2D2D2D"/>
<path fill-rule="evenodd" clip-rule="evenodd" d="M34.2857 26.5331C34.0411 26.8728 33.8719 27.251 33.7782 27.6675C33.6885 28.4505 33.5569 29.2257 33.3834 29.993C33.3881 31.0031 33.3881 32.0052 33.3834 32.9991C33.254 33.1861 33.1036 33.3563 32.9323 33.5095C26.6479 33.6399 20.1568 33.4602 14.2105 34.6439C14.3152 34.5999 14.3904 34.5242 14.4361 34.417C13.308 31.9579 11.8419 29.7269 10.0376 27.7242C9.92478 27.6864 9.812 27.6485 9.69922 27.6108C12.5803 26.0343 15.9765 25.9683 19.1729 25.5689C22.7847 25.3245 26.3938 25.3623 30 25.6823C31.2285 26.2995 32.9382 26.2823 34.2857 26.5331Z" fill="#323232"/>
<path fill-rule="evenodd" clip-rule="evenodd" d="M59.9999 36.0619C62.8048 37.6873 65.0606 40.3273 66.7668 43.2085C66.7836 43.3278 66.7649 43.4413 66.7104 43.5488C66.5966 43.4174 66.4463 43.3418 66.2593 43.3219C63.4155 43.5768 60.8591 44.6357 58.5901 46.4982C58.5526 46.6116 58.5149 46.7251 58.4774 46.8385C57.0867 45.0974 55.7808 42.9762 54.1353 41.5636C56.273 40.2082 58.1715 38.5633 59.8307 36.6291C59.919 36.4098 59.8627 36.2397 59.6616 36.1186C59.7685 36.0638 59.8813 36.045 59.9999 36.0619Z" fill="#323232"/>
<path d="M50.7521 26.8849C47.6438 26.3767 46.6017 29.0527 48.5246 29.9194C50.4476 30.7861 53.2141 32.8325 54.3611 31.4225C55.5081 30.0124 51.872 27.0676 50.7521 26.8849Z" fill="#A5A5A5"/>
<path d="M32.9324 34.3716C25.861 33.6831 17.2591 33.2112 11.3629 37.1792C5.46663 41.1473 10.5452 49.1798 16.3275 51.0731C22.1099 52.9664 28.076 56.1597 34.9625 56.8324C41.8478 57.5062 48.7794 58.0745 55.1414 54.2142C61.5035 50.3539 56.9223 43.1994 51.4535 40.2455C45.9858 37.2904 39.361 34.9978 32.9324 34.3716Z" fill="#454545"/>
<path d="M9.58658 53.3159C9.53131 53.2648 9.50199 53.1548 9.47379 53.089C5.88733 49.2219 1.56778 45.9095 1.35349 40.2705C1.32304 40.0572 1.07041 38.823 1.35349 38.9092C1.60274 38.9853 1.7268 39.7215 1.9174 39.9302C1.96139 39.9778 2.11026 40.0028 2.14297 40.0436C1.6862 39.6568 1.81928 38.6994 1.12793 38.6824C1.23056 44.3361 4.71214 50.0874 9.58658 53.3159Z" fill="#78481B"/>
<path d="M1.35356 40.2706C1.3389 39.8724 1.47537 39.2848 1.35356 38.9093C1.07048 38.8231 1.32311 40.0573 1.35356 40.2706Z" fill="#D07721"/>
<path d="M1.35317 40.2704C1.56746 45.9094 5.887 49.2218 9.47347 53.0889C8.47084 50.7646 6.46783 49.5372 4.82121 47.4454C3.1746 45.3536 2.6355 42.4496 1.91708 39.9301C1.72648 39.7214 1.60242 38.9852 1.35317 38.9092C1.47497 39.2847 1.33851 39.8723 1.35317 40.2704Z" fill="#FBF5EF"/>
<path d="M9.47387 53.089C9.50207 53.1548 9.53139 53.2648 9.58665 53.3159C10.4201 53.8672 11.2073 54.5036 12.0679 55.0174C12.9848 55.233 14.0133 53.0788 14.7746 52.6352C12.2776 50.6728 8.69906 49.2695 7.10545 46.5096C6.57086 46.0161 5.97876 45.4977 5.5265 44.9214C4.32312 43.3889 3.05319 41.7395 2.14304 40.0436C2.11034 40.0028 1.96147 39.9778 1.91748 39.9302C2.6359 42.4496 3.175 45.3536 4.82162 47.4454C6.46823 49.5372 8.47124 50.7646 9.47387 53.089Z" fill="#C76405"/>
<path d="M12.0679 55.0174C27.0261 65.0623 51.298 68.3963 64.8498 54.3367C64.1731 54.634 63.5359 54.9981 62.8198 55.2443C62.7622 55.284 62.7397 55.4167 62.707 55.4711C61.1506 58.0416 57.7119 58.7018 55.1855 60.0438C52.6581 61.3847 48.2923 61.6047 45.4513 62.3908C45.9137 61.0908 46.7314 59.9633 47.5942 58.8743C47.3145 58.7903 46.7122 59.0796 46.6919 58.6474C46.278 58.6474 45.8652 58.6474 45.4513 58.6474C44.769 58.6474 44.019 58.5918 43.4213 58.534C29.9055 58.534 18.5201 53.6368 7.44381 46.7364C7.3378 46.6706 7.20133 46.5969 7.10547 46.5095C8.69908 49.2695 12.2776 50.6727 14.7746 52.6352C14.0134 53.0787 12.9848 55.2329 12.0679 55.0174Z" fill="#AA5502"/>
<path d="M58.1953 57.1728C59.4788 56.9959 61.0961 56.2789 62.2555 55.6981C62.3243 55.6641 62.6513 55.5166 62.7066 55.4713C62.7393 55.4168 62.7619 55.2841 62.8194 55.2444C61.2957 55.7685 59.613 56.4457 58.1953 57.1728Z" fill="#7F4D1E"/>
<path d="M62.2557 55.6981C59.7734 57.7195 56.3414 59.0139 53.1203 58.4206C53.4057 58.1756 53.9933 58.4194 54.2482 58.0803C51.8234 57.9861 49.2429 58.6475 46.6918 58.6475C46.7121 59.0797 47.3143 58.7904 47.594 58.8743C46.7312 59.9633 45.9136 61.0909 45.4512 62.3909C48.2921 61.6048 52.6579 61.3847 55.1854 60.0439C57.7117 58.7019 61.1504 58.0417 62.7068 55.4712C62.6516 55.5166 62.3245 55.664 62.2557 55.6981Z" fill="#C66405"/>
<path d="M58.1953 57.1727C58.14 57.1806 58.0227 57.1602 57.9697 57.1727C57.6618 57.3304 57.4385 57.4438 57.0675 57.513C56.7968 57.5641 56.543 57.5845 56.278 57.6264C55.7085 57.7932 55.1288 58.0632 54.4735 58.0802C54.4171 58.0813 54.3043 58.0825 54.2479 58.0802C53.993 58.4194 53.4055 58.1755 53.1201 58.4205C56.3412 59.0138 59.7731 57.7195 62.2555 55.698C61.0961 56.2788 59.4788 56.9957 58.1953 57.1727Z" fill="#FAF1E8"/>
<path fill-rule="evenodd" clip-rule="evenodd" d="M62.9321 6.57935C63.0401 6.63073 63.1342 6.70628 63.2141 6.80622C63.747 7.90067 63.7845 8.99728 63.3268 10.0959C61.8699 11.1828 60.4789 12.3549 59.1539 13.6125C57.3258 15.7156 55.54 17.8521 53.7968 20.0218C53.4042 20.2485 53.0282 20.2296 52.6689 19.965C54.5621 15.1193 59.8911 10.8252 62.9321 6.57935Z" fill="#F89A3C"/>
<path d="M42.9815 40.8572C43.0352 41.0382 43.0869 41.2123 43.15 41.3502C43.5955 41.3561 43.6397 40.9268 43.6787 40.5487C43.6874 40.4635 43.6959 40.3809 43.7087 40.3065C43.9539 40.2751 44.1931 40.2192 44.4342 40.1629C44.4584 40.1572 44.4827 40.1516 44.5069 40.1459C44.5095 40.3556 44.4472 40.5483 44.3848 40.7413C44.3134 40.9621 44.2419 41.1833 44.2675 41.4305C44.5103 41.5221 44.7184 41.6899 44.9272 41.8582C45.0993 41.997 45.2719 42.1362 45.4648 42.2334C45.0387 42.68 44.6775 42.4304 44.2956 42.1665C44.0158 41.9732 43.725 41.7722 43.3894 41.832C43.4211 41.9587 43.4797 42.0758 43.5382 42.1926C43.6213 42.3585 43.704 42.5238 43.7087 42.7151C43.6192 42.7214 43.5325 42.7404 43.4456 42.7594C43.2991 42.7914 43.1521 42.8236 42.9903 42.7954C42.8304 42.2877 42.6235 41.7956 42.4165 41.3032C42.2225 40.8418 42.0284 40.3801 41.8728 39.9051C42.5996 39.5701 42.802 40.2522 42.9815 40.8572Z" fill="#4E4E4E"/>
<path d="M38.1211 41.7517C38.3143 41.4072 38.7078 41.2716 39.079 41.2699C39.0893 41.3667 39.1236 41.4563 39.1581 41.5463C39.1935 41.6386 39.229 41.7311 39.2387 41.832C38.0214 41.8135 38.6057 43.0395 38.9194 43.6786C38.6679 43.7813 38.4045 43.8536 38.1211 43.8391C37.9895 43.3378 37.7937 42.854 37.5978 42.37L37.5978 42.3699L37.5977 42.3698C37.5038 42.1377 37.4098 41.9055 37.3229 41.6714C37.368 41.6586 37.4165 41.6425 37.4665 41.6258C37.7317 41.5373 38.0405 41.4342 38.1211 41.7517Z" fill="#4E4E4E"/>
<path fill-rule="evenodd" clip-rule="evenodd" d="M39.5588 42.072C39.4422 40.5289 42.0923 40.557 42.1921 41.9925C41.9108 42.0871 41.6189 42.1446 41.3269 42.2021C41.0537 42.2559 40.7805 42.3098 40.5158 42.394C40.7391 42.897 41.1316 42.7214 41.534 42.5415C41.8208 42.4132 42.1126 42.2827 42.3517 42.394C41.943 43.738 39.696 43.453 39.5588 42.072ZM40.2763 41.9925C40.1295 41.4096 41.2222 41.1977 41.314 41.7517C41.1313 41.8267 40.9371 41.859 40.7426 41.8914C40.5854 41.9175 40.428 41.9437 40.2763 41.9925Z" fill="#4E4E4E"/>
<path d="M36.4055 41.8317C36.5259 41.8095 36.6465 41.7873 36.7642 41.7517C38.9705 44.4092 34.249 45.3485 34.3695 42.2334C35.048 41.9291 35.2034 42.3918 35.3703 42.8887C35.4795 43.2137 35.5936 43.5534 35.8622 43.7026C36.956 43.9083 36.4568 42.817 36.1556 42.1584C36.1135 42.0663 36.0753 41.9827 36.0458 41.9122C36.1632 41.8764 36.2842 41.8541 36.4055 41.8317Z" fill="#4E4E4E"/>
<path fill-rule="evenodd" clip-rule="evenodd" d="M31.2118 42.1075C31.3542 42.0746 31.4968 42.0418 31.6555 42.0728C31.6591 42.2482 31.7192 42.4079 31.7796 42.5679C31.8272 42.6943 31.8749 42.821 31.895 42.956C34.0183 40.9769 35.685 45.6994 32.6134 44.8026C32.6582 45.0623 32.4612 45.0915 32.2612 45.1211C32.1545 45.137 32.047 45.1529 31.9748 45.204C31.5693 44.3123 31.2587 43.3702 30.9502 42.4344C30.9192 42.3406 30.8883 42.2468 30.8573 42.1531C30.981 42.1607 31.0963 42.1341 31.2118 42.1075ZM32.3971 43.4388C32.5271 43.3 32.767 43.0438 33.0923 43.1165C33.4515 43.1968 33.6597 43.8683 33.5713 44.0274C33.4656 44.2175 33.094 44.2234 32.773 44.1247C32.3985 44.0094 32.0931 43.7517 32.3602 43.4778C32.3713 43.4664 32.3836 43.4533 32.3971 43.4388Z" fill="#4E4E4E"/>
<path d="M25.4077 45.2635C25.0113 44.3897 24.6025 43.4884 25.5092 43.2771C25.6084 43.4226 25.6589 43.5946 25.7085 43.7637C25.7591 43.9362 25.8088 44.1056 25.9083 44.2406C27.152 42.9536 28.3198 44.6516 28.4626 45.9266C27.7679 46.298 27.6128 45.8325 27.4395 45.3125C27.3383 45.0087 27.2308 44.6863 27.0059 44.5015C25.7391 44.0639 26.2627 45.6994 26.5469 46.328C26.3983 46.3337 26.2595 46.3744 26.1201 46.4153C26.0244 46.4434 25.9283 46.4716 25.8285 46.4886C25.8107 46.1518 25.6108 45.7113 25.4077 45.2635Z" fill="#4E4E4E"/>
<path d="M24.6312 44.5617C24.1434 42.85 20.6193 44.0262 21.6003 45.8439C21.985 47.489 25.2466 47.3059 25.0303 45.5251C24.9305 45.5421 24.8344 45.5703 24.7387 45.5984C24.5992 45.6393 24.4605 45.68 24.3119 45.6857C24.1243 46.8202 22.1966 46.3754 22.2644 45.2594C22.3232 44.2242 23.1138 44.3602 23.8499 44.4869C24.1334 44.5357 24.4088 44.5831 24.6312 44.5617Z" fill="#4E4E4E"/>
<path fill-rule="evenodd" clip-rule="evenodd" d="M31.0968 44.3208C31.0672 42.8098 28.3293 42.8403 28.4004 44.3835C28.4187 45.8334 31.0074 46.1209 31.1766 44.642C30.9633 44.6378 30.7249 44.7434 30.4875 44.8487C30.0461 45.0444 29.608 45.2386 29.3407 44.7223C29.6237 44.6358 29.9145 44.5808 30.2052 44.5259C30.5056 44.469 30.8059 44.4123 31.0968 44.3208ZM30.2187 44.08C30.1142 43.5019 29.181 43.7412 29.1012 44.2406C29.3299 44.2977 29.5876 44.2302 29.8416 44.1637C29.9696 44.1302 30.0967 44.0969 30.2187 44.08Z" fill="#4E4E4E"/>
<path fill-rule="evenodd" clip-rule="evenodd" d="M38.9194 46.0872C40.8798 43.9756 42.5561 48.89 39.5579 48.014L39.5639 48.0261C39.8404 48.5912 40.2198 49.3664 39.2387 49.2986C38.9117 48.5657 38.6353 47.8166 38.3587 47.0672L38.3587 47.067C38.2281 46.7131 38.0975 46.3592 37.9615 46.0069C37.9923 46.0022 38.023 45.9973 38.0534 45.9925C38.3613 45.9434 38.6469 45.8979 38.9194 46.0872ZM39.2041 46.609C39.3065 46.4727 39.6776 46.1273 40.0369 46.2477C40.3961 46.3682 40.5545 47.1334 40.3961 47.2653C40.2451 47.3911 39.9188 47.3564 39.6378 47.2406C39.2996 47.1014 39.027 46.8448 39.2041 46.609Z" fill="#4E4E4E"/>
<path d="M32.055 46.468C32.1349 46.4493 32.2148 46.4305 32.2941 46.4083C32.32 46.5768 32.3865 46.7322 32.4532 46.8878C32.5202 47.0443 32.5874 47.2011 32.6134 47.3717C33.9384 46.1442 35.1174 47.8559 35.1677 49.1381C35.0767 49.1766 34.9781 49.1898 34.8795 49.203C34.7583 49.2191 34.6369 49.2354 34.5291 49.2986C34.4331 49.1376 34.3585 48.9157 34.2812 48.6857C34.0646 48.0418 33.8265 47.3339 33.0373 47.7178C32.8229 47.9878 32.9707 48.3848 33.1077 48.7528C33.2982 49.2645 33.4678 49.7201 32.6134 49.7001C32.3906 49.18 32.2096 48.6464 32.0285 48.1127C31.8619 47.6215 31.6952 47.1302 31.4959 46.6492C31.6738 46.5574 31.864 46.5128 32.055 46.468Z" fill="#4E4E4E"/>
<path d="M31.2564 47.6126C30.7639 46.5231 28.7308 46.7319 28.4634 47.8527C28.5377 48.7984 29.2602 48.8169 29.9748 48.8352C30.3964 48.8459 30.8153 48.8567 31.0967 49.0578C30.8425 49.6696 30.3672 49.5572 29.8766 49.4412C29.52 49.3569 29.1554 49.2706 28.8617 49.4592C29.3039 50.5439 31.2596 50.4226 31.7888 49.4327C32.0044 48.3052 31.0576 48.2561 30.1825 48.2107C29.8395 48.1929 29.5074 48.1757 29.2608 48.0943C29.3403 47.4106 29.815 47.5147 30.316 47.6247C30.6557 47.6992 31.0074 47.7764 31.2564 47.6126Z" fill="#4E4E4E"/>
<path fill-rule="evenodd" clip-rule="evenodd" d="M37.0036 46.328C35.1669 45.7556 34.4772 48.4098 36.2852 48.8169C38.102 49.3018 38.715 46.833 37.0036 46.328ZM36.7642 46.89C36.3917 46.8151 36.1616 47.1116 36.0451 47.2617C36.0368 47.2724 36.029 47.2824 36.0218 47.2915C35.7865 47.5879 36.1378 47.8683 36.5247 47.976C36.8564 48.0683 37.2143 48.0336 37.251 47.7732C37.2761 47.595 37.1633 46.9703 36.7642 46.89Z" fill="#4E4E4E"/>
</g>
<defs>
<clipPath id="clip0_1323_1017">
<rect width="75" height="65" fill="white"/>
</clipPath>
</defs>
</svg>
