<svg width="24" height="24" viewBox="0 0 24 24" fill="none" xmlns="http://www.w3.org/2000/svg">
  <path d="M13.6933 8.94735C13.6987 8.87136 13.7111 8.77968 13.746 8.6929C13.7851 8.59544 13.8731 8.34988 13.9987 8.13985C14.0621 8.03387 14.1441 7.92076 14.2481 7.83433C14.3493 7.75024 14.4833 7.68237 14.6439 7.68757C14.6811 7.67456 14.7164 7.65527 14.7508 7.636C14.8352 7.58874 14.9378 7.52026 15.0367 7.44441C15.1363 7.36796 15.2238 7.29041 15.2818 7.22683C15.2884 7.21957 15.316 7.19604 15.3142 7.18563L15.3362 7.1225C15.4822 6.70269 15.7488 6.33576 15.9997 5.97691C16.1321 5.78747 16.2528 5.61462 16.3469 5.45468C16.394 5.3748 16.4432 5.28806 16.4957 5.19561C16.5496 5.10058 16.7511 4.82136 16.947 4.55348C17.0845 4.36553 17.229 4.17001 17.3377 4.02305L17.4626 3.85389C18.0281 3.08525 18.8014 2.83281 19.5423 2.23922C19.6354 2.16458 19.7359 2.07873 19.8459 1.98479L19.866 1.96768C20.2455 1.64345 20.6745 1.64656 21.1293 1.43906C21.6029 1.22295 22.4692 1.57517 22.9693 1.985C23.207 2.1797 23.3792 2.46185 23.4916 2.74756C23.6045 3.03465 23.6335 3.07017 23.6335 3.34353C23.6335 3.38857 23.6353 3.43606 23.6374 3.49035C23.6422 3.6116 23.6465 3.73366 23.6314 3.85439C23.4916 4.97582 23.5424 5.14629 23.1692 5.70385C22.7969 6.26005 22.3444 6.777 21.9514 7.22609C21.8376 7.3561 21.719 7.48189 21.6026 7.60943C21.4797 7.74402 21.3561 7.87786 21.2345 8.01356C20.4168 8.95039 20.3259 8.91639 19.3953 9.71837C19.3706 9.73963 19.3509 9.76685 19.3284 9.79046C19.3082 9.83508 19.3004 9.89265 19.3029 9.98619C19.3035 10.0069 19.305 10.0327 19.3067 10.0621L19.3074 10.074C19.3137 10.1841 19.3202 10.2964 19.3045 10.4058C19.2726 10.6275 19.1337 10.8015 19.0199 10.9843C18.8657 11.2326 18.6742 11.4749 18.4297 11.6576C19.477 12.2466 20.4617 13.0001 21.266 14.0535C21.726 14.6559 22.0687 15.3306 22.1761 16.0579C22.2844 16.791 22.1506 17.559 21.6869 18.3335C21.6359 18.4187 21.5953 18.5104 21.543 18.5947C21.1 19.3077 20.512 19.9997 19.8035 20.474C19.7156 20.5328 19.633 20.5825 19.5423 20.6297C17.481 21.9647 15.0377 22.5021 12.6513 22.5021C12.3543 22.5021 12.0572 22.5083 11.7602 22.502C10.7585 22.4804 9.58083 22.2176 8.59925 21.863C8.36163 21.7773 8.09475 21.7101 7.80778 21.6382C7.21996 21.4909 6.59278 21.3441 6.10693 20.9521C4.75169 20.3999 3.47148 19.6085 2.38558 18.6079C1.26301 17.5736 0.35197 16.288 0.075443 14.8272C0.00669283 14.4644 0 14.1055 0 13.7484C0 13.0962 0.0809022 12.4717 0.304525 11.9527C0.725721 10.9751 1.46848 10.1804 2.40718 9.70684C3.13796 9.33815 3.98097 8.8538 4.77155 8.73228L4.7935 8.72891C4.94567 8.70553 5.09824 8.68208 5.25016 8.65698C5.74968 8.57526 6.2918 8.50663 6.81311 8.50663C7.36949 8.50663 7.92498 8.51779 8.4772 8.52887L8.47834 8.5289C8.73967 8.53414 9.00109 8.53939 9.26151 8.54345C10.0977 8.55525 10.9076 8.58147 11.2756 8.65698C11.3581 8.67391 11.4377 8.6906 11.5147 8.70676C11.7931 8.76516 12.0445 8.81791 12.3327 8.86023C12.366 8.86512 12.4036 8.87035 12.4448 8.87608C12.6262 8.90131 12.8763 8.93609 13.1238 8.99262C13.3073 9.03454 13.5078 9.09207 13.6892 9.17646L13.6892 9.17324C13.6886 9.09793 13.688 9.02252 13.6933 8.94735Z" fill="white"/>
  <path fill-rule="evenodd" clip-rule="evenodd" d="M18.8911 4.59557C19.0646 4.44558 19.233 4.29741 19.4013 4.14014C19.9611 3.6932 20.9263 2.94659 21.5622 3.6847C21.7798 3.98073 21.8852 4.34691 21.8924 4.71702C21.893 4.74552 21.8938 4.77442 21.8947 4.80354C21.8978 4.90625 21.901 5.01167 21.8924 5.11174C21.8341 5.78214 21.2795 6.59343 20.8719 7.11566C20.8006 7.18783 20.7383 7.26209 20.673 7.33998C20.6594 7.35613 20.6458 7.37244 20.6318 7.38892C20.5895 7.43898 20.5439 7.48897 20.4982 7.53914C20.4518 7.59 20.4052 7.64104 20.3617 7.69255C20.3226 7.73209 20.282 7.77106 20.2412 7.81026C20.1588 7.88937 20.0754 7.9694 20.0016 8.0569C19.8632 8.22055 19.7033 8.38906 19.5514 8.5427C19.5105 8.5841 19.4684 8.62776 19.4257 8.67204C19.3384 8.76255 19.2487 8.85566 19.1612 8.93741C19.0316 9.05868 18.8993 9.17782 18.7667 9.29725C18.5347 9.50613 18.3017 9.71587 18.0808 9.93937C18.0525 9.96799 18.0208 9.9954 17.9887 10.0232C17.9229 10.0801 17.8552 10.1386 17.8107 10.2126C17.8046 10.2227 17.7992 10.2344 17.7938 10.2463C17.7896 10.2555 17.7853 10.2648 17.7807 10.2734C17.7294 10.3676 17.7468 10.4883 17.7639 10.6072C17.773 10.6699 17.7819 10.7321 17.7807 10.7895C17.7307 10.9261 17.6445 11.0508 17.5599 11.1732C17.5433 11.1972 17.5267 11.2211 17.5106 11.245C17.5047 11.2538 17.4997 11.2651 17.4947 11.2765C17.4903 11.2867 17.4858 11.297 17.4805 11.3057L17.4674 11.3199C17.3739 11.4214 17.2533 11.5524 17.1504 11.6397C17.0994 11.6822 17.0381 11.7094 16.9774 11.7364C16.895 11.7731 16.8136 11.8093 16.7602 11.8826C17.9277 12.4422 18.5148 12.9486 19.5124 13.8956C20.5661 14.8962 20.4889 16.4584 19.8215 17.6211C18.4617 19.9871 15.0012 20.627 12.5585 20.627C11.7029 20.627 10.9127 20.4693 10.1003 20.3072C9.81351 20.2499 9.52394 20.1922 9.22775 20.1406C8.19203 19.9597 6.74082 19.342 5.83576 18.7749C5.58832 18.5792 5.32213 18.4093 5.05544 18.239C4.82163 18.0897 4.58743 17.9402 4.36516 17.7729C4.07137 17.5138 3.79246 17.2188 3.51607 16.9265C3.37881 16.7813 3.24217 16.6368 3.10464 16.4977C2.34844 15.6027 2.03601 14.3466 2.11423 13.1882C2.15657 12.561 2.4729 11.95 2.83453 11.4575C2.92487 11.3527 3.05932 11.2164 3.16466 11.1235C4.02023 10.4807 5.30555 10.1371 6.34597 10.0001C7.26531 9.87779 8.1725 9.87819 9.09657 9.8786C9.15005 9.87862 9.20358 9.87865 9.25717 9.87865C9.35924 9.87865 9.45849 9.88762 9.55851 9.89666C9.60779 9.90111 9.65726 9.90559 9.70735 9.90901C10.5327 9.96577 11.3536 10.1591 12.1716 10.3518C12.8727 10.5169 13.5716 10.6815 14.2692 10.7592C14.2128 10.6267 14.2323 10.4827 14.2515 10.3411C14.2631 10.2559 14.2745 10.1716 14.2692 10.0912C14.2683 10.076 14.2692 10.0608 14.2692 10.0608C14.3525 9.96246 14.4047 9.87395 14.453 9.79208C14.5406 9.64348 14.6154 9.51677 14.8395 9.39285C14.8545 9.39406 14.8695 9.39285 14.8695 9.39285C15.2965 9.43384 15.4154 9.22039 15.5898 8.87668C15.6034 8.85819 15.6171 8.84017 15.6308 8.82228C15.6831 8.75379 15.7339 8.6872 15.7698 8.60342C15.777 8.58695 15.784 8.57349 15.7916 8.55869C15.7943 8.55358 15.797 8.54831 15.7999 8.5427C15.8755 8.44706 15.9493 8.35263 16.0099 8.23907C16.3965 7.51432 16.8902 6.83693 17.3905 6.17442C17.3977 6.16471 17.3905 6.14406 17.3905 6.14406C17.5092 6.06004 17.5992 5.93793 17.6878 5.81776C17.7282 5.76292 17.7683 5.70849 17.8107 5.65826L18.711 4.74739C18.74 4.72229 18.7707 4.69675 18.8013 4.67135C18.832 4.64574 18.8626 4.62027 18.8911 4.59557ZM19.8077 4.56341C19.5977 4.84429 19.1097 5.4968 19.3788 5.77212C19.6325 6.03163 20.0977 5.51661 20.3498 5.23752C20.3861 5.19726 20.418 5.16192 20.4443 5.13451C20.6522 4.91711 21.1192 3.96161 20.4218 4.04905C20.2414 4.09429 19.9806 4.3545 19.8515 4.50449C19.839 4.5216 19.8242 4.54136 19.8077 4.56341Z" fill="#010000"/>
  <path d="M19.8515 4.50453C19.6789 4.73954 19.0886 5.47522 19.3788 5.77217C19.669 6.06911 20.2362 5.35195 20.4442 5.13455C20.6522 4.91716 21.1192 3.96165 20.4217 4.04909C20.2413 4.09433 19.9805 4.35454 19.8515 4.50453ZM20.5418 4.26163C20.8566 4.48055 19.8509 5.71691 19.5907 5.55659C19.3302 5.39597 20.2791 4.07885 20.5418 4.26163Z" fill="#010000"/>
  <path d="M17.9311 9.69571C17.9309 9.69597 17.9306 9.69623 17.9304 9.69649C17.8462 9.79624 17.7599 9.99745 17.6756 10.1943C17.5039 10.5947 17.3401 10.977 17.2167 10.4489C17.093 9.91883 17.1941 9.83674 17.4493 9.62966C17.5734 9.52892 17.734 9.3986 17.9229 9.17274C18.1645 8.88393 18.4683 8.56392 18.7789 8.23671C19.2102 7.78237 19.6547 7.31413 19.9644 6.89616C20.3093 6.4306 20.4022 6.28534 20.5351 6.07756C20.6074 5.96446 20.6916 5.83283 20.8347 5.62094C21.2408 5.01976 21.3926 4.73921 21.4419 4.04907C21.8194 4.65632 21.5898 5.51406 21.2018 6.053C21.2017 6.05306 21.2018 6.05293 21.2018 6.053C21.0199 6.39026 20.8424 6.71586 20.6014 7.02459C20.5565 7.07368 20.5109 7.12204 20.4651 7.17053C20.3794 7.2612 20.2934 7.35234 20.2112 7.44967C20.0962 7.58583 19.9736 7.71516 19.851 7.84445C19.7284 7.97377 19.6059 8.10305 19.4909 8.23909C19.2622 8.47045 19.024 8.68876 18.7857 8.90707C18.5474 9.12537 18.3091 9.34368 18.0804 9.57504C18.0613 9.59157 18.0395 9.608 18.0175 9.62454C17.9866 9.64784 17.9553 9.67137 17.9311 9.69571Z" fill="#AB5706"/>
  <path d="M15.1092 18.6838C16.5087 18.9574 17.6419 18.1257 18.9499 17.7416C20.2581 17.3579 20.506 15.4065 19.6387 14.4962C18.7713 13.5856 18.1768 12.5645 16.9325 12.2588C15.6884 11.9533 14.6605 11.3494 13.4606 10.8481C12.2607 10.3466 10.5368 10.3056 9.23339 10.1453C7.92996 9.98464 5.96145 10.2069 4.82188 10.5536C3.68231 10.9004 2.38608 11.8094 2.4206 13.0297C2.45511 14.2497 3.75524 15.1985 4.54487 15.8601C3.35668 14.0714 5.15502 12.4668 7.00378 12.4574C8.85254 12.4479 11.3634 12.0693 13.1218 12.7394C14.8799 13.4095 15.8934 13.7739 17.2476 15.2756C18.6017 16.7776 16.8187 18.5496 15.1092 18.6838Z" fill="#2D2D2D"/>
  <path d="M15.5297 10.5161C14.7025 10.38 14.4252 11.0963 14.9369 11.3283C15.4486 11.5602 16.1848 12.108 16.4901 11.7306C16.7953 11.3532 15.8277 10.5649 15.5297 10.5161Z" fill="#A5A5A5"/>
  <path d="M10.7878 12.5203C8.90602 12.336 6.61698 12.2097 5.04794 13.2717C3.47889 14.3338 4.83035 16.4838 6.36908 16.9905C7.90781 17.4973 9.49546 18.352 11.328 18.532C13.1603 18.7124 15.0048 18.8645 16.6978 17.8313C18.3908 16.798 17.1717 14.8831 15.7164 14.0924C14.2614 13.3015 12.4985 12.6879 10.7878 12.5203Z" fill="#454545"/>
  <path d="M15.4101 18.9395C15.7668 18.8958 16.1193 18.8527 16.4601 18.866C16.3923 18.9568 16.2359 18.8915 16.16 18.9571C17.3386 19.1755 18.1169 18.4283 19.0922 17.9532C19.1549 17.9226 19.2175 17.8921 19.2814 17.8639C15.6753 21.6269 9.21607 20.7346 5.23551 18.0461C4.11109 17.3708 3.13376 16.4324 2.64207 15.1957C2.44421 14.6042 2.36991 14.269 2.3244 13.6738C2.43362 13.6765 2.46552 13.768 2.49884 13.8635C2.68719 14.4033 3.14886 14.9008 3.49479 15.3439C3.62703 15.5134 3.79887 15.705 3.98615 15.818C7.38703 17.8922 11.3614 19.4348 15.4101 18.9395L15.4101 18.9395Z" fill="#C66405"/>
  <path d="M2.38409 14.099C2.44111 15.6083 3.59058 16.4949 4.54497 17.5299C4.27816 16.9078 3.74515 16.5793 3.30697 16.0194C2.86879 15.4595 2.72533 14.6822 2.53415 14.0079C2.48343 13.952 2.45041 13.755 2.38409 13.7346C2.4165 13.8351 2.38019 13.9924 2.38409 14.099Z" fill="#FBF5EF"/>
  <path d="M17.5102 18.6227C17.4955 18.6249 17.4643 18.6194 17.4502 18.6227C17.3683 18.6649 17.3088 18.6953 17.2101 18.7138C17.1381 18.7275 17.0705 18.733 17 18.7442C16.8485 18.7888 16.6942 18.8611 16.5198 18.8656C16.5048 18.8659 16.4748 18.8662 16.4598 18.8656C16.392 18.9564 16.2356 18.8911 16.1597 18.9567C17.0168 19.1155 17.9301 18.7691 18.5907 18.228C18.2821 18.3835 17.8518 18.5754 17.5102 18.6227Z" fill="#FAF1E8"/>
  <path fill-rule="evenodd" clip-rule="evenodd" d="M19.5516 4.36787C19.4551 4.45794 19.3574 4.5492 19.2512 4.62581C19.0737 4.75408 18.9182 4.91189 18.7719 5.08177C18.7716 5.08163 18.7713 5.08149 18.771 5.08135C18.769 5.08419 18.7669 5.08705 18.7649 5.08989C18.6633 5.20838 18.5661 5.33257 18.4691 5.45659C18.315 5.65352 18.1612 5.85002 17.9907 6.02249C17.9836 6.03352 17.9763 6.04484 17.9686 6.0564C17.8871 6.1475 17.8046 6.23894 17.7217 6.33075C17.5765 6.49153 17.4303 6.65349 17.287 6.81699C17.2229 6.88326 17.1631 6.95328 17.1066 7.02589C16.6605 7.55102 16.2616 8.09327 16.0399 8.66412C16.0416 8.6654 16.0433 8.66665 16.0451 8.66789C16.0314 8.69442 16.0177 8.72113 16.004 8.7479C15.7855 9.17515 15.5588 9.6183 15.1095 9.63562C15.0387 9.64413 14.8889 9.67024 14.8094 9.69635C14.6567 9.76933 14.6181 9.90882 14.5774 10.0558C14.5657 10.0978 14.554 10.1403 14.5393 10.1821C14.5219 10.2734 14.5173 10.3636 14.5125 10.4566L14.5093 10.5161C15.3448 9.89279 16.6765 10.4618 16.7002 11.5485C17.3681 11.3866 17.218 11.0267 17.0501 10.624C16.8939 10.2493 16.7222 9.83751 17.1804 9.51417C17.1873 9.50932 17.1804 9.48381 17.1804 9.48381C17.3659 9.10064 18.1303 8.43874 18.4709 8.17823C18.4808 8.17059 18.4941 8.16282 18.5077 8.15486C18.5282 8.14287 18.5494 8.13046 18.5609 8.1175C18.5609 8.1175 18.5549 8.09928 18.5609 8.08714C18.6577 7.88706 18.8584 7.721 19.0533 7.5598C19.1826 7.4529 19.3093 7.34813 19.4013 7.23699C19.5781 6.9865 19.7755 6.70777 19.9715 6.47793C19.987 6.45163 20.0009 6.42106 20.015 6.38993C20.0295 6.35779 20.0443 6.32505 20.0616 6.29575C20.0968 6.2358 20.1388 6.18332 20.1801 6.13176C20.2011 6.10554 20.222 6.07945 20.2416 6.05285C20.2775 5.99159 20.3194 5.93623 20.36 5.88254C20.3707 5.86839 20.3813 5.85431 20.3917 5.84031C20.4355 5.78132 20.4781 5.72489 20.5193 5.67029C20.8946 5.173 21.1552 4.82755 21.172 4.07929C21.1906 3.24888 20.1327 3.94387 19.7014 4.2311C19.6511 4.27491 19.6015 4.32124 19.5516 4.36787ZM19.3788 5.772C19.1097 5.49667 19.5976 4.84417 19.8076 4.56329C19.8241 4.54124 19.8389 4.52148 19.8515 4.50437C19.9805 4.35438 20.2413 4.09417 20.4217 4.04893C21.1192 3.96149 20.6522 4.91699 20.4442 5.13439C20.418 5.16178 20.3861 5.19709 20.3498 5.23732C20.0977 5.5164 19.6324 6.03151 19.3788 5.772Z" fill="#F89A3C"/>
</svg>
