<svg xmlns="http://www.w3.org/2000/svg" xmlns:xlink="http://www.w3.org/1999/xlink"><symbol id="icon__arrow--next" viewBox="0 0 25 25"><g fill="none"><path clip-rule="evenodd" d="M12.5 21.875v0A9.374 9.374 0 013.125 12.5v0A9.374 9.374 0 0112.5 3.125v0a9.374 9.374 0 019.375 9.375v0a9.374 9.374 0 01-9.375 9.375z" stroke="currentColor" stroke-linecap="round" stroke-linejoin="round"/><path d="M16.667 12.5H8.333m5.209-3.125l3.125 3.125-3.125 3.125" stroke="currentColor" stroke-linecap="round" stroke-linejoin="round"/></g></symbol><symbol id="icon__arrow--prev" viewBox="0 0 25 25"><g fill="none"><path clip-rule="evenodd" d="M12.5 3.125v0a9.374 9.374 0 019.375 9.375v0a9.374 9.374 0 01-9.375 9.375v0A9.374 9.374 0 013.125 12.5v0A9.374 9.374 0 0112.5 3.125z" stroke="currentColor" stroke-linecap="round" stroke-linejoin="round"/><path d="M8.333 12.5h8.334m-5.209 3.125L8.333 12.5l3.125-3.125" stroke="currentColor" stroke-linecap="round" stroke-linejoin="round"/></g></symbol><symbol id="icon__arrow-end" viewBox="0 0 13 22"><g fill="none"><path d="M1.5 1.5L11 11l-9.5 9.5" stroke="currentColor" stroke-linecap="round" stroke-linejoin="round"/></g></symbol><symbol id="icon__cart" viewBox="0 0 25 25"><g fill="none"><path d="M8.854 3.125l-3.646 6.25m9.896 8.333v-4.166m-5.208 4.166v-4.166" stroke="currentColor" stroke-linecap="round" stroke-linejoin="round"/><path clip-rule="evenodd" d="M18.63 21.875H6.37a2.344 2.344 0 01-2.306-1.924l-1.42-7.813A2.344 2.344 0 014.95 9.375h15.1a2.344 2.344 0 012.306 2.763l-1.42 7.813a2.344 2.344 0 01-2.306 1.924v0z" stroke="currentColor" stroke-linecap="round" stroke-linejoin="round"/><path d="M16.146 3.125l3.646 6.25" stroke="currentColor" stroke-linecap="round" stroke-linejoin="round"/></g></symbol><symbol id="icon__close" viewBox="0 0 20 20"><g fill="none"><path d="M18 2L2 18m16 0L2 2" stroke="#7e22ce" stroke-linecap="round"/></g></symbol><symbol id="icon__eye" viewBox="0 0 25 25"><g fill="none"><path d="M2.177 13.635c5.701-7.34 14.944-7.34 20.645 0m-6.748-3.929a4.688 4.688 0 11-6.63 6.63 4.688 4.688 0 016.63-6.63" stroke="#7e22ce" stroke-linecap="round" stroke-linejoin="round"/></g></symbol><symbol id="icon__logout" viewBox="0 0 25 25"><g fill="none"><path clip-rule="evenodd" d="M6.25 3.125h12.5c1.726 0 3.125 1.4 3.125 3.125v12.5c0 1.726-1.4 3.125-3.125 3.125H6.25a3.125 3.125 0 01-3.125-3.125V6.25c0-1.726 1.4-3.125 3.125-3.125z" stroke="#F97316" stroke-linecap="round" stroke-linejoin="round"/><path clip-rule="evenodd" d="M12.5 17.666V7.334c0-.888-.502-1.7-1.296-2.097L7.648 3.459a3.125 3.125 0 00-4.523 2.795v12.492a3.125 3.125 0 004.523 2.795l3.556-1.778a2.345 2.345 0 001.296-2.097v0z" stroke="#F97316" stroke-linecap="round" stroke-linejoin="round"/><path d="M9.375 11.459v2.083" stroke="#F97316" stroke-linecap="round" stroke-linejoin="round"/></g></symbol><symbol id="icon__play" viewBox="0 0 80 80"><g fill="none"><rect width="80" height="80" rx="40" fill="#fff"/><path d="M58.462 40L30.768 55.988V24.012L58.462 40z" fill="#7E22CE"/></g></symbol><symbol id="icon__socials--vk" viewBox="0 0 25 25"><g fill="none"><path fill-rule="evenodd" clip-rule="evenodd" d="M22.342 7.206c.153-.482 0-.832-.678-.832h-2.253c-.57 0-.832.307-.985.635 0 0-1.16 2.8-2.778 4.616-.525.525-.766.7-1.05.7-.153 0-.35-.175-.35-.656V7.184c0-.569-.175-.831-.657-.831h-3.544c-.35 0-.568.262-.568.525 0 .547.809.678.897 2.21v3.325c0 .721-.132.853-.416.853-.766 0-2.625-2.822-3.741-6.038-.219-.635-.438-.875-1.007-.875H2.937c-.656 0-.765.306-.765.634 0 .59.765 3.566 3.565 7.504 1.86 2.69 4.507 4.135 6.892 4.135 1.444 0 1.619-.329 1.619-.875v-2.035c0-.656.131-.766.59-.766.329 0 .92.175 2.254 1.466 1.531 1.531 1.794 2.232 2.647 2.232h2.253c.657 0 .963-.329.788-.963-.197-.634-.94-1.553-1.904-2.647-.524-.613-1.312-1.29-1.553-1.62-.328-.437-.24-.612 0-1.005-.022 0 2.735-3.895 3.02-5.207z" fill="#fff"/></g></symbol><symbol id="icon__trash" viewBox="0 0 25 25"><g fill="none"><path d="M19.27 7.292v12.5c0 1.15-.932 2.083-2.082 2.083H7.813a2.083 2.083 0 01-2.084-2.083v-12.5m15.104 0H4.167m4.687 0V6.77A3.646 3.646 0 0112.5 3.125v0a3.646 3.646 0 013.646 3.646v.52m-5.729 9.376V12.5m4.166 4.167V12.5" stroke="currentColor" stroke-linecap="round" stroke-linejoin="round"/></g></symbol><symbol id="icon__user" viewBox="0 0 40 40"><g fill="none"><circle cx="20" cy="20" r="15.006" stroke="currentColor" stroke-linecap="round" stroke-linejoin="round"/><path clip-rule="evenodd" d="M26.02 27.503H13.98a.929.929 0 01-.928-.927v-.752a3.89 3.89 0 013.88-3.878h6.136a3.89 3.89 0 013.88 3.878v.752a.929.929 0 01-.927.927zM20 18.333a3.752 3.752 0 110-7.504 3.752 3.752 0 010 7.504v0z" stroke="currentColor" stroke-linecap="round" stroke-linejoin="round"/></g></symbol><symbol id="icon__wallet" viewBox="0 0 30 30"><g fill="none"><path d="M4.375 8.125h5m-2.5-2.5v5M25 18.125v3.75C25 23.601 23.6 25 21.875 25h-15a3.125 3.125 0 01-3.125-3.125V15" stroke="#F97316" stroke-linecap="round" stroke-linejoin="round"/><path clip-rule="evenodd" d="M23.125 11.875H25c.69 0 1.25.56 1.25 1.25v3.75c0 .69-.56 1.25-1.25 1.25h-1.875A3.125 3.125 0 0120 15v0c0-1.726 1.4-3.125 3.125-3.125v0z" stroke="#F97316" stroke-linecap="round" stroke-linejoin="round"/><path d="M25 11.875v-3.75C25 6.399 23.6 5 21.875 5H13.75" stroke="#F97316" stroke-linecap="round" stroke-linejoin="round"/></g></symbol><symbol id="icon__zoom" viewBox="0 0 25 25"><g fill="none"><path d="M14.784 5.814a6.22 6.22 0 11-8.796 8.797 6.22 6.22 0 018.796-8.797m-.044 8.832l6.093 6.177m-12.5-10.406H12.5M10.417 12.5V8.333" stroke="#fff" stroke-linecap="round" stroke-linejoin="round"/></g></symbol><symbol id="logo__cheburek--mini" viewBox="0 0 75 65"><g fill="none"><path fill-rule="evenodd" clip-rule="evenodd" d="M74.887 5.218c0-1.464-.683-3.445-1.917-4.424-2.559-2.032-5.542.437-7.783 2.291-.348.288-.678.561-.986.8-2.292 1.779-4.688 4.336-6.457 6.665 0 0 .027.077 0 .113-1.213.852-2.198 2.534-3.025 3.946-.166.284-.326.556-.48.81-.319.525-.723 1.084-1.14 1.662-.784 1.087-1.613 2.236-2.009 3.338.096.557-2.387 2.313-2.932 2.269-1.06-.082-1.75 1.632-2.07 2.43l-.073.179c-.128.309-.124.745-.121 1.167.004.508.008.996-.217 1.215h-.113c-1.172-.958-3.061-1.175-4.895-1.385-1.116-.128-2.212-.254-3.113-.544-2.377-.765-6.11-1.212-8.684-1.247-.832-.013-1.664-.03-2.497-.045-1.76-.035-3.522-.069-5.285-.069-1.597 0-3.274.204-4.85.454-.481.077-.971.15-1.465.224-2.562.381-5.23.778-7.444 1.861a13.286 13.286 0 00-6.317 6.536c-.649 1.46-.901 3.262-.901 5.218 0 1.098.022 2.139.225 3.177 1.67 8.548 11.071 15.288 18.61 18.263 0 0 .057-.009.112 0 1.355 1.165 3.362 1.653 5.299 2.123.904.22 1.793.436 2.594.715 3.066 1.074 6.73 1.862 9.814 1.927a68.89 68.89 0 001.88.004c.313-.002.626-.004.94-.004 7.498 0 15.13-1.64 21.54-5.672.274-.137.52-.28.79-.454 2.134-1.384 3.932-3.424 5.301-5.559.064-.1.13-.197.197-.295.086-.126.172-.252.254-.385 0 0-.018-.064 0-.114 5.528-8.944-4.94-17.006-12.067-20.532 1.28-.395 2.209-1.368 2.932-2.496.058-.09.123-.185.19-.283.254-.369.539-.783.6-1.191.022-.17.014-.354.007-.534a5.82 5.82 0 01-.008-.26l-.002-.233c-.008-.443-.014-.855.228-1.242.049-.042.1-.097.152-.154.06-.065.122-.133.186-.186 2.946-2.46 5.974-5.458 8.543-8.31l.336-.372c2.521-2.79 5.646-6.25 6.121-9.922.041-.317.027-.657.014-.99-.007-.164-.014-.327-.014-.485zm-8.06-.574c-.788 1.05-2.622 3.487-1.61 4.516.952.97 2.7-.955 3.648-1.997.136-.15.256-.283.355-.385.781-.812 2.536-4.382-.085-4.055-.678.169-1.657 1.14-2.142 1.701l-.165.22z" fill="#1E1E1E"/><path fill-rule="evenodd" clip-rule="evenodd" d="M63.383 4.764a66.162 66.162 0 001.918-1.701c2.103-1.67 5.73-4.46 8.12-1.702.818 1.106 1.214 2.474 1.24 3.857l.01.323c.011.384.023.778-.01 1.152-.218 2.504-2.302 5.536-3.834 7.487-.268.27-.502.547-.748.838l-.154.183a21.1 21.1 0 01-.502.56c-.175.19-.35.381-.513.574-.147.148-.3.293-.453.44-.31.295-.623.594-.9.921a32.724 32.724 0 01-1.692 1.815c-.154.155-.312.318-.473.483-.328.339-.665.686-.993.992-.487.453-.985.898-1.483 1.344-.872.78-1.747 1.564-2.578 2.4a6.285 6.285 0 01-.346.313c-.247.212-.501.43-.669.707a1.48 1.48 0 00-.063.126c-.016.035-.032.07-.05.101-.192.352-.127.803-.062 1.247.034.235.067.467.063.682-.188.51-.512.976-.83 1.433-.063.09-.125.179-.185.268a.8.8 0 00-.06.118.967.967 0 01-.053.11l-.05.052c-.35.38-.804.869-1.19 1.195-.193.159-.423.26-.651.361-.31.137-.615.273-.816.546 4.387 2.091 6.593 3.983 10.342 7.521 3.96 3.739 3.67 9.575 1.162 13.92-5.11 8.839-18.114 11.23-27.293 11.23-3.216 0-6.185-.59-9.238-1.195-1.078-.214-2.166-.43-3.279-.623-3.892-.675-9.346-2.983-12.747-5.102-.93-.731-1.93-1.366-2.932-2.002-.879-.558-1.759-1.117-2.594-1.742-1.104-.968-2.152-2.07-3.19-3.162-.517-.542-1.03-1.082-1.547-1.602C1.22 45.888.044 41.195.338 36.867c.16-2.343 1.348-4.626 2.707-6.466.34-.391.845-.9 1.24-1.247 3.216-2.402 8.046-3.686 11.956-4.198 3.454-.457 6.863-.455 10.336-.454h.603c.384 0 .757.034 1.133.068.185.017.371.033.56.046 3.1.212 6.186.934 9.26 1.654 2.634.617 5.26 1.232 7.882 1.522-.212-.495-.139-1.033-.066-1.562.043-.318.086-.633.066-.933-.003-.057 0-.114 0-.114.313-.367.51-.698.69-1.004.33-.555.61-1.028 1.453-1.491.056.004.113 0 .113 0 1.605.153 2.051-.645 2.706-1.929l.155-.203c.196-.256.387-.505.522-.818.027-.061.053-.112.082-.167l.03-.06c.285-.357.563-.71.79-1.134 1.453-2.708 3.308-5.239 5.188-7.714.028-.036 0-.113 0-.113.447-.314.785-.77 1.117-1.22.152-.204.303-.408.462-.595l3.384-3.404c.109-.093.224-.189.339-.284.115-.095.23-.19.337-.283zm3.445-.12c-.79 1.05-2.623 3.487-1.612 4.516.953.97 2.702-.955 3.649-1.997.136-.15.256-.283.355-.385.781-.812 2.536-4.382-.085-4.056-.677.17-1.657 1.142-2.142 1.702l-.165.22z" fill="#010000"/><path fill-rule="evenodd" clip-rule="evenodd" d="M65.866 3.914c.188-.174.374-.347.563-.51 1.62-1.074 5.596-3.67 5.526-.568-.063 2.796-1.043 4.086-2.453 5.944a126.369 126.369 0 00-.599.793c-.152.2-.31.408-.444.636-.074.1-.152.197-.231.295a5.177 5.177 0 00-.446.613c-.065.11-.12.232-.175.352-.053.116-.105.23-.163.329-.737.858-1.479 1.9-2.143 2.835-.346.416-.822.807-1.308 1.207-.732.602-1.486 1.222-1.85 1.97-.023.045 0 .113 0 .113a.893.893 0 01-.2.14 1.4 1.4 0 00-.138.087c-1.28.973-4.153 3.446-4.85 4.878 0 0 .026.095 0 .113-1.722 1.208-1.077 2.747-.49 4.147.631 1.504 1.196 2.85-1.314 3.454-.09-4.06-5.094-6.186-8.234-3.857l.012-.222c.019-.348.036-.685.101-1.026.055-.156.1-.315.143-.472.153-.55.298-1.07.872-1.343.3-.098.862-.195 1.128-.227 1.688-.065 2.54-1.72 3.361-3.316.374-.727.742-1.44 1.179-1.987.534-.667.998-1.427 1.47-2.2.762-1.248 1.544-2.529 2.674-3.5.79-.68 1.667-1.756 2.143-2.496.64-.644 1.219-1.379 1.798-2.114.897-1.14 1.797-2.284 2.939-3.104.4-.286.766-.627 1.129-.964zm.962.73c-.79 1.05-2.623 3.487-1.612 4.516.954.97 2.702-.955 3.649-1.997.137-.15.257-.283.355-.385.782-.812 2.537-4.382-.085-4.056-.677.17-1.657 1.142-2.142 1.702l-.165.22z" fill="#F68B21"/><path d="M66.993 4.424c-.649.878-2.867 3.627-1.777 4.736 1.09 1.11 3.222-1.57 4.004-2.382.781-.812 2.536-4.382-.085-4.056-.677.17-1.657 1.142-2.142 1.702zm2.594-.907c1.183.817-2.597 5.437-3.575 4.838-.978-.6 2.588-5.521 3.575-4.838z" fill="#010000"/><path d="M59.774 23.822c1.965-2.312 2.88-5.543 6.1-6.797 3.22-1.255 3.929-4.87 6.194-6.816 1.458-2.013 2.32-5.218.902-7.487-.185 2.579-.756 3.627-2.282 5.873-1.526 2.246-1.269 2.078-3.27 4.764-2.002 2.687-5.503 5.929-7.672 8.506-2.169 2.579-3.345 1.824-2.654 4.768.692 2.943 1.721-1.68 2.682-2.811z" fill="#C36306"/><path d="M59.774 23.822c.156-.156.39-.304.564-.454 1.72-1.728 3.582-3.262 5.301-4.991.864-1.016 1.842-1.932 2.707-2.95.474-.557.982-1.061 1.466-1.588.906-1.153 1.572-2.37 2.256-3.63-2.265 1.947-2.973 5.561-6.194 6.816-3.22 1.255-4.135 4.485-6.1 6.797z" fill="#AB5706"/><path d="M62.143 17.81c1.066-.75 2.398-2.106 3.158-3.176-.867 1.04-2.553 1.933-3.158 3.176z" fill="#81490F"/><path d="M61.805 18.15c-1.577 1.69-3.126 3.362-4.85 4.878 0 0 .026.095 0 .113 1.319-.142 4.486-4.083 5.188-5.218-.072.08-.245.155-.338.227z" fill="#552F08"/><path d="M56.955 23.028c1.724-1.515 3.273-3.189 4.85-4.878-1.28.973-4.153 3.446-4.85 4.878z" fill="#B36517"/><path d="M60.338 23.368c1.776-1.525 3.735-3.146 5.301-4.991-1.719 1.729-3.582 3.262-5.3 4.991z" fill="#503214"/><path d="M49.173 57.4c5.259 1.022 9.517-2.085 14.432-3.52 4.917-1.434 5.848-8.725 2.589-12.126-3.26-3.402-5.494-7.217-10.17-8.359-4.675-1.141-8.537-3.397-13.046-5.27-4.51-1.874-10.988-2.027-15.886-2.626-4.898-.6-12.295.23-16.578 1.525-4.282 1.296-9.153 4.692-9.023 9.251.13 4.558 5.015 8.103 7.983 10.575-4.466-6.683 2.292-12.678 9.24-12.713 6.947-.035 16.383-1.45 22.99 1.054 6.607 2.503 10.416 3.865 15.505 9.475 5.088 5.612-1.612 12.232-8.036 12.734z" fill="#2D2D2D"/><path fill-rule="evenodd" clip-rule="evenodd" d="M34.286 26.533a3.08 3.08 0 00-.508 1.134c-.09.784-.221 1.559-.395 2.326.005 1.01.005 2.012 0 3.006-.129.187-.28.357-.45.51-6.285.13-12.776-.049-18.723 1.135a.411.411 0 00.226-.227 26.362 26.362 0 00-4.398-6.693l-.339-.113c2.881-1.577 6.277-1.643 9.474-2.042A69.343 69.343 0 0130 25.682c1.229.617 2.938.6 4.286.851zM60 36.062c2.805 1.625 5.06 4.265 6.767 7.147a.562.562 0 01-.057.34.666.666 0 00-.45-.227c-2.845.255-5.4 1.314-7.67 3.176l-.113.34c-1.39-1.74-2.696-3.862-4.342-5.274 2.138-1.356 4.037-3 5.696-4.935.088-.22.032-.39-.17-.51a.553.553 0 01.339-.057z" fill="#323232"/><path d="M50.752 26.885c-3.108-.508-4.15 2.168-2.227 3.034 1.923.867 4.69 2.914 5.836 1.503 1.147-1.41-2.489-4.354-3.609-4.537z" fill="#A5A5A5"/><path d="M32.932 34.372c-7.071-.689-15.673-1.16-21.57 2.807-5.895 3.968-.817 12 4.966 13.894 5.782 1.893 11.748 5.087 18.634 5.76 6.886.673 13.817 1.242 20.18-2.619 6.361-3.86 1.78-11.015-3.689-13.968-5.467-2.956-12.092-5.248-18.52-5.874z" fill="#454545"/><path d="M9.587 53.316c-.056-.051-.085-.161-.113-.227-3.587-3.867-7.906-7.18-8.12-12.819-.031-.213-.284-1.447 0-1.36.249.075.373.812.563 1.02.044.048.193.073.226.114-.457-.387-.324-1.345-1.015-1.362.103 5.654 3.584 11.405 8.459 14.634z" fill="#78481B"/><path d="M1.354 40.27c-.015-.398.121-.985 0-1.36-.284-.087-.03 1.147 0 1.36z" fill="#D07721"/><path d="M1.353 40.27c.214 5.64 4.534 8.952 8.12 12.819-1.002-2.324-3.005-3.552-4.652-5.644-1.646-2.091-2.185-4.995-2.904-7.515-.19-.209-.315-.945-.564-1.02.122.375-.014.962 0 1.36z" fill="#FBF5EF"/><path d="M9.474 53.089c.028.066.057.176.113.227.833.551 1.62 1.188 2.48 1.701.918.216 1.946-1.938 2.708-2.382-2.497-1.962-6.076-3.365-7.67-6.125-.534-.494-1.126-1.012-1.579-1.589-1.203-1.532-2.473-3.181-3.383-4.877-.033-.041-.182-.066-.226-.114.719 2.52 1.258 5.424 2.905 7.515 1.646 2.092 3.65 3.32 4.652 5.644z" fill="#C76405"/><path d="M12.068 55.017c14.958 10.045 39.23 13.38 52.782-.68-.677.297-1.314.661-2.03.907-.058.04-.08.173-.113.227-1.556 2.57-4.995 3.23-7.522 4.573-2.527 1.34-6.893 1.56-9.734 2.347.463-1.3 1.28-2.428 2.143-3.517-.28-.084-.882.206-.902-.227h-1.24a21.97 21.97 0 01-2.03-.113c-13.516 0-24.902-4.897-35.978-11.798-.106-.065-.243-.14-.339-.226 1.594 2.76 5.173 4.163 7.67 6.125-.762.444-1.79 2.598-2.707 2.382z" fill="#AA5502"/><path d="M58.195 57.173c1.284-.177 2.901-.894 4.06-1.475.07-.034.396-.181.452-.227.032-.054.055-.187.112-.227-1.523.525-3.206 1.202-4.624 1.929z" fill="#7F4D1E"/><path d="M62.256 55.698c-2.483 2.021-5.915 3.316-9.136 2.723.286-.245.873-.002 1.128-.34-2.425-.095-5.005.566-7.556.566.02.433.622.143.902.227-.863 1.09-1.68 2.217-2.143 3.517 2.841-.786 7.207-1.006 9.734-2.347 2.527-1.342 5.965-2.002 7.522-4.573-.055.046-.383.193-.451.227z" fill="#C66405"/><path d="M58.195 57.173c-.055.008-.172-.013-.225 0-.308.157-.532.27-.902.34-.271.051-.525.072-.79.113-.57.167-1.15.437-1.804.454a4.99 4.99 0 01-.226 0c-.255.34-.842.096-1.128.34 3.221.594 6.653-.7 9.136-2.722-1.16.58-2.777 1.298-4.06 1.475z" fill="#FAF1E8"/><path fill-rule="evenodd" clip-rule="evenodd" d="M62.932 6.58a.798.798 0 01.282.226c.533 1.095.57 2.191.113 3.29a46.097 46.097 0 00-4.173 3.517 215.676 215.676 0 00-5.357 6.409c-.393.227-.769.208-1.128-.057 1.893-4.846 7.222-9.14 10.263-13.386z" fill="#F89A3C"/><path d="M42.981 40.857c.054.181.106.355.169.493.446.006.49-.423.529-.801.008-.085.017-.168.03-.242.245-.032.484-.088.725-.144l.073-.017c.003.21-.06.402-.122.595-.072.221-.143.442-.117.69.242.091.45.259.66.427.171.139.344.278.537.375-.426.447-.788.197-1.17-.066-.28-.194-.57-.395-.906-.335.032.127.09.244.15.36.082.166.165.332.17.523a1.76 1.76 0 00-.263.044c-.147.032-.294.065-.456.036-.16-.507-.367-1-.574-1.492a18.43 18.43 0 01-.543-1.398c.727-.335.929.347 1.108.952zm-4.86.895c.193-.345.587-.48.958-.482a1.1 1.1 0 00.08.276c.035.093.07.185.08.286-1.218-.019-.633 1.207-.32 1.847a1.846 1.846 0 01-.798.16c-.132-.501-.327-.985-.523-1.469-.094-.232-.188-.464-.275-.699.045-.012.093-.029.144-.045.265-.089.574-.192.654.126z" fill="#4E4E4E"/><path fill-rule="evenodd" clip-rule="evenodd" d="M39.559 42.072c-.117-1.543 2.533-1.515 2.633-.08a6.855 6.855 0 01-.865.21 7.348 7.348 0 00-.811.192c.223.503.616.327 1.018.148.287-.129.579-.26.818-.148-.409 1.344-2.656 1.059-2.793-.322zm.717-.08c-.147-.582.946-.794 1.038-.24-.183.075-.377.107-.571.14a3.254 3.254 0 00-.467.1z" fill="#4E4E4E"/><path d="M36.406 41.832c.12-.023.24-.045.358-.08 2.206 2.657-2.515 3.596-2.395.481.679-.304.834.159 1.001.656.11.325.224.664.492.814 1.094.205.595-.886.294-1.545a8.898 8.898 0 01-.11-.246c.117-.036.238-.058.36-.08z" fill="#4E4E4E"/><path fill-rule="evenodd" clip-rule="evenodd" d="M31.212 42.108c.142-.033.285-.066.444-.035.003.175.063.335.124.495.047.126.095.253.115.388 2.123-1.98 3.79 2.743.718 1.847.045.26-.152.289-.352.318-.107.016-.214.032-.286.083-.406-.892-.716-1.834-1.025-2.77l-.093-.28c.124.007.24-.02.355-.047zm1.185 1.33c.13-.138.37-.394.695-.322.36.08.568.752.48.911-.106.19-.478.196-.799.098-.375-.116-.68-.373-.413-.647l.037-.04z" fill="#4E4E4E"/><path d="M25.408 45.264c-.397-.874-.806-1.776.101-1.987.1.146.15.318.2.487.05.172.1.342.2.477 1.243-1.287 2.41.41 2.554 1.686-.695.371-.85-.094-1.024-.614-.1-.304-.208-.627-.433-.812-1.267-.437-.743 1.198-.46 1.827a1.748 1.748 0 00-.426.087 2.564 2.564 0 01-.292.074c-.017-.337-.217-.778-.42-1.225zm-.777-.702c-.488-1.712-4.012-.536-3.03 1.282.384 1.645 3.646 1.462 3.43-.319-.1.017-.197.045-.292.073-.14.041-.279.082-.427.088-.188 1.134-2.115.69-2.048-.427.06-1.035.85-.899 1.586-.772.283.049.559.096.781.075z" fill="#4E4E4E"/><path fill-rule="evenodd" clip-rule="evenodd" d="M31.097 44.32c-.03-1.51-2.768-1.48-2.697.063.019 1.45 2.607 1.738 2.777.259-.214-.004-.452.101-.69.207-.44.195-.879.39-1.146-.127.283-.086.573-.141.864-.196.3-.057.6-.114.892-.205zm-.878-.24c-.105-.578-1.038-.339-1.118.16.229.058.487-.01.74-.076.129-.034.256-.067.378-.084zm8.701 2.007c1.96-2.111 3.636 2.803.638 1.927l.006.012c.276.565.656 1.34-.325 1.273a35.753 35.753 0 01-.88-2.232 76.04 76.04 0 00-.398-1.06l.092-.014c.308-.05.594-.095.866.094zm.284.522c.102-.136.474-.482.833-.361.36.12.517.885.36 1.017-.152.126-.478.091-.76-.024-.337-.14-.61-.396-.433-.632z" fill="#4E4E4E"/><path d="M32.055 46.468c.08-.019.16-.038.24-.06.025.169.091.324.158.48.067.156.134.313.16.484 1.325-1.228 2.504.484 2.555 1.766-.091.039-.19.052-.288.065a.907.907 0 00-.35.096c-.097-.161-.172-.383-.249-.613-.216-.644-.454-1.352-1.244-.968-.214.27-.066.667.07 1.035.191.511.36.967-.494.947-.222-.52-.403-1.054-.584-1.587a23.635 23.635 0 00-.533-1.464c.178-.092.368-.136.559-.181zm-.799 1.145c-.492-1.09-2.525-.881-2.793.24.075.945.797.964 1.512.982.421.01.84.022 1.122.223-.255.612-.73.5-1.22.383-.357-.084-.722-.17-1.015.018.442 1.085 2.398.964 2.927-.026.215-1.128-.731-1.177-1.607-1.222-.342-.018-.675-.035-.921-.117.08-.683.554-.58 1.055-.47.34.075.691.152.94-.011z" fill="#4E4E4E"/><path fill-rule="evenodd" clip-rule="evenodd" d="M37.004 46.328c-1.837-.572-2.527 2.082-.719 2.489 1.817.485 2.43-1.984.719-2.489zm-.24.562c-.372-.075-.602.222-.719.372l-.023.03c-.236.296.116.576.503.684.331.092.69.058.726-.203.025-.178-.088-.803-.487-.883z" fill="#4E4E4E"/></g></symbol><symbol id="logo__cheburek" viewBox="0 0 165 65"><g fill="none"><path d="M95.246 36.627c.208 0 .312.075.312.226v8.723l.425.029a.65.65 0 00.254-.085.652.652 0 00.255.084l.17-.084.17.084c.378-.056.69-.084.935-.084h.085c.094 0 .141-.19.141-.567l-.226-7.901c.075-.17.293-.255.651-.255h2.776c.113.019.17.075.17.17.056 6.06.084 9.818.084 11.271l.085.595c0 .057-.028.085-.085.085.057.49.114 3.238.17 8.241l.085.17a.655.655 0 00-.085.34v1.104c0 .114-.056.17-.17.17h-2.01l-.595.085v-.085l-.17.085h-.51c-.075 0-.16-.113-.255-.34 0-.302.029-.566.085-.793a577.458 577.458 0 01-.085-6.457v-2.294l-.396-.084c-.264 0-.887.028-1.87.084v2.634l.086.482a.753.753 0 00-.085.34.652.652 0 01.085.255c0 .056-.028.085-.085.085l.085.424-.057 5.438c-.056.17-.217.255-.481.255h-.085c-.604 0-1.482-.02-2.634-.057-.113-.189-.17-.359-.17-.51v-.34c0-.17.028-.255.085-.255l-.085-.396v-8.298l-.085-3.596s-.085-7.08-.085-7.817c0-.094-.019-.406-.056-.934l.113-.085 1.444-.085c.453 0 .991-.02 1.614-.057z" fill="#000"/><path fill-rule="evenodd" clip-rule="evenodd" d="M121.884 37.816c-.037-.755-.472-1.132-1.302-1.132a64.986 64.986 0 01-2.209.056h-.992v.142h-.085v-.057h-4.191c-.132 0-.227.076-.283.227.038.226.056.472.056.736v.453l.029.34c-.019 0-.029.01-.029.028a.623.623 0 01.029.199v2.435l.056.085h-.056l.056.227v2.803l.029.085h-.029l.029.227-.029.34c.019 0 .029.01.029.028h-.029v.623h-.388c-.132 0-.198.104-.198.312v1.19c0 .452-.01 1.047-.029 1.783.019.076.085.123.199.142.144 0 .299.028.445.056l.056.567v6.032l.057.113c-.038 0-.057.01-.057.029v.198l.057.283a.275.275 0 00-.057.142c0 .15.019.377.057.68a.347.347 0 01-.057.198c.038.17.057.311.057.424v1.077c.019.075.123.15.312.226.169-.038.311-.056.424-.056h.793l.227-.029c0 .02.019.029.057.029l.226-.029.198.029a.47.47 0 00.142-.029l.085.029a.632.632 0 01.198-.029h.651a.423.423 0 01.312-.113v-3.483l-.028-.482c.019 0 .028-.01.028-.028a.625.625 0 01-.028-.198v-.199c0-.566.009-.934.028-1.104a25.633 25.633 0 01-.028-1.274v-1.728l-.057-.085c.038 0 .057-.019.057-.057v-1.16h.283c2.738 0 4.106-.076 4.106-.227.586-.17.878-.765.878-1.785 0-.113-.019-.254-.056-.424.037-.114.056-.217.056-.312 0-.113-.019-.255-.056-.425l.056-.113-.056-.255v-4.078l-.029-.226c.019 0 .029-.01.029-.029l-.029-.113c.019 0 .029-.01.029-.028l-.029-.114h.029l-.029-.453v-2.719zm-5.324 2.86v-.764h1.473c.132 0 .198.066.198.198 0 1.567.028 3.304.085 5.211 0 .246-.104.369-.312.369h-1.274l-.085-.029a90.004 90.004 0 01-.057-2.747.46.46 0 00-.028-.142h.028a124.04 124.04 0 01-.028-2.095zm-12.32-3.907h-.255c-.567 0-.991.207-1.275.623-.226.358-.339 1.113-.339 2.265v.425l.056.453c-.038 0-.056.066-.056.198 0 .02.018.067.056.142h-.056l.056.538v.34a.31.31 0 01-.056.17.354.354 0 01.056.198v1.105c0 .264.01.566.029.906l-.029.085.085 2.634-.056.198c.037.396.075 1.236.113 2.52l-.057.085a.347.347 0 01.057.198V51.1c0 .377.009.859.028 1.444a.46.46 0 00-.028.142l.085 2.407c-.038 0-.057.028-.057.085.038 0 .057.019.057.056l-.057.085a.347.347 0 01.057.199v.311l-.057.255c.038 0 .057.01.057.028l-.057.425c.038.264.057.416.057.453l-.057.199c0 .377.142.792.425 1.246.321.472.991.708 2.011.708h2.322l.085-.057v.057l.453-.057h1.643c.623 0 1.114-.208 1.472-.623.378-.302.567-.83.567-1.586l-.057-.935c.038-.264.057-.481.057-.651V50.25l-.057-.085c.038 0 .057-.019.057-.057v-.255l-.057-.113c.038 0 .057-.01.057-.028v-1.133l-.057-.085h.057a280.71 280.71 0 01-.085-5.806l-.057-.764c.038 0 .057-.01.057-.029a.347.347 0 01-.057-.198V39.29c0-1.095-.104-1.642-.311-1.642v-.312c-.265-.378-.642-.566-1.133-.566h-2.549v.084h-.057l-.141-.084h-2.861l-.113.056c0-.038-.009-.056-.028-.056zm1.897 3.313h1.303l.227-.057c0 .038.018.057.056.057l.085-.057c.189 0 .283.104.283.312v.255c-.037 0-.056.01-.056.028a.355.355 0 01.056.198v.595l-.056.227c.037 0 .056.018.056.056a.28.28 0 01-.056.142l.056.085c.057 6.702.085 10.771.085 12.206l.057.085h-.057l.057.226v.85c0 .245-.123.368-.368.368h-1.388c-.245 0-.378-.123-.396-.368v-.765l-.029-.085h.029a.467.467 0 00-.029-.141l.029-.085c0-.076-.01-.198-.029-.368l.029-.114a.47.47 0 01-.029-.113c0-.075.01-.142.029-.198a.623.623 0 01-.029-.198v-3.427l-.056-.227c.037 0 .056-.019.056-.056a.28.28 0 00-.056-.142h.056c0-.019-.019-.142-.056-.368 0-.113.018-.189.056-.227l-.056-.113c0-1.34-.019-4.106-.057-8.298 0-.189.066-.283.198-.283z" fill="#000"/><path d="M84.795 36.825l-.227-.056c0 .037-.047.056-.141.056h-.737c-1.114.057-1.68.529-1.699 1.416.057 1.888.085 3.39.085 4.503l-.028.34c.019 0 .028.01.028.028-.019.321-.028.567-.028.737 0 .453.293 1.104.878 1.954 2.077 2.888 3.19 4.408 3.342 4.56.415.679.783 1.198 1.104 1.557.038.415.057.727.057.934v2.351c0 .302-.076.472-.227.51h-1.444c-.302-.038-.453-.151-.453-.34l.056-.963c-.037 0-.056-.019-.056-.056l.056-.086a.305.305 0 01-.056-.17v-.849c0-.227-.057-.359-.17-.396h-.991l-.227-.057c0 .038-.01.056-.028.056a6.798 6.798 0 00-.737-.056h-.736c-.17.019-.264.132-.283.34a179.8 179.8 0 01.056 3.936v.567c0 .34.01.51.029.51 0 .585.358.924 1.076 1.019a222.89 222.89 0 013.908-.057.275.275 0 00.142-.056v.056l.311-.056h.878l.227.056c.585 0 1.104-.16 1.557-.481.34-.283.51-.661.51-1.133v-5.154c0-.151-.01-.387-.028-.708.019 0 .028-.01.028-.029-.019 0-.028-.141-.028-.424-.038-.284-1.18-1.907-3.427-4.871-.906-1.322-1.605-2.304-2.096-2.946V40.45c0-.189.095-.283.284-.283h.85l.084-.028v.028c.038 0 .085-.01.142-.028.038 0 .085.01.141.028.02 0 .085-.01.199-.028l.226.028c0-.019.01-.028.029-.028.132 0 .198.113.198.34v1.982c0 .189.104.283.311.283h1.105l.113-.028c0 .019.01.028.028.028h.142l.283-.028a.466.466 0 00.142.028l.085-.028v.028l.226-.028h.397c.207 0 .32-.198.34-.595v-.566l-.029-.085c.02 0 .029-.02.029-.057v-3.54a1.22 1.22 0 00-.227-.595 1.37 1.37 0 00-1.105-.51h-2.35l-.085.057v-.056l-.453.056h-.142a.35.35 0 01-.198-.056.305.305 0 01-.17.056h-1.076z" fill="#000"/><path d="M95.063 10.627c.207 0 .311.075.311.226v8.723l.425.029a.652.652 0 00.255-.085.65.65 0 00.255.085l.17-.085.17.085c.377-.057.689-.085.934-.085h.085c.095 0 .142-.19.142-.567l-.227-7.901c.076-.17.293-.255.652-.255h2.775c.113.019.17.075.17.17.057 6.06.085 9.818.085 11.271l.085.595c0 .057-.028.085-.085.085.057.49.113 3.238.17 8.241l.085.17a.645.645 0 00-.085.34v1.104c0 .114-.057.17-.17.17h-2.01l-.596.085v-.085l-.17.085h-.51c-.075 0-.16-.113-.254-.34 0-.302.028-.566.085-.793a576.375 576.375 0 01-.085-6.456v-2.294l-.397-.085c-.264 0-.887.028-1.869.085v2.633l.085.482a.753.753 0 00-.085.34.652.652 0 01.085.255c0 .056-.028.084-.085.084l.085.425-.056 5.438c-.057.17-.218.255-.482.255h-.085c-.604 0-1.482-.02-2.634-.057-.113-.189-.17-.359-.17-.51v-.34c0-.17.029-.255.085-.255l-.085-.396v-8.298l-.085-3.596s-.084-7.08-.084-7.817c0-.094-.02-.406-.057-.934l.113-.085 1.444-.085c.454 0 .992-.02 1.615-.057zm11.584.113a.345.345 0 01-.198-.056.35.35 0 01-.199.056h-3.087c-.226 0-.358.142-.396.425.094.378.141 1.501.141 3.37v1.53c0 .453.019 1.321.057 2.605l-.057.736v.199c-.316.163-.345.212-.383.279a.474.474 0 01-.075.101c-.139.146-.226 2.583 0 2.69.226.106.458.3.458.3.095 0 .142.132.142.396.038 3.115.057 5.032.057 5.75a.28.28 0 00.056.14h-.056c0 .133.019.227.056.284a.31.31 0 01-.056.17c.037.434.056.802.056 1.104v2.096l.085.142c.359-.038.623-.057.793-.057h4.078l.454-.028c0 .019.047.028.141.028h.991l.085-.028c0 .019.019.028.057.028h.878c.113-.075.17-.132.17-.17v-.142c0-.245-.01-.538-.029-.878l.029-.084-.029-.284v-1.02l.029-.566a.811.811 0 00-.368-.085h-3.71c-.057-1.302-.104-3.568-.142-6.796h1.671l.227-.029c0 .02.018.029.056.029a.63.63 0 01.198-.029h1.275c.359 0 .566-.075.623-.226v-1.275l-.057-.085h.057l-.057-.226v-1.388l-.085-.141c-1.359.018-2.398.028-3.115.028h-.227l-.566.056c0-.037-.028-.056-.085-.056a405.037 405.037 0 01-.057-4.9c0-.17-.009-.405-.028-.708l.085-.056h1.813l.311-.029c0 .02.066.029.198.029h.369l.085-.029c0 .02.018.029.056.029h.425c.151 0 .378-.01.68-.029 0 .02.047.048.141.085.132 0 .198-.047.198-.141v-1.331c0-.284-.018-.595-.056-.935.038-.094.056-.33.056-.708 0-.075-.037-.123-.113-.141h-.311c-.189 0-.425-.01-.708-.029a.862.862 0 00-.142.029 12.283 12.283 0 00-.736-.029h-2.209zm40.934 0a.348.348 0 01-.198-.056.35.35 0 01-.198.056h-3.087c-.227 0-.359.142-.397.425.095.378.142 1.501.142 3.37v1.53c0 .453.019 1.321.056 2.605l-.056.736v.199h-.559c-.308 0-.223 1.094-.184 1.593.008.104.014.183.014.219.059.088.053.335.045.607-.012.442-.026.95.239.95h.445c.094 0 .141.133.141.397.038 3.115.057 5.032.057 5.75a.27.27 0 00.057.14h-.057c0 .133.019.227.057.284a.303.303 0 01-.057.17c.038.434.057.802.057 1.104v2.096l.085.142c.358-.038.623-.057.793-.057h4.078l.453-.028c0 .019.047.028.141.028h.992l.085-.028c0 .019.018.028.056.028h.878c.113-.075.17-.132.17-.17v-.142c0-.245-.009-.538-.028-.878l.028-.084-.028-.284v-1.02l.028-.566a.811.811 0 00-.368-.085h-3.71c-.057-1.302-.104-3.568-.142-6.796h1.671l.227-.029c0 .02.019.029.056.029a.631.631 0 01.199-.029h1.274c.359 0 .567-.075.623-.226v-1.275l-.056-.085h.056l-.056-.226v-1.388l-.085-.141c-1.36.018-2.398.028-3.116.028h-.226l-.567.056c0-.037-.028-.056-.085-.056a419.99 419.99 0 01-.056-4.9c0-.17-.01-.405-.029-.708l.085-.056h1.813l.311-.029c0 .02.066.029.199.029h.368l.085-.029c0 .02.019.029.056.029h.425c.151 0 .378-.01.68-.029 0 .02.047.048.142.085.132 0 .198-.047.198-.141v-1.331a8.46 8.46 0 00-.057-.935c.038-.094.057-.33.057-.708 0-.075-.038-.123-.114-.141h-.311c-.189 0-.425-.01-.708-.029a.862.862 0 00-.142.029 12.283 12.283 0 00-.736-.029h-2.209zm12.122.17c-.037-.038-.16-.056-.368-.056-.056 0-.141.113-.255.34 0 .113-.774 2.737-2.322 7.872h-.028c0-.245-.019-.462-.057-.651l.057-.113-.057-.085c0-1.53-.019-3.823-.057-6.882l.057-.397c-.019-.075-.104-.113-.255-.113l-3.313-.141c-.132.075-.199.15-.199.226l.029.17-.057.312c.038 0 .057.019.057.056l-.057.085c0 .661.019 2.38.057 5.155l.028.17c-.019 0-.028.018-.028.056l.028.283v4.447l.057.085h-.057c0 .075.019.141.057.198l-.057.085c.038.396.057.727.057.99v4.022l.056.538c-.037 0-.056.02-.056.057a.347.347 0 01.056.198v4.985c0 .189.085.283.255.283h.567c.623 0 1.472.019 2.549.057.188-.076.283-.142.283-.199v-2.01l.028-.227c-.019 0-.028-.019-.028-.057.019 0 .028-.009.028-.028v-.141l-.028-.085h.028a.461.461 0 00-.028-.142c0-1.548-.019-3.786-.057-6.712v-.935c.038-.056.142-.085.312-.085h.623c.17 0 .358.076.566.227.434.34.651.878.651 1.614v4.758l.029.085h-.029l.029.482v.453c0 1.718.141 2.577.425 2.577 0 .245.764.368 2.294.368.169-.019.472-.028.906-.028h.453v-.114a.507.507 0 01-.142-.141c-.207 0-.349-2.285-.425-6.854.038 0 .057-.038.057-.113-.038 0-.057-.01-.057-.028h.057l-.057-.255c0-.755-.009-1.841-.028-3.257-.019-.472-.16-.963-.425-1.473-.264-.528-.811-.878-1.642-1.048.906-3.19 1.425-4.937 1.557-5.239.491-2.077.812-3.238.963-3.483a.28.28 0 00-.056-.142c-.133 0-.859-.019-2.181-.056-.132 0-.415.018-.85.056z" fill="#FF5C00"/><path fill-rule="evenodd" clip-rule="evenodd" d="M139.729 10.797c.83 0 1.397.132 1.699.396.302.265.453.652.453 1.162v1.784l.057.538h-.057l.057.085v3.306c0 .075.009.132.028.17a.625.625 0 00-.028.198v.057l.028.226h-.028l.028.085v.142c0 .019-.01.028-.028.028l.028.113v.482l-.028.283c0 .038.009.057.028.057l-.028.226v.085c0 1.209-.35 2.03-1.048 2.464.509.132.896.472 1.161 1.02.094.358.141.67.141.934.02 1.84.035 2.96.044 3.684.009.666.013.998.013 1.251l.057.113a.275.275 0 00-.057.142c.038.057.057.095.057.113h-.057l.057.114v1.727c0 .453.094.793.283 1.02v.085c0 .038-.047.085-.142.141a29.384 29.384 0 00-1.302-.056v-.029l-.114.029-1.387-.114a.303.303 0 00-.17.057c-.359 0-.576-.52-.652-1.558l-.012-2.05v-.02a505.93 505.93 0 01-.016-3.46 3.138 3.138 0 01-.057-.283l.057-.085a6.158 6.158 0 01-.057-.736c0-.396-.151-.595-.453-.595l-1.557-.028c0 .057-.01.085-.029.085l.029.085v2.528c0 .075.018.142.056.198 0 .019-.019.028-.056.028l.056.227v2.52l.029.454h-.029l.029.085v2.152l.056.311c-.113.095-.302.142-.566.142h-.765a.35.35 0 00-.198.057.277.277 0 00-.142-.057c-.83.038-1.34.066-1.529.085-.151-.019-.255-.245-.312-.68.038-.207.057-.377.057-.51 0-.018-.019-.056-.057-.113l.057-.283v-.453c0-.113-.019-.189-.057-.227l.057-.283v-.311a.347.347 0 00-.057-.199c.038-.056.057-.094.057-.113 0-.075-.019-.415-.057-1.02 0-.037.019-.056.057-.056l-.057-.227v-4.198c0-.038.019-.057.057-.057 0-.113-.066-.17-.198-.17h-.538c-.265 0-.397-.076-.397-.227 0-.15-.009-.387-.028-.707h.028c0-.02-.009-.029-.028-.029 0-.056.009-.085.028-.085a16.488 16.488 0 01-.028-.793v-.623c0-.038.009-.056.028-.056a.46.46 0 01-.028-.142l.028-.17-.028-.085a.624.624 0 00.028-.198c0-.095.076-.151.227-.17h.793c0-.151.019-.227.056-.227l-.056-.566V17.14c0-.302-.01-.756-.029-1.36h.029l-.029-.113v-.991c0-.548-.018-1.218-.056-2.011a1.91 1.91 0 00.056-.368 5.534 5.534 0 01-.056-.906c0-.303.066-.472.198-.51h1.671l.283-.028a.738.738 0 00.227.028c.321-.019.5-.028.538-.028l.085.028.113-.028.227.028.226-.028v.028l.085-.028h2.691c.075 0 .132-.02.17-.057zm-3.144 3.512v3.39c0 .076.019.133.057.17 0 .038-.019.057-.057.057l.057.453v.227c0 .472.018 1.19.056 2.152l.227.057h.906c.113 0 .245-.019.397-.057a.345.345 0 00.198.057c0-.057.028-.085.085-.085l-.057-.113.057-.085c0-.038-.019-.057-.057-.057l.057-.227c0-.132-.019-.283-.057-.453a1.85 1.85 0 00.057-.453 2.329 2.329 0 01-.057-.255c0-.037.019-.056.057-.056l-.057-.227v-3.957a.53.53 0 00-.028-.17.531.531 0 00.028-.17v-.283h-1.756c-.075 0-.113.028-.113.085z" fill="#FF5C00"/><path d="M123.783 10.825v-.056c-1.095.037-1.643.103-1.643.198v3.483l.057.34c-.038 0-.057.01-.057.028a.347.347 0 01.057.199v6.202l.028.085c-.019 0-.028.019-.028.056l.028 6.57v.114a.73.73 0 01-.028.226l.028.284v2.549c0 .264.038.471.114.623h-.057c.076.396.151.594.227.594.283.567.764.85 1.444.85h.481c.057 0 .085-.028.085-.085.057 0 .085.028.085.085a84.122 84.122 0 012.577-.057h2.323c.453-.019.812-.075 1.076-.17.547-.415.868-.896.963-1.444v-.226a.624.624 0 00-.029-.199l.029-.085c0-1.642.019-4.012.056-7.108l.029-.17c-.019 0-.029-.047-.029-.142v-.283l.029-.226c-.019 0-.029-.02-.029-.057a.47.47 0 01.029-.142.532.532 0 01-.029-.17v-3.568a407.11 407.11 0 01-.085-3.852v-3.2l-.056-.085c.038 0 .056-.01.056-.028v-.538l.029-.312c0-.113-.359-.179-1.076-.198a.308.308 0 01-.17.057l-2.323-.057-.085.057c.019.207.029.33.029.368 0 1.36.037 2.662.113 3.908-.038 0-.057.019-.057.057a.303.303 0 01.057.17v1.132l.028.284a.735.735 0 00-.028.226v.793l.028.227c-.019 0-.028.019-.028.056.019.17.028.312.028.425v5.41l.057.226c-.038 0-.057.019-.057.057 0 .037.019.085.057.141a.275.275 0 01-.057.142c0 .038.019.085.057.142l-.057.283v.51l.057.084h-.057c.038.302.057.538.057.708v3.144c0 .208-.066.311-.198.311l-.283-.056c-.038.038-.114.056-.227.056a.406.406 0 01-.227-.056l-.283.056h-.764c-.208 0-.312-.094-.312-.283l.057-.198a2.02 2.02 0 00-.057-.425.274.274 0 00.057-.141l-.057-.085h.057a6.048 6.048 0 01-.057-.708v-.397c0-.075.019-.141.057-.198a.347.347 0 01-.057-.198v-5.183l-.028-.453c.019 0 .028-.028.028-.085-.019-.472-.028-.86-.028-1.161v-.057c0-.075.009-.141.028-.198a.531.531 0 01-.028-.17v-1.048c0-.453-.019-1.067-.057-1.84.038 0 .057-.02.057-.057-.076-.246-.114-.84-.114-1.784v-.935l-.028-.227c.019 0 .028-.018.028-.056a6.205 6.205 0 01-.028-.51v-2.322a.456.456 0 00-.113-.283.5.5 0 00-.142.056l-.453-.056-.481.056-.312-.056a1.177 1.177 0 01-.198.056l-.085-.056-.085.056z" fill="#FF5C00"/><path fill-rule="evenodd" clip-rule="evenodd" d="M113.912 10.769a.271.271 0 00.141.056c.51-.038.897-.056 1.161-.056.17 0 .387.018.652.056.037 0 .056-.019.056-.056.019 0 .057.018.114.056 1.529-.038 2.539-.056 3.03-.056.849 0 1.388.122 1.614.368.076.075.198.274.368.594v.057l-.085.142c.019.056.047.085.085.085 0 .056-.009.085-.028.085.019.283.028.443.028.481a67.88 67.88 0 00-.028 1.161c.019.869.028 1.454.028 1.756v3.03c0 .246-.009.538-.028.878 0 .925-.312 1.482-.935 1.671.189.076.34.151.453.227.51.34.765.85.765 1.529v.736c0 .076.01.142.028.199l-.028.084c.019.17.028.312.028.425.038 4.097.057 6.495.057 7.194-.038.434-.311.83-.821 1.19-.378.226-.822.339-1.331.339a1.66 1.66 0 00-.397-.057h-.481a.304.304 0 00-.17.057h-.935c-1.038 0-2.416.01-4.134.028-.189-.037-.293-.132-.312-.283 0-.019.009-.066.028-.142 0-.037-.009-.188-.028-.453 0-.264.009-.405.028-.424a33.88 33.88 0 01-.028-1.19v-4.73c0-.132-.019-.301-.057-.51 0-.075.019-.112.057-.112l-.057-.454v-1.67h-.332c-.17 0-.454-.13-.454-.318l.028-.226c0-.284-.008-1.137-.027-2.798a.305.305 0 00.17-.057c.283 0 .559-.047.559-.085-.019-2.7-.029-4.257-.029-4.673l-.056-.226h.056l-.056-.114v-2.718l-.029-.284.029-.084-.029-.284c0-.226.076-.349.227-.368.302 0 .67-.019 1.105-.056zm2.888 3.143h-.708l-.085.057c.019 1.17.029 2.048.029 2.633v2.464l.056.567a.41.41 0 00.227-.057.274.274 0 00.141.057l.482-.057h.764l-.085-5.692h-.283l-.283.028c-.019 0-.028-.01-.028-.028l-.227.028zm.538 9.063h-1.161c-.057 0-.085.028-.085.085.038 2.51.057 4.285.057 5.324l.028.113-.028.028.028.34v.963h1.586l.057-.028c0-1.322-.038-3.597-.114-6.825-.018 0-.028-.02-.028-.057l-.34.057z" fill="#FF5C00"/><path d="M85.956 10.825l-.312-.056c0 .037-.094.056-.283.056-.528 0-.963.01-1.302.029-.661 0-1.133.292-1.416.877l.028.085c-.095.02-.17.19-.227.51l-.028.34v.821c.019.17.028.482.028.935v3.653c0 .982.02 2.058.057 3.229a9.749 9.749 0 00-.057 1.02c.038 1.245.057 2.425.057 3.54 0 .075-.019.245-.057.509 0 1.095.038 2.313.114 3.653a2.03 2.03 0 00-.057.425c.038.585.057 1 .057 1.246.018.208.028.35.028.425.113.604.529.925 1.246.963L88.42 33l.227.028c.15-.019.33-.028.538-.028h.623c.094 0 .17-.019.226-.057.623-.113.944-.5.963-1.16l-.057-.086c.038-.056.076-.245.114-.566l-.057-.453.057-.198c-.038 0-.057-.01-.057-.029a.27.27 0 01.057-.141.35.35 0 01-.057-.199v-.113c0-.717-.01-1.643-.028-2.775-.02-.265-.113-.406-.283-.425h-.51a.35.35 0 01-.198-.057.304.304 0 01-.17.057h-.482l-.311-.057c0 .038-.02.057-.057.057l-.906-.057c-.208 0-.321.17-.34.51v.878c0 .396.019.878.057 1.444 0 .17-.048.255-.142.255l-1.36.057c-.113 0-.17-.085-.17-.255a30.317 30.317 0 01-.056-1.388v-.878c0-.132-.01-.302-.028-.51a.847.847 0 00.028-.141 187.347 187.347 0 01-.085-2.776l.057-.283a3.323 3.323 0 01-.057-.594v-2.55l-.028-.084c.019 0 .028-.02.028-.057v-.142c0-.34-.01-.51-.028-.51.019-.301.028-.547.028-.736v-4.899c0-.038.028-.066.085-.085l1.473-.028c.113.019.17.104.17.255h-.057l.057.283v1.614c0 .057.028.085.085.085h1.529c.32 0 .764-.01 1.33-.028.152-.057.228-.18.228-.368v-1.303l-.029-.538v-1.133a2.53 2.53 0 00-.056-.595c0-.906-.482-1.378-1.445-1.416-.019 0-.122.01-.311.029a16.12 16.12 0 00-.878-.029h-2.18z" fill="#FF5C00"/><path fill-rule="evenodd" clip-rule="evenodd" d="M74.887 5.218c0-1.464-.683-3.445-1.917-4.424-2.559-2.032-5.542.437-7.783 2.291-.348.288-.678.561-.986.8-2.292 1.779-4.688 4.336-6.457 6.665 0 0 .027.077 0 .113-1.213.852-2.198 2.534-3.025 3.946-.166.284-.326.556-.48.81-.319.525-.723 1.084-1.14 1.662-.784 1.087-1.613 2.236-2.009 3.338.096.557-2.387 2.313-2.932 2.269-1.06-.082-1.75 1.632-2.07 2.43l-.073.179c-.128.309-.124.745-.121 1.167.004.508.008.996-.217 1.215h-.113c-1.172-.958-3.061-1.175-4.895-1.385-1.116-.128-2.212-.254-3.113-.544-2.377-.765-6.11-1.212-8.684-1.247-.832-.013-1.664-.03-2.497-.045-1.76-.035-3.522-.069-5.285-.069-1.597 0-3.274.204-4.85.454-.481.077-.971.15-1.465.224-2.562.381-5.23.778-7.444 1.861a13.286 13.286 0 00-6.317 6.536c-.649 1.46-.901 3.262-.901 5.218 0 1.098.022 2.139.225 3.177 1.67 8.548 11.071 15.288 18.61 18.263 0 0 .057-.009.112 0 1.355 1.165 3.362 1.653 5.299 2.123.904.22 1.793.436 2.594.715 3.066 1.074 6.73 1.862 9.814 1.927a68.89 68.89 0 001.88.004c.313-.002.626-.004.94-.004 7.498 0 15.13-1.64 21.54-5.672.274-.137.52-.28.79-.454 2.134-1.384 3.932-3.424 5.301-5.559.064-.1.13-.197.197-.295.086-.126.172-.252.254-.385 0 0-.018-.064 0-.114 5.528-8.944-4.94-17.006-12.067-20.532 1.28-.395 2.209-1.368 2.932-2.496.058-.09.123-.185.19-.283.254-.369.539-.783.6-1.191.022-.17.014-.354.007-.534a5.82 5.82 0 01-.008-.26l-.002-.233c-.008-.443-.014-.855.228-1.242.049-.042.1-.097.152-.154.06-.065.122-.133.186-.186 2.946-2.46 5.974-5.458 8.543-8.31l.336-.372c2.521-2.79 5.646-6.25 6.121-9.922.041-.317.027-.657.014-.99-.007-.164-.014-.327-.014-.485zm-8.06-.574c-.788 1.05-2.622 3.487-1.61 4.516.952.97 2.7-.955 3.648-1.997.136-.15.256-.283.355-.385.781-.812 2.536-4.382-.085-4.055-.678.169-1.657 1.14-2.142 1.701l-.165.22z" fill="#1E1E1E"/><path fill-rule="evenodd" clip-rule="evenodd" d="M63.383 4.764a66.162 66.162 0 001.918-1.701c2.103-1.67 5.73-4.46 8.12-1.702.818 1.106 1.214 2.474 1.24 3.857l.01.323c.011.384.023.778-.01 1.152-.218 2.504-2.302 5.536-3.834 7.487-.268.27-.502.547-.748.838l-.154.183a21.1 21.1 0 01-.502.56c-.175.19-.35.381-.513.574-.147.148-.3.293-.453.44-.31.295-.623.594-.9.921a32.724 32.724 0 01-1.692 1.815c-.154.155-.312.318-.473.483-.328.339-.665.686-.993.992-.487.453-.985.898-1.483 1.344-.872.78-1.747 1.564-2.578 2.4a6.285 6.285 0 01-.346.313c-.247.212-.501.43-.669.707a1.48 1.48 0 00-.063.126c-.016.035-.032.07-.05.101-.192.352-.127.803-.062 1.247.034.235.067.467.063.682-.188.51-.512.976-.83 1.433-.063.09-.125.179-.185.268a.8.8 0 00-.06.118.967.967 0 01-.053.11l-.05.052c-.35.38-.804.869-1.19 1.195-.193.159-.423.26-.651.361-.31.137-.615.273-.816.546 4.387 2.091 6.593 3.983 10.342 7.521 3.96 3.739 3.67 9.575 1.162 13.92-5.11 8.839-18.114 11.23-27.293 11.23-3.216 0-6.185-.59-9.238-1.195-1.078-.214-2.166-.43-3.279-.623-3.892-.675-9.346-2.983-12.747-5.102-.93-.731-1.93-1.366-2.932-2.002-.879-.558-1.759-1.117-2.594-1.742-1.104-.968-2.152-2.07-3.19-3.162-.517-.542-1.03-1.082-1.547-1.602C1.22 45.888.044 41.195.338 36.867c.16-2.343 1.348-4.626 2.707-6.466.34-.391.845-.9 1.24-1.247 3.216-2.402 8.046-3.686 11.956-4.198 3.454-.457 6.863-.455 10.336-.454h.603c.384 0 .757.034 1.133.068.185.017.371.033.56.046 3.1.212 6.186.934 9.26 1.654 2.634.617 5.26 1.232 7.882 1.522-.212-.495-.139-1.033-.066-1.562.043-.318.086-.633.066-.933-.003-.057 0-.114 0-.114.313-.367.51-.698.69-1.004.33-.555.61-1.028 1.453-1.491.056.004.113 0 .113 0 1.605.153 2.051-.645 2.706-1.929l.155-.203c.196-.256.387-.505.522-.818.027-.061.053-.112.082-.167l.03-.06c.285-.357.563-.71.79-1.134 1.453-2.708 3.308-5.239 5.188-7.714.028-.036 0-.113 0-.113.447-.314.785-.77 1.117-1.22.152-.204.303-.408.462-.595l3.384-3.404c.109-.093.224-.189.339-.284.115-.095.23-.19.337-.283zm3.445-.12c-.79 1.05-2.623 3.487-1.612 4.516.953.97 2.702-.955 3.649-1.997.136-.15.256-.283.355-.385.781-.812 2.536-4.382-.085-4.056-.677.17-1.657 1.142-2.142 1.702l-.165.22z" fill="#010000"/><path fill-rule="evenodd" clip-rule="evenodd" d="M65.866 3.914c.188-.174.374-.347.563-.51 1.62-1.074 5.596-3.67 5.526-.568-.063 2.796-1.043 4.086-2.453 5.944a126.369 126.369 0 00-.599.793c-.152.2-.31.408-.444.636-.074.1-.152.197-.231.295a5.177 5.177 0 00-.446.613c-.065.11-.12.232-.175.352-.053.116-.105.23-.163.329-.737.858-1.479 1.9-2.143 2.835-.346.416-.822.807-1.308 1.207-.732.602-1.486 1.222-1.85 1.97-.023.045 0 .113 0 .113a.893.893 0 01-.2.14 1.4 1.4 0 00-.138.087c-1.28.973-4.153 3.446-4.85 4.878 0 0 .026.095 0 .113-1.722 1.208-1.077 2.747-.49 4.147.631 1.504 1.196 2.85-1.314 3.454-.09-4.06-5.094-6.186-8.234-3.857l.012-.222c.019-.348.036-.685.101-1.026.055-.156.1-.315.143-.472.153-.55.298-1.07.872-1.343.3-.098.862-.195 1.128-.227 1.688-.065 2.54-1.72 3.361-3.316.374-.727.742-1.44 1.179-1.987.534-.667.998-1.427 1.47-2.2.762-1.248 1.544-2.529 2.674-3.5.79-.68 1.667-1.756 2.143-2.496.64-.644 1.219-1.379 1.798-2.114.897-1.14 1.797-2.284 2.939-3.104.4-.286.766-.627 1.129-.964zm.962.73c-.79 1.05-2.623 3.487-1.612 4.516.954.97 2.702-.955 3.649-1.997.137-.15.257-.283.355-.385.782-.812 2.537-4.382-.085-4.056-.677.17-1.657 1.142-2.142 1.702l-.165.22z" fill="#F68B21"/><path d="M66.993 4.424c-.649.878-2.867 3.627-1.777 4.736 1.09 1.11 3.222-1.57 4.004-2.382.781-.812 2.536-4.382-.085-4.056-.677.17-1.657 1.142-2.142 1.702zm2.594-.907c1.183.817-2.597 5.437-3.575 4.838-.978-.6 2.588-5.521 3.575-4.838z" fill="#010000"/><path d="M59.774 23.822c1.965-2.312 2.88-5.543 6.1-6.797 3.22-1.255 3.929-4.87 6.194-6.816 1.458-2.013 2.32-5.218.902-7.487-.185 2.579-.756 3.627-2.282 5.873-1.526 2.246-1.269 2.078-3.27 4.764-2.002 2.687-5.503 5.929-7.672 8.506-2.169 2.579-3.345 1.824-2.654 4.768.692 2.943 1.721-1.68 2.682-2.811z" fill="#C36306"/><path d="M59.774 23.822c.156-.156.39-.304.564-.454 1.72-1.728 3.582-3.262 5.301-4.991.864-1.016 1.842-1.932 2.707-2.95.474-.557.982-1.061 1.466-1.588.906-1.153 1.572-2.37 2.256-3.63-2.265 1.947-2.973 5.561-6.194 6.816-3.22 1.255-4.135 4.485-6.1 6.797z" fill="#AB5706"/><path d="M62.143 17.81c1.066-.75 2.398-2.106 3.158-3.176-.867 1.04-2.553 1.933-3.158 3.176z" fill="#81490F"/><path d="M61.805 18.15c-1.577 1.69-3.126 3.362-4.85 4.878 0 0 .026.095 0 .113 1.319-.142 4.486-4.083 5.188-5.218-.072.08-.245.155-.338.227z" fill="#552F08"/><path d="M56.955 23.028c1.724-1.515 3.273-3.189 4.85-4.878-1.28.973-4.153 3.446-4.85 4.878z" fill="#B36517"/><path d="M60.338 23.368c1.776-1.525 3.735-3.146 5.301-4.991-1.719 1.729-3.582 3.262-5.3 4.991z" fill="#503214"/><path d="M49.173 57.4c5.259 1.022 9.517-2.085 14.432-3.52 4.917-1.434 5.848-8.725 2.589-12.126-3.26-3.402-5.494-7.217-10.17-8.359-4.675-1.141-8.537-3.397-13.046-5.27-4.51-1.874-10.988-2.027-15.886-2.626-4.898-.6-12.295.23-16.578 1.525-4.282 1.296-9.153 4.692-9.023 9.251.13 4.558 5.015 8.103 7.983 10.575-4.466-6.683 2.292-12.678 9.24-12.713 6.947-.035 16.383-1.45 22.99 1.054 6.607 2.503 10.416 3.865 15.505 9.475 5.088 5.612-1.612 12.232-8.036 12.734z" fill="#2D2D2D"/><path fill-rule="evenodd" clip-rule="evenodd" d="M34.286 26.533a3.08 3.08 0 00-.508 1.134c-.09.784-.221 1.559-.395 2.326.005 1.01.005 2.012 0 3.006-.129.187-.28.357-.45.51-6.285.13-12.776-.049-18.723 1.135a.411.411 0 00.226-.227 26.362 26.362 0 00-4.398-6.693l-.339-.113c2.881-1.577 6.277-1.643 9.474-2.042A69.343 69.343 0 0130 25.682c1.229.617 2.938.6 4.286.851zM60 36.062c2.805 1.625 5.06 4.265 6.767 7.147a.562.562 0 01-.057.34.666.666 0 00-.45-.227c-2.845.255-5.4 1.314-7.67 3.176l-.113.34c-1.39-1.74-2.696-3.862-4.342-5.274 2.138-1.356 4.037-3 5.696-4.935.088-.22.032-.39-.17-.51a.553.553 0 01.339-.057z" fill="#323232"/><path d="M50.752 26.885c-3.108-.508-4.15 2.168-2.227 3.034 1.923.867 4.69 2.914 5.836 1.503 1.147-1.41-2.489-4.354-3.609-4.537z" fill="#A5A5A5"/><path d="M32.932 34.372c-7.071-.689-15.673-1.16-21.57 2.807-5.895 3.968-.817 12 4.966 13.894 5.782 1.893 11.748 5.087 18.634 5.76 6.886.673 13.817 1.242 20.18-2.619 6.361-3.86 1.78-11.015-3.689-13.968-5.467-2.956-12.092-5.248-18.52-5.874z" fill="#454545"/><path d="M9.587 53.316c-.056-.051-.085-.161-.113-.227-3.587-3.867-7.906-7.18-8.12-12.819-.031-.213-.284-1.447 0-1.36.249.075.373.812.563 1.02.044.048.193.073.226.114-.457-.387-.324-1.345-1.015-1.362.103 5.654 3.584 11.405 8.459 14.634z" fill="#78481B"/><path d="M1.354 40.27c-.015-.398.121-.985 0-1.36-.284-.087-.03 1.147 0 1.36z" fill="#D07721"/><path d="M1.353 40.27c.214 5.64 4.534 8.952 8.12 12.819-1.002-2.324-3.005-3.552-4.652-5.644-1.646-2.091-2.185-4.995-2.904-7.515-.19-.209-.315-.945-.564-1.02.122.375-.014.962 0 1.36z" fill="#FBF5EF"/><path d="M9.474 53.089c.028.066.057.176.113.227.833.551 1.62 1.188 2.48 1.701.918.216 1.946-1.938 2.708-2.382-2.497-1.962-6.076-3.365-7.67-6.125-.534-.494-1.126-1.012-1.579-1.589-1.203-1.532-2.473-3.181-3.383-4.877-.033-.041-.182-.066-.226-.114.719 2.52 1.258 5.424 2.905 7.515 1.646 2.092 3.65 3.32 4.652 5.644z" fill="#C76405"/><path d="M12.068 55.017c14.958 10.045 39.23 13.38 52.782-.68-.677.297-1.314.661-2.03.907-.058.04-.08.173-.113.227-1.556 2.57-4.995 3.23-7.522 4.573-2.527 1.34-6.893 1.56-9.734 2.347.463-1.3 1.28-2.428 2.143-3.517-.28-.084-.882.206-.902-.227h-1.24a21.97 21.97 0 01-2.03-.113c-13.516 0-24.902-4.897-35.978-11.798-.106-.065-.243-.14-.339-.226 1.594 2.76 5.173 4.163 7.67 6.125-.762.444-1.79 2.598-2.707 2.382z" fill="#AA5502"/><path d="M58.195 57.173c1.284-.177 2.901-.894 4.06-1.475.07-.034.396-.181.452-.227.032-.054.055-.187.112-.227-1.523.525-3.206 1.202-4.624 1.929z" fill="#7F4D1E"/><path d="M62.256 55.698c-2.483 2.021-5.915 3.316-9.136 2.723.286-.245.873-.002 1.128-.34-2.425-.095-5.005.566-7.556.566.02.433.622.143.902.227-.863 1.09-1.68 2.217-2.143 3.517 2.841-.786 7.207-1.006 9.734-2.347 2.527-1.342 5.965-2.002 7.522-4.573-.055.046-.383.193-.451.227z" fill="#C66405"/><path d="M58.195 57.173c-.055.008-.172-.013-.225 0-.308.157-.532.27-.902.34-.271.051-.525.072-.79.113-.57.167-1.15.437-1.804.454a4.99 4.99 0 01-.226 0c-.255.34-.842.096-1.128.34 3.221.594 6.653-.7 9.136-2.722-1.16.58-2.777 1.298-4.06 1.475z" fill="#FAF1E8"/><path fill-rule="evenodd" clip-rule="evenodd" d="M62.932 6.58a.798.798 0 01.282.226c.533 1.095.57 2.191.113 3.29a46.097 46.097 0 00-4.173 3.517 215.676 215.676 0 00-5.357 6.409c-.393.227-.769.208-1.128-.057 1.893-4.846 7.222-9.14 10.263-13.386z" fill="#F89A3C"/><path d="M42.981 40.857c.054.181.106.355.169.493.446.006.49-.423.529-.801.008-.085.017-.168.03-.242.245-.032.484-.088.725-.144l.073-.017c.003.21-.06.402-.122.595-.072.221-.143.442-.117.69.242.091.45.259.66.427.171.139.344.278.537.375-.426.447-.788.197-1.17-.066-.28-.194-.57-.395-.906-.335.032.127.09.244.15.36.082.166.165.332.17.523a1.76 1.76 0 00-.263.044c-.147.032-.294.065-.456.036-.16-.507-.367-1-.574-1.492a18.43 18.43 0 01-.543-1.398c.727-.335.929.347 1.108.952zm-4.86.895c.193-.345.587-.48.958-.482a1.1 1.1 0 00.08.276c.035.093.07.185.08.286-1.218-.019-.633 1.207-.32 1.847a1.846 1.846 0 01-.798.16c-.132-.501-.327-.985-.523-1.469-.094-.232-.188-.464-.275-.699.045-.012.093-.029.144-.045.265-.089.574-.192.654.126z" fill="#4E4E4E"/><path fill-rule="evenodd" clip-rule="evenodd" d="M39.559 42.072c-.117-1.543 2.533-1.515 2.633-.08a6.855 6.855 0 01-.865.21 7.348 7.348 0 00-.811.192c.223.503.616.327 1.018.148.287-.129.579-.26.818-.148-.409 1.344-2.656 1.059-2.793-.322zm.717-.08c-.147-.582.946-.794 1.038-.24-.183.075-.377.107-.571.14a3.254 3.254 0 00-.467.1z" fill="#4E4E4E"/><path d="M36.406 41.832c.12-.023.24-.045.358-.08 2.206 2.657-2.515 3.596-2.395.481.679-.304.834.159 1.001.656.11.325.224.664.492.814 1.094.205.595-.886.294-1.545a8.898 8.898 0 01-.11-.246c.117-.036.238-.058.36-.08z" fill="#4E4E4E"/><path fill-rule="evenodd" clip-rule="evenodd" d="M31.212 42.108c.142-.033.285-.066.444-.035.003.175.063.335.124.495.047.126.095.253.115.388 2.123-1.98 3.79 2.743.718 1.847.045.26-.152.289-.352.318-.107.016-.214.032-.286.083-.406-.892-.716-1.834-1.025-2.77l-.093-.28c.124.007.24-.02.355-.047zm1.185 1.33c.13-.138.37-.394.695-.322.36.08.568.752.48.911-.106.19-.478.196-.799.098-.375-.116-.68-.373-.413-.647l.037-.04z" fill="#4E4E4E"/><path d="M25.408 45.264c-.397-.874-.806-1.776.101-1.987.1.146.15.318.2.487.05.172.1.342.2.477 1.243-1.287 2.41.41 2.554 1.686-.695.371-.85-.094-1.024-.614-.1-.304-.208-.627-.433-.812-1.267-.437-.743 1.198-.46 1.827a1.748 1.748 0 00-.426.087 2.564 2.564 0 01-.292.074c-.017-.337-.217-.778-.42-1.225zm-.777-.702c-.488-1.712-4.012-.536-3.03 1.282.384 1.645 3.646 1.462 3.43-.319-.1.017-.197.045-.292.073-.14.041-.279.082-.427.088-.188 1.134-2.115.69-2.048-.427.06-1.035.85-.899 1.586-.772.283.049.559.096.781.075z" fill="#4E4E4E"/><path fill-rule="evenodd" clip-rule="evenodd" d="M31.097 44.32c-.03-1.51-2.768-1.48-2.697.063.019 1.45 2.607 1.738 2.777.259-.214-.004-.452.101-.69.207-.44.195-.879.39-1.146-.127.283-.086.573-.141.864-.196.3-.057.6-.114.892-.205zm-.878-.24c-.105-.578-1.038-.339-1.118.16.229.058.487-.01.74-.076.129-.034.256-.067.378-.084zm8.701 2.007c1.96-2.111 3.636 2.803.638 1.927l.006.012c.276.565.656 1.34-.325 1.273a35.753 35.753 0 01-.88-2.232 76.04 76.04 0 00-.398-1.06l.092-.014c.308-.05.594-.095.866.094zm.284.522c.102-.136.474-.482.833-.361.36.12.517.885.36 1.017-.152.126-.478.091-.76-.024-.337-.14-.61-.396-.433-.632z" fill="#4E4E4E"/><path d="M32.055 46.468c.08-.019.16-.038.24-.06.025.169.091.324.158.48.067.156.134.313.16.484 1.325-1.228 2.504.484 2.555 1.766-.091.039-.19.052-.288.065a.907.907 0 00-.35.096c-.097-.161-.172-.383-.249-.613-.216-.644-.454-1.352-1.244-.968-.214.27-.066.667.07 1.035.191.511.36.967-.494.947-.222-.52-.403-1.054-.584-1.587a23.635 23.635 0 00-.533-1.464c.178-.092.368-.136.559-.181zm-.799 1.145c-.492-1.09-2.525-.881-2.793.24.075.945.797.964 1.512.982.421.01.84.022 1.122.223-.255.612-.73.5-1.22.383-.357-.084-.722-.17-1.015.018.442 1.085 2.398.964 2.927-.026.215-1.128-.731-1.177-1.607-1.222-.342-.018-.675-.035-.921-.117.08-.683.554-.58 1.055-.47.34.075.691.152.94-.011z" fill="#4E4E4E"/><path fill-rule="evenodd" clip-rule="evenodd" d="M37.004 46.328c-1.837-.572-2.527 2.082-.719 2.489 1.817.485 2.43-1.984.719-2.489zm-.24.562c-.372-.075-.602.222-.719.372l-.023.03c-.236.296.116.576.503.684.331.092.69.058.726-.203.025-.178-.088-.803-.487-.883z" fill="#4E4E4E"/></g></symbol><symbol id="logo__tinkoff" viewBox="0 0 240 240"><g fill="none"><path d="M15.1 15.7h208.5v104.9c0 26.9-14.3 51.7-37.6 65.2l-66.6 38.5-66.6-38.5c-23.3-13.4-37.6-38.3-37.6-65.2V15.7h-.1z" fill="#FFDD2D"/><path fill-rule="evenodd" clip-rule="evenodd" d="M72.3 70.9v32.6c4.5-5 12.6-8.4 21.8-8.4h10.1V133c0 10.1-2.7 18.9-6.8 23.8h43.8c-4.1-4.9-6.8-13.7-6.8-23.8V95.1h10.1c9.3 0 17.4 3.4 21.8 8.4V70.9h-94z" fill="#333"/></g></symbol><view id="icon__zoom-view" viewBox="0 0 25 25"/><use href="#icon__zoom" width="25" height="25" x="0" y="0"/></svg>